SplineFontDB: 3.0
FontName: Piedra-Regular
FullName: Piedra Regular
FamilyName: Piedra
Weight: Regular
Copyright: Copyright (c) 2011 Angel Koziupa (sudtipos@sudtipos.com),\nCopyright (c) 2011 Alejandro Paul (sudtipos@sudtipos.com),\nwith Reserved Font Name "Piedra"
Version: 001.001
ItalicAngle: 0
UnderlinePosition: -50
UnderlineWidth: 50
Ascent: 800
Descent: 200
sfntRevision: 0x00010000
LayerCount: 2
Layer: 0 1 "Back"  1
Layer: 1 1 "Fore"  0
XUID: [1021 288 713564382 12423272]
FSType: 0
OS2Version: 2
OS2_WeightWidthSlopeOnly: 0
OS2_UseTypoMetrics: 1
CreationTime: 1322169749
ModificationTime: 1322195988
PfmFamily: 17
TTFWeight: 400
TTFWidth: 5
LineGap: 0
VLineGap: 0
Panose: 2 0 5 3 0 0 0 2 0 4
OS2TypoAscent: 173
OS2TypoAOffset: 1
OS2TypoDescent: -128
OS2TypoDOffset: 1
OS2TypoLinegap: 0
OS2WinAscent: 0
OS2WinAOffset: 1
OS2WinDescent: 0
OS2WinDOffset: 1
HheadAscent: 0
HheadAOffset: 1
HheadDescent: 0
HheadDOffset: 1
OS2SubXSize: 700
OS2SubYSize: 650
OS2SubXOff: 0
OS2SubYOff: 140
OS2SupXSize: 700
OS2SupYSize: 650
OS2SupXOff: 0
OS2SupYOff: 477
OS2StrikeYSize: 50
OS2StrikeYPos: 250
OS2Vendor: 'SUDT'
OS2CodePages: 20000001.00000000
OS2UnicodeRanges: a0000027.50000042.00000000.00000000
Lookup: 258 0 0 "'kern' Horizontal Kerning in Latin lookup 0"  {"'kern' Horizontal Kerning in Latin lookup 0 subtable"  } ['kern' ('DFLT' <'dflt' > 'latn' <'dflt' > ) ]
MarkAttachClasses: 1
DEI: 91125
TtTable: prep
PUSHW_1
 511
SCANCTRL
PUSHB_1
 4
SCANTYPE
EndTTInstrs
LangName: 1033 "" "" "" "Piedra" "Piedra-Regular" "Version 1.000" "" "Piedra is a trademark of Angel Koziupa and Alejandro Paul." "Angel Koziupa and Alejandro Paul" "Angel Koziupa & Ale Paul" "" "www.sudtipos.com" "www.sudtipos.com" "This Font Software is licensed under the SIL Open Font License,+AA0A-Version 1.1. This license is available with a FAQ at:+AA0A-http://scripts.sil.org/OFL" "http://scripts.sil.org/OFL" 
GaspTable: 1 65535 3
Encoding: UnicodeBmp
UnicodeInterp: none
NameList: Adobe Glyph List
DisplaySize: -36

StartChar: AE
Encoding: 198 198 1
Width: 842
Flags: MW
HStem: -44 21G<439.5 483> -16 146 16 114<642 733.5> 258 134<309.5 329 308.5 338.5> 351 114<565 670> 556 212<301.5 375> 608 160<725 738.5> 666 83<589 684> 666 102 750 20G<541 572>
VStem: 153 131<479 614.5> 330 240<248 535> 362 242<-21 79.5> 376 194<218.5 292.5>
LayerCount: 2
Fore
SplineSet
280 533 m 1,0,-1
 284 486 l 2,1,2
 284 481 284 481 271.5 448.5 c 128,-1,3
 259 416 259 416 259 397.5 c 128,-1,4
 259 379 259 379 263 379 c 0,5,6
 273 379 273 379 290.5 385.5 c 128,-1,7
 308 392 308 392 326 392 c 128,-1,8
 344 392 344 392 344 399 c 0,9,10
 344 400 344 400 343.5 400.5 c 0,11,12
 330 441 330 441 330 524 c 2,13,-1
 330 535 l 2,14,15
 330 556 330 556 320 556 c 0,16,17
 280 556 280 556 280 533 c 1,0,-1
153 611 m 1,18,-1
 141 670 l 1,19,20
 141 679 141 679 217 720.5 c 128,-1,21
 293 762 293 762 308 765 c 128,-1,22
 323 768 323 768 361.5 768 c 128,-1,23
 400 768 400 768 437 754 c 1,24,25
 492 770 492 770 560 770 c 0,26,27
 573 770 573 770 581.5 759.5 c 128,-1,28
 590 749 590 749 596.5 749 c 128,-1,29
 603 749 603 749 656 758.5 c 128,-1,30
 709 768 709 768 760 768 c 128,-1,31
 811 768 811 768 811 752 c 0,32,33
 811 723 811 723 799.5 674.5 c 128,-1,34
 788 626 788 626 779 617 c 128,-1,35
 770 608 770 608 732 608 c 0,36,37
 728 608 728 608 721.5 622.5 c 128,-1,38
 715 637 715 637 697.5 651.5 c 128,-1,39
 680 666 680 666 658.5 666 c 128,-1,40
 637 666 637 666 613 657.5 c 128,-1,41
 589 649 589 649 583.5 643.5 c 128,-1,42
 578 638 578 638 578 593 c 128,-1,43
 578 548 578 548 583 526 c 1,44,-1
 583 524 l 2,45,46
 583 516 583 516 568.5 512 c 0,47,48
 542 504.689655172 542 504.689655172 542 471 c 0,49,50
 542 465 542 465 575 465 c 1,51,-1
 735 474 l 1,52,53
 755 474 755 474 760.5 473 c 128,-1,54
 766 472 766 472 766 466 c 0,55,56
 766 439 766 439 743 386 c 128,-1,57
 720 333 720 333 707 333 c 1,58,-1
 690 342 l 2,59,60
 673 351 673 351 654 351 c 0,61,62
 581 351 581 351 574 344 c 1,63,64
 570 338 570 338 570 249.5 c 128,-1,65
 570 161 570 161 585.5 145.5 c 128,-1,66
 601 130 601 130 651.5 130 c 128,-1,67
 702 130 702 130 716 143.5 c 128,-1,68
 730 157 730 157 744.5 180 c 128,-1,69
 759 203 759 203 767.5 219.5 c 128,-1,70
 776 236 776 236 777 236 c 0,71,72
 786 236 786 236 811.5 211 c 128,-1,73
 837 186 837 186 837 174.5 c 128,-1,74
 837 163 837 163 815.5 92 c 128,-1,75
 794 21 794 21 785 12 c 0,76,77
 783 10 783 10 778 10 c 2,78,-1
 721 16 l 1,79,80
 684 16 684 16 667 14 c 128,-1,81
 650 12 650 12 649 12 c 2,82,-1
 595 20 l 1,83,84
 595 11.25 595 11.25 604 -9 c 1,85,86
 604 -25 604 -25 554 -34.5 c 128,-1,87
 504 -44 504 -44 472.5 -44 c 128,-1,88
 441 -44 441 -44 414.5 -34 c 128,-1,89
 388 -24 388 -24 371.5 -12 c 128,-1,90
 355 0 355 0 355 5 c 0,91,92
 355 6 355 6 356.5 16 c 0,93,94
 362 52.6666666667 362 52.6666666667 362 71 c 1,95,-1
 340 208 l 2,96,97
 340 211 340 211 358 214 c 128,-1,98
 376 217 376 217 376 227 c 0,99,100
 376 240 376 240 361 249 c 128,-1,101
 346 258 346 258 325 258 c 128,-1,102
 304 258 304 258 274 247 c 128,-1,103
 244 236 244 236 239.5 226.5 c 128,-1,104
 235 217 235 217 225 137.5 c 128,-1,105
 215 58 215 58 215 19 c 0,106,107
 215 15 215 15 190.5 6.5 c 0,108,109
 125.647058824 -16 125.647058824 -16 74 -16 c 0,110,111
 57 -16 57 -16 16.5 9.5 c 2,112,-1
 3 18 l 2,113,114
 0 21 0 21 0 26 c 2,115,-1
 0 28 l 1,116,117
 14 46 14 46 36.5 110.5 c 2,118,-1
 44 132 l 1,119,120
 56 132 56 132 73.5 147.5 c 128,-1,121
 91 163 91 163 91 169.5 c 128,-1,122
 91 176 91 176 80.5 190.5 c 128,-1,123
 70 205 70 205 70 208 c 2,124,-1
 70 209 l 1,125,-1
 107 301 l 1,126,127
 107 324 107 324 130 456 c 128,-1,128
 153 588 153 588 153 611 c 1,18,-1
EndSplineSet
EndChar

StartChar: Aacute
Encoding: 193 193 2
Width: 612
Flags: MW
HStem: -46 21G<440.5 483.5> -18 21G<65 99.5> 390 164<309 325.5 302 329.5> 766 194<358.5 374.5 358.5 398.5>
VStem: 154 127<522 613> 330 166 363 154<53.5 145> 363 215<53.5 108> 363 247<-2 77.5>
LayerCount: 2
Fore
SplineSet
356 868 m 1,0,-1
 358 853 l 2,1,2
 358 850 358 850 349 847 c 128,-1,3
 340 844 340 844 317 824.5 c 128,-1,4
 294 805 294 805 289.5 800 c 128,-1,5
 285 795 285 795 280 795 c 128,-1,6
 275 795 275 795 255.5 811 c 128,-1,7
 236 827 236 827 236 835.5 c 128,-1,8
 236 844 236 844 261 875.5 c 128,-1,9
 286 907 286 907 286 909 c 0,10,11
 287 921 287 921 287 922 c 0,12,13
 311 952 311 952 312.5 953.5 c 128,-1,14
 314 955 314 955 334.5 957.5 c 128,-1,15
 355 960 355 960 367 960 c 128,-1,16
 379 960 379 960 403.5 943 c 128,-1,17
 428 926 428 926 428 917 c 0,18,19
 428 914 428 914 420 908.5 c 0,20,21
 388.784313725 887.039215686 388.784313725 887.039215686 380 877 c 0,22,23
 380 876 380 876 368 876 c 128,-1,24
 356 876 356 876 356 868 c 1,0,-1
344 398 m 1,25,26
 343 400 343 400 343 401 c 0,27,28
 330 442 330 442 330 529 c 2,29,-1
 330 533 l 2,30,31
 330 554 330 554 321 554 c 0,32,33
 281 554 281 554 281 531 c 1,34,-1
 285 485 l 2,35,36
 285 479 285 479 272 447 c 128,-1,37
 259 415 259 415 259 396 c 128,-1,38
 259 377 259 377 264 377 c 0,39,40
 273 377 273 377 291 383.5 c 128,-1,41
 309 390 309 390 326.5 390 c 128,-1,42
 344 390 344 390 344 398 c 1,25,26
154 610 m 1,43,-1
 141 668 l 1,44,45
 141 677 141 677 217.5 718.5 c 128,-1,46
 294 760 294 760 308 763 c 128,-1,47
 322 766 322 766 359 766 c 128,-1,48
 396 766 396 766 428.5 759 c 0,49,50
 496 744.461538462 496 744.461538462 496 730 c 0,51,52
 496 729 496 729 491 704.5 c 0,53,54
 475 626.1 475 626.1 475 580 c 0,55,56
 475 575 475 575 485 572.5 c 128,-1,57
 495 570 495 570 495 569 c 0,58,59
 495 537 495 537 514.5 375.5 c 128,-1,60
 534 214 534 214 548 172 c 1,61,-1
 548 171 l 2,62,63
 548 169 548 169 532.5 158 c 128,-1,64
 517 147 517 147 517 134 c 128,-1,65
 517 121 517 121 532.5 116 c 128,-1,66
 548 111 548 111 563 108.5 c 128,-1,67
 578 106 578 106 578 98 c 1,68,69
 577 96 577 96 577 91 c 128,-1,70
 577 86 577 86 579.5 73 c 0,71,72
 583.330472103 53.0815450644 583.330472103 53.0815450644 603.5 20.5 c 2,73,-1
 610 10 l 1,74,75
 610 -7 610 -7 553.5 -26.5 c 128,-1,76
 497 -46 497 -46 469.5 -46 c 128,-1,77
 442 -46 442 -46 415.5 -35.5 c 128,-1,78
 389 -25 389 -25 372.5 -13 c 128,-1,79
 356 -1 356 -1 356 4 c 0,80,81
 356 5 356 5 358 15 c 0,82,83
 363 40 363 40 363 69 c 1,84,-1
 341 206 l 2,85,86
 341 210 341 210 359 213 c 128,-1,87
 377 216 377 216 377 226 c 0,88,89
 377 239 377 239 362 248 c 128,-1,90
 347 257 347 257 325.5 257 c 128,-1,91
 304 257 304 257 274.5 246 c 128,-1,92
 245 235 245 235 240.5 225.5 c 128,-1,93
 236 216 236 216 226 136.5 c 128,-1,94
 216 57 216 57 216 18 c 0,95,96
 216 10 216 10 163 -4 c 128,-1,97
 110 -18 110 -18 75 -18 c 0,98,99
 57 -18 57 -18 16.5 7.5 c 2,100,-1
 3 16 l 2,101,102
 0 19 0 19 0 25 c 2,103,-1
 0 27 l 1,104,105
 14.6325301205 45.813253012 14.6325301205 45.813253012 36.5 108.5 c 2,106,-1
 44 130 l 1,107,108
 57 130 57 130 74.5 145.5 c 128,-1,109
 92 161 92 161 92 167.5 c 128,-1,110
 92 174 92 174 81 188.5 c 128,-1,111
 70 203 70 203 70 206 c 2,112,-1
 70 207 l 1,113,-1
 107 299 l 1,114,115
 107 321 107 321 130.5 454 c 128,-1,116
 154 587 154 587 154 610 c 1,43,-1
EndSplineSet
EndChar

StartChar: Acircumflex
Encoding: 194 194 3
Width: 612
Flags: MW
HStem: -46 21G<440.5 483.5> -18 21G<65 99.5> 257 133<309.5 329.5 309 339> 554 212<302 398.5> 840 124<265.5 386>
VStem: 154 131<477.5 613> 363 154<53.5 145> 363 215<53.5 108> 363 247<-2 77.5>
LayerCount: 2
Fore
SplineSet
229 913 m 1,0,-1
 225 933 l 1,1,2
 243 962 243 962 250 962 c 2,3,-1
 271 962 l 2,4,5
 301 962 301 962 303 959 c 1,6,7
 321 944 321 944 323.5 944 c 128,-1,8
 326 944 326 944 348 959 c 1,9,10
 350 964 350 964 372 964 c 128,-1,11
 394 964 394 964 397.5 961 c 128,-1,12
 401 958 401 958 417 932.5 c 128,-1,13
 433 907 433 907 433 903 c 1,14,15
 430 892 430 892 430 882 c 128,-1,16
 430 872 430 872 451 872 c 1,17,18
 478 838 478 838 478 834.5 c 128,-1,19
 478 831 478 831 476 829 c 128,-1,20
 474 827 474 827 471 825 c 128,-1,21
 468 823 468 823 462.5 817.5 c 128,-1,22
 457 812 457 812 445.5 806.5 c 128,-1,23
 434 801 434 801 422 799 c 1,24,25
 399 799 399 799 399 803 c 1,26,-1
 361 848 l 1,27,28
 344 851.4 344 851.4 344 856 c 0,29,30
 344 869 344 869 335 883.5 c 128,-1,31
 326 898 326 898 320 898 c 0,32,33
 315 898 315 898 292.5 869.5 c 2,34,-1
 285 860 l 1,35,36
 285 844 285 844 279 840 c 1,37,38
 263 840 263 840 244.5 820 c 128,-1,39
 226 800 226 800 225 800 c 0,40,41
 209 800 209 800 193.5 807.5 c 128,-1,42
 178 815 178 815 170.5 822 c 128,-1,43
 163 829 163 829 163 831 c 1,44,-1
 182.5 862 l 2,45,46
 202 893 202 893 202 898 c 1,47,48
 229 904 229 904 229 913 c 1,0,-1
344 398 m 1,49,50
 343 400 343 400 343 401 c 0,51,52
 330 442 330 442 330 529 c 2,53,-1
 330 533 l 2,54,55
 330 554 330 554 321 554 c 0,56,57
 281 554 281 554 281 531 c 1,58,-1
 285 485 l 2,59,60
 285 479 285 479 272 447 c 128,-1,61
 259 415 259 415 259 396 c 128,-1,62
 259 377 259 377 264 377 c 0,63,64
 273 377 273 377 291 383.5 c 128,-1,65
 309 390 309 390 326.5 390 c 128,-1,66
 344 390 344 390 344 398 c 1,49,50
154 610 m 1,67,-1
 141 668 l 1,68,69
 141 677 141 677 217.5 718.5 c 128,-1,70
 294 760 294 760 308 763 c 128,-1,71
 322 766 322 766 359 766 c 128,-1,72
 396 766 396 766 428.5 759 c 0,73,74
 496 744.461538462 496 744.461538462 496 730 c 0,75,76
 496 729 496 729 491 704.5 c 0,77,78
 475 626.1 475 626.1 475 580 c 0,79,80
 475 575 475 575 485 572.5 c 128,-1,81
 495 570 495 570 495 569 c 0,82,83
 495 537 495 537 514.5 375.5 c 128,-1,84
 534 214 534 214 548 172 c 1,85,-1
 548 171 l 2,86,87
 548 169 548 169 532.5 158 c 128,-1,88
 517 147 517 147 517 134 c 128,-1,89
 517 121 517 121 532.5 116 c 128,-1,90
 548 111 548 111 563 108.5 c 128,-1,91
 578 106 578 106 578 98 c 1,92,93
 577 96 577 96 577 91 c 128,-1,94
 577 86 577 86 579.5 73 c 0,95,96
 583.330472103 53.0815450644 583.330472103 53.0815450644 603.5 20.5 c 2,97,-1
 610 10 l 1,98,99
 610 -7 610 -7 553.5 -26.5 c 128,-1,100
 497 -46 497 -46 469.5 -46 c 128,-1,101
 442 -46 442 -46 415.5 -35.5 c 128,-1,102
 389 -25 389 -25 372.5 -13 c 128,-1,103
 356 -1 356 -1 356 4 c 0,104,105
 356 5 356 5 358 15 c 0,106,107
 363 40 363 40 363 69 c 1,108,-1
 341 206 l 2,109,110
 341 210 341 210 359 213 c 128,-1,111
 377 216 377 216 377 226 c 0,112,113
 377 239 377 239 362 248 c 128,-1,114
 347 257 347 257 325.5 257 c 128,-1,115
 304 257 304 257 274.5 246 c 128,-1,116
 245 235 245 235 240.5 225.5 c 128,-1,117
 236 216 236 216 226 136.5 c 128,-1,118
 216 57 216 57 216 18 c 0,119,120
 216 10 216 10 163 -4 c 128,-1,121
 110 -18 110 -18 75 -18 c 0,122,123
 57 -18 57 -18 16.5 7.5 c 2,124,-1
 3 16 l 2,125,126
 0 19 0 19 0 25 c 2,127,-1
 0 27 l 1,128,129
 14.6325301205 45.813253012 14.6325301205 45.813253012 36.5 108.5 c 2,130,-1
 44 130 l 1,131,132
 57 130 57 130 74.5 145.5 c 128,-1,133
 92 161 92 161 92 167.5 c 128,-1,134
 92 174 92 174 81 188.5 c 128,-1,135
 70 203 70 203 70 206 c 2,136,-1
 70 207 l 1,137,-1
 107 299 l 1,138,139
 107 321 107 321 130.5 454 c 128,-1,140
 154 587 154 587 154 610 c 1,67,-1
EndSplineSet
EndChar

StartChar: Adieresis
Encoding: 196 196 4
Width: 612
Flags: MW
HStem: -46 21G<440.5 483.5> -18 21G<65 99.5> 257 133<309.5 329.5 309 339> 554 212<302 398.5> 923 20G<224.5 233.5 432 436>
VStem: 154 131<477.5 613> 353 134<850 923.5> 353 142 353 164 353 225
LayerCount: 2
Fore
SplineSet
281 889 m 0,0,1
 281 869 281 869 275.5 853.5 c 128,-1,2
 270 838 270 838 260 828 c 1,3,4
 252 822 252 822 232 815.5 c 128,-1,5
 212 809 212 809 193.5 809 c 128,-1,6
 175 809 175 809 167 817 c 0,7,8
 166 818 166 818 166 827.5 c 0,9,10
 166 843 166 843 155 843 c 2,11,-1
 149 843 l 2,12,13
 145 843 145 843 142 845.5 c 128,-1,14
 139 848 139 848 139 872.5 c 128,-1,15
 139 897 139 897 140.5 899.5 c 128,-1,16
 142 902 142 902 152.5 913 c 128,-1,17
 163 924 163 924 174 930 c 1,18,19
 217 943 217 943 227 943 c 128,-1,20
 237 943 237 943 251.5 938.5 c 128,-1,21
 266 934 266 934 266 930 c 1,22,23
 262 920 262 920 262 911 c 1,24,25
 281 895 281 895 281 889 c 0,0,1
503 876 m 0,26,27
 502 846 502 846 493 837 c 128,-1,28
 484 828 484 828 479 828 c 128,-1,29
 474 828 474 828 459 814.5 c 128,-1,30
 444 801 444 801 442 801 c 2,31,-1
 399 807 l 1,32,33
 385.375 811.541666667 385.375 811.541666667 356 837 c 0,34,35
 353 840 353 840 353 855 c 128,-1,36
 353 870 353 870 356.5 888 c 128,-1,37
 360 906 360 906 364 906 c 0,38,39
 377 906 377 906 418 939 c 1,40,41
 428 943 428 943 436 943 c 1,42,43
 487 931 487 931 487 916 c 1,44,45
 481 907 481 907 481 901.5 c 128,-1,46
 481 896 481 896 492 889 c 128,-1,47
 503 882 503 882 503 876 c 0,26,27
344 398 m 1,48,49
 343 400 343 400 343 401 c 0,50,51
 330 442 330 442 330 529 c 2,52,-1
 330 533 l 2,53,54
 330 554 330 554 321 554 c 0,55,56
 281 554 281 554 281 531 c 1,57,-1
 285 485 l 2,58,59
 285 479 285 479 272 447 c 128,-1,60
 259 415 259 415 259 396 c 128,-1,61
 259 377 259 377 264 377 c 0,62,63
 273 377 273 377 291 383.5 c 128,-1,64
 309 390 309 390 326.5 390 c 128,-1,65
 344 390 344 390 344 398 c 1,48,49
154 610 m 1,66,-1
 141 668 l 1,67,68
 141 677 141 677 217.5 718.5 c 128,-1,69
 294 760 294 760 308 763 c 128,-1,70
 322 766 322 766 359 766 c 128,-1,71
 396 766 396 766 428.5 759 c 0,72,73
 496 744.461538462 496 744.461538462 496 730 c 0,74,75
 496 729 496 729 491 704.5 c 0,76,77
 475 626.1 475 626.1 475 580 c 0,78,79
 475 575 475 575 485 572.5 c 128,-1,80
 495 570 495 570 495 569 c 0,81,82
 495 537 495 537 514.5 375.5 c 128,-1,83
 534 214 534 214 548 172 c 1,84,-1
 548 171 l 2,85,86
 548 169 548 169 532.5 158 c 128,-1,87
 517 147 517 147 517 134 c 128,-1,88
 517 121 517 121 532.5 116 c 128,-1,89
 548 111 548 111 563 108.5 c 128,-1,90
 578 106 578 106 578 98 c 1,91,92
 577 96 577 96 577 91 c 128,-1,93
 577 86 577 86 579.5 73 c 0,94,95
 583.330472103 53.0815450644 583.330472103 53.0815450644 603.5 20.5 c 2,96,-1
 610 10 l 1,97,98
 610 -7 610 -7 553.5 -26.5 c 128,-1,99
 497 -46 497 -46 469.5 -46 c 128,-1,100
 442 -46 442 -46 415.5 -35.5 c 128,-1,101
 389 -25 389 -25 372.5 -13 c 128,-1,102
 356 -1 356 -1 356 4 c 0,103,104
 356 5 356 5 358 15 c 0,105,106
 363 40 363 40 363 69 c 1,107,-1
 341 206 l 2,108,109
 341 210 341 210 359 213 c 128,-1,110
 377 216 377 216 377 226 c 0,111,112
 377 239 377 239 362 248 c 128,-1,113
 347 257 347 257 325.5 257 c 128,-1,114
 304 257 304 257 274.5 246 c 128,-1,115
 245 235 245 235 240.5 225.5 c 128,-1,116
 236 216 236 216 226 136.5 c 128,-1,117
 216 57 216 57 216 18 c 0,118,119
 216 10 216 10 163 -4 c 128,-1,120
 110 -18 110 -18 75 -18 c 0,121,122
 57 -18 57 -18 16.5 7.5 c 2,123,-1
 3 16 l 2,124,125
 0 19 0 19 0 25 c 2,126,-1
 0 27 l 1,127,128
 14.6325301205 45.813253012 14.6325301205 45.813253012 36.5 108.5 c 2,129,-1
 44 130 l 1,130,131
 57 130 57 130 74.5 145.5 c 128,-1,132
 92 161 92 161 92 167.5 c 128,-1,133
 92 174 92 174 81 188.5 c 128,-1,134
 70 203 70 203 70 206 c 2,135,-1
 70 207 l 1,136,-1
 107 299 l 1,137,138
 107 321 107 321 130.5 454 c 128,-1,139
 154 587 154 587 154 610 c 1,66,-1
EndSplineSet
EndChar

StartChar: Agrave
Encoding: 192 192 5
Width: 612
Flags: MW
HStem: -46 21G<440.5 483.5> -18 21G<65 99.5> 257 133<309.5 329.5 309 339> 554 212<302 398.5> 938 20G<272.5 284>
VStem: 154 127<522 613> 330 166 363 154<53.5 145> 363 215<53.5 108> 363 247<-2 77.5>
LayerCount: 2
Fore
SplineSet
261 881 m 2,0,-1
 247 880 l 1,1,-1
 246 880 l 1,2,3
 246 881 246 881 226.5 901 c 128,-1,4
 207 921 207 921 207 923 c 0,5,6
 207 928 207 928 237.5 943 c 128,-1,7
 268 958 268 958 284 958 c 1,8,9
 339 947 339 947 341 945 c 0,10,11
 385 854 385 854 404 835 c 1,12,-1
 404 834 l 2,13,14
 404 823.333333333 404 823.333333333 379.5 815.166666667 c 128,-1,15
 355 807 355 807 337 807 c 0,16,17
 332 807 332 807 304.5 829.5 c 128,-1,18
 277 852 277 852 273 852 c 0,19,20
 272 852 272 852 272 857 c 2,21,-1
 272 867 l 2,22,23
 272 876 272 876 269.5 878.5 c 128,-1,24
 267 881 267 881 261 881 c 2,0,-1
344 398 m 1,25,26
 343 400 343 400 343 401 c 0,27,28
 330 442 330 442 330 529 c 2,29,-1
 330 533 l 2,30,31
 330 554 330 554 321 554 c 0,32,33
 281 554 281 554 281 531 c 1,34,-1
 285 485 l 2,35,36
 285 479 285 479 272 447 c 128,-1,37
 259 415 259 415 259 396 c 128,-1,38
 259 377 259 377 264 377 c 0,39,40
 273 377 273 377 291 383.5 c 128,-1,41
 309 390 309 390 326.5 390 c 128,-1,42
 344 390 344 390 344 398 c 1,25,26
154 610 m 1,43,-1
 141 668 l 1,44,45
 141 677 141 677 217.5 718.5 c 128,-1,46
 294 760 294 760 308 763 c 128,-1,47
 322 766 322 766 359 766 c 128,-1,48
 396 766 396 766 428.5 759 c 0,49,50
 496 744.461538462 496 744.461538462 496 730 c 0,51,52
 496 729 496 729 491 704.5 c 0,53,54
 475 626.1 475 626.1 475 580 c 0,55,56
 475 575 475 575 485 572.5 c 128,-1,57
 495 570 495 570 495 569 c 0,58,59
 495 537 495 537 514.5 375.5 c 128,-1,60
 534 214 534 214 548 172 c 1,61,-1
 548 171 l 2,62,63
 548 169 548 169 532.5 158 c 128,-1,64
 517 147 517 147 517 134 c 128,-1,65
 517 121 517 121 532.5 116 c 128,-1,66
 548 111 548 111 563 108.5 c 128,-1,67
 578 106 578 106 578 98 c 1,68,69
 577 96 577 96 577 91 c 128,-1,70
 577 86 577 86 579.5 73 c 0,71,72
 583.330472103 53.0815450644 583.330472103 53.0815450644 603.5 20.5 c 2,73,-1
 610 10 l 1,74,75
 610 -7 610 -7 553.5 -26.5 c 128,-1,76
 497 -46 497 -46 469.5 -46 c 128,-1,77
 442 -46 442 -46 415.5 -35.5 c 128,-1,78
 389 -25 389 -25 372.5 -13 c 128,-1,79
 356 -1 356 -1 356 4 c 0,80,81
 356 5 356 5 358 15 c 0,82,83
 363 40 363 40 363 69 c 1,84,-1
 341 206 l 2,85,86
 341 210 341 210 359 213 c 128,-1,87
 377 216 377 216 377 226 c 0,88,89
 377 239 377 239 362 248 c 128,-1,90
 347 257 347 257 325.5 257 c 128,-1,91
 304 257 304 257 274.5 246 c 128,-1,92
 245 235 245 235 240.5 225.5 c 128,-1,93
 236 216 236 216 226 136.5 c 128,-1,94
 216 57 216 57 216 18 c 0,95,96
 216 10 216 10 163 -4 c 128,-1,97
 110 -18 110 -18 75 -18 c 0,98,99
 57 -18 57 -18 16.5 7.5 c 2,100,-1
 3 16 l 2,101,102
 0 19 0 19 0 25 c 2,103,-1
 0 27 l 1,104,105
 14.6325301205 45.813253012 14.6325301205 45.813253012 36.5 108.5 c 2,106,-1
 44 130 l 1,107,108
 57 130 57 130 74.5 145.5 c 128,-1,109
 92 161 92 161 92 167.5 c 128,-1,110
 92 174 92 174 81 188.5 c 128,-1,111
 70 203 70 203 70 206 c 2,112,-1
 70 207 l 1,113,-1
 107 299 l 1,114,115
 107 321 107 321 130.5 454 c 128,-1,116
 154 587 154 587 154 610 c 1,43,-1
EndSplineSet
EndChar

StartChar: Aring
Encoding: 197 197 6
Width: 612
Flags: MW
HStem: -46 21G<440.5 483.5> -18 21G<65 99.5> 257 133<309.5 329.5 309 339> 554 212<302 398.5> 946 20G<350 354.5>
VStem: 154 131<477.5 613> 363 154<53.5 145> 363 215<53.5 108> 363 247<-2 77.5>
LayerCount: 2
Fore
SplineSet
338 860 m 1,0,1
 345 865 345 865 345 874.5 c 128,-1,2
 345 884 345 884 342 884 c 128,-1,3
 339 884 339 884 335 897.5 c 128,-1,4
 331 911 331 911 323 911 c 0,5,6
 301 911 301 911 301 905 c 0,7,8
 301 904 301 904 292.5 895.5 c 128,-1,9
 284 887 284 887 284 881 c 1,10,11
 288 863 288 863 292 858 c 1,12,13
 308 850 308 850 319.5 851 c 128,-1,14
 331 852 331 852 338 860 c 1,0,1
388 916 m 1,15,-1
 403 884 l 1,16,17
 403 845 403 845 382 824 c 0,18,19
 379 821 379 821 364.5 813 c 128,-1,20
 350 805 350 805 338 797 c 0,21,22
 336 796 336 796 323 796 c 2,23,-1
 276 798 l 1,24,25
 266.847457627 800.288135593 266.847457627 800.288135593 249 834 c 0,26,27
 248 835 248 835 246 835 c 2,28,-1
 239 834 l 2,29,30
 235 834 235 834 231.5 857.5 c 128,-1,31
 228 881 228 881 228 894 c 0,32,33
 228 899 228 899 255 930 c 128,-1,34
 282 961 282 961 290 962 c 1,35,-1
 300 962 l 1,36,-1
 332 959 l 1,37,-1
 334 960 l 1,38,39
 340 966 340 966 349.5 966 c 128,-1,40
 359 966 359 966 373.5 950 c 128,-1,41
 388 934 388 934 388 916 c 1,15,-1
344 398 m 1,42,43
 343 400 343 400 343 401 c 0,44,45
 330 442 330 442 330 529 c 2,46,-1
 330 533 l 2,47,48
 330 554 330 554 321 554 c 0,49,50
 281 554 281 554 281 531 c 1,51,-1
 285 485 l 2,52,53
 285 479 285 479 272 447 c 128,-1,54
 259 415 259 415 259 396 c 128,-1,55
 259 377 259 377 264 377 c 0,56,57
 273 377 273 377 291 383.5 c 128,-1,58
 309 390 309 390 326.5 390 c 128,-1,59
 344 390 344 390 344 398 c 1,42,43
154 610 m 1,60,-1
 141 668 l 1,61,62
 141 677 141 677 217.5 718.5 c 128,-1,63
 294 760 294 760 308 763 c 128,-1,64
 322 766 322 766 359 766 c 128,-1,65
 396 766 396 766 428.5 759 c 0,66,67
 496 744.461538462 496 744.461538462 496 730 c 0,68,69
 496 729 496 729 491 704.5 c 0,70,71
 475 626.1 475 626.1 475 580 c 0,72,73
 475 575 475 575 485 572.5 c 128,-1,74
 495 570 495 570 495 569 c 0,75,76
 495 537 495 537 514.5 375.5 c 128,-1,77
 534 214 534 214 548 172 c 1,78,-1
 548 171 l 2,79,80
 548 169 548 169 532.5 158 c 128,-1,81
 517 147 517 147 517 134 c 128,-1,82
 517 121 517 121 532.5 116 c 128,-1,83
 548 111 548 111 563 108.5 c 128,-1,84
 578 106 578 106 578 98 c 1,85,86
 577 96 577 96 577 91 c 128,-1,87
 577 86 577 86 579.5 73 c 0,88,89
 583.330472103 53.0815450644 583.330472103 53.0815450644 603.5 20.5 c 2,90,-1
 610 10 l 1,91,92
 610 -7 610 -7 553.5 -26.5 c 128,-1,93
 497 -46 497 -46 469.5 -46 c 128,-1,94
 442 -46 442 -46 415.5 -35.5 c 128,-1,95
 389 -25 389 -25 372.5 -13 c 128,-1,96
 356 -1 356 -1 356 4 c 0,97,98
 356 5 356 5 358 15 c 0,99,100
 363 40 363 40 363 69 c 1,101,-1
 341 206 l 2,102,103
 341 210 341 210 359 213 c 128,-1,104
 377 216 377 216 377 226 c 0,105,106
 377 239 377 239 362 248 c 128,-1,107
 347 257 347 257 325.5 257 c 128,-1,108
 304 257 304 257 274.5 246 c 128,-1,109
 245 235 245 235 240.5 225.5 c 128,-1,110
 236 216 236 216 226 136.5 c 128,-1,111
 216 57 216 57 216 18 c 0,112,113
 216 10 216 10 163 -4 c 128,-1,114
 110 -18 110 -18 75 -18 c 0,115,116
 57 -18 57 -18 16.5 7.5 c 2,117,-1
 3 16 l 2,118,119
 0 19 0 19 0 25 c 2,120,-1
 0 27 l 1,121,122
 14.6325301205 45.813253012 14.6325301205 45.813253012 36.5 108.5 c 2,123,-1
 44 130 l 1,124,125
 57 130 57 130 74.5 145.5 c 128,-1,126
 92 161 92 161 92 167.5 c 128,-1,127
 92 174 92 174 81 188.5 c 128,-1,128
 70 203 70 203 70 206 c 2,129,-1
 70 207 l 1,130,-1
 107 299 l 1,131,132
 107 321 107 321 130.5 454 c 128,-1,133
 154 587 154 587 154 610 c 1,60,-1
EndSplineSet
EndChar

StartChar: Atilde
Encoding: 195 195 7
Width: 612
Flags: MW
HStem: -46 21G<440.5 483.5> -18 21G<65 99.5> 257 133<309.5 329.5 309 339> 554 212<302 398.5> 829 73<276.5 311>
VStem: 154 131<477.5 613> 363 154<53.5 145> 363 215<53.5 108> 363 247<-2 77.5>
LayerCount: 2
Fore
SplineSet
344 398 m 1,0,1
 343 400 343 400 343 401 c 0,2,3
 330 442 330 442 330 529 c 2,4,-1
 330 533 l 2,5,6
 330 554 330 554 321 554 c 0,7,8
 281 554 281 554 281 531 c 1,9,-1
 285 485 l 2,10,11
 285 479 285 479 272 447 c 128,-1,12
 259 415 259 415 259 396 c 128,-1,13
 259 377 259 377 264 377 c 0,14,15
 273 377 273 377 291 383.5 c 128,-1,16
 309 390 309 390 326.5 390 c 128,-1,17
 344 390 344 390 344 398 c 1,0,1
154 610 m 1,18,-1
 141 668 l 1,19,20
 141 677 141 677 217.5 718.5 c 128,-1,21
 294 760 294 760 308 763 c 128,-1,22
 322 766 322 766 359 766 c 128,-1,23
 396 766 396 766 428.5 759 c 0,24,25
 496 744.461538462 496 744.461538462 496 730 c 0,26,27
 496 729 496 729 491 704.5 c 0,28,29
 475 626.1 475 626.1 475 580 c 0,30,31
 475 575 475 575 485 572.5 c 128,-1,32
 495 570 495 570 495 569 c 0,33,34
 495 537 495 537 514.5 375.5 c 128,-1,35
 534 214 534 214 548 172 c 1,36,-1
 548 171 l 2,37,38
 548 169 548 169 532.5 158 c 128,-1,39
 517 147 517 147 517 134 c 128,-1,40
 517 121 517 121 532.5 116 c 128,-1,41
 548 111 548 111 563 108.5 c 128,-1,42
 578 106 578 106 578 98 c 1,43,44
 577 96 577 96 577 91 c 128,-1,45
 577 86 577 86 579.5 73 c 0,46,47
 583.330472103 53.0815450644 583.330472103 53.0815450644 603.5 20.5 c 2,48,-1
 610 10 l 1,49,50
 610 -7 610 -7 553.5 -26.5 c 128,-1,51
 497 -46 497 -46 469.5 -46 c 128,-1,52
 442 -46 442 -46 415.5 -35.5 c 128,-1,53
 389 -25 389 -25 372.5 -13 c 128,-1,54
 356 -1 356 -1 356 4 c 0,55,56
 356 5 356 5 358 15 c 0,57,58
 363 40 363 40 363 69 c 1,59,-1
 341 206 l 2,60,61
 341 210 341 210 359 213 c 128,-1,62
 377 216 377 216 377 226 c 0,63,64
 377 239 377 239 362 248 c 128,-1,65
 347 257 347 257 325.5 257 c 128,-1,66
 304 257 304 257 274.5 246 c 128,-1,67
 245 235 245 235 240.5 225.5 c 128,-1,68
 236 216 236 216 226 136.5 c 128,-1,69
 216 57 216 57 216 18 c 0,70,71
 216 10 216 10 163 -4 c 128,-1,72
 110 -18 110 -18 75 -18 c 0,73,74
 57 -18 57 -18 16.5 7.5 c 2,75,-1
 3 16 l 2,76,77
 0 19 0 19 0 25 c 2,78,-1
 0 27 l 1,79,80
 14.6325301205 45.813253012 14.6325301205 45.813253012 36.5 108.5 c 2,81,-1
 44 130 l 1,82,83
 57 130 57 130 74.5 145.5 c 128,-1,84
 92 161 92 161 92 167.5 c 128,-1,85
 92 174 92 174 81 188.5 c 128,-1,86
 70 203 70 203 70 206 c 2,87,-1
 70 207 l 1,88,-1
 107 299 l 1,89,90
 107 321 107 321 130.5 454 c 128,-1,91
 154 587 154 587 154 610 c 1,18,-1
469 843 m 0,92,93
 469 836 469 836 434.5 814.5 c 128,-1,94
 400 793 400 793 390 793 c 128,-1,95
 380 793 380 793 345.5 811 c 128,-1,96
 311 829 311 829 303 829 c 128,-1,97
 295 829 295 829 260 818 c 128,-1,98
 225 807 225 807 222.5 807 c 128,-1,99
 220 807 220 807 213.5 826.5 c 128,-1,100
 207 846 207 846 207 856 c 1,101,102
 272 902 272 902 284.5 902 c 128,-1,103
 297 902 297 902 343 885.5 c 128,-1,104
 389 869 389 869 393.5 869 c 128,-1,105
 398 869 398 869 423.5 880 c 128,-1,106
 449 891 449 891 452 891 c 128,-1,107
 455 891 455 891 462 875 c 128,-1,108
 469 859 469 859 469 843 c 0,92,93
EndSplineSet
EndChar

StartChar: B
Encoding: 66 66 8
Width: 569
Flags: MW
HStem: -32 21G<144.5 177.5> -26 21G<309.5 341> 639 138<278.5 399.5> 766 20G<176.5 196.5>
VStem: 41 210<521 569> 67 184<521 623> 85 166 327 68 327 167 327 195<583.5 640.5> 352 202<204.5 291.5>
LayerCount: 2
Fore
SplineSet
251 525 m 1,0,-1
 233 484 l 1,1,2
 233 478 233 478 238 468.5 c 128,-1,3
 243 459 243 459 247 459 c 1,4,5
 278 469 278 469 278 476 c 0,6,7
 278 478 278 478 301 491 c 128,-1,8
 324 504 324 504 324 520 c 0,9,10
 324 524 324 524 320 531 c 128,-1,11
 316 538 316 538 316 546 c 128,-1,12
 316 554 316 554 321.5 569.5 c 2,13,-1
 327 585 l 1,14,15
 327 599 327 599 313 619 c 128,-1,16
 299 639 299 639 287 639 c 128,-1,17
 275 639 275 639 261 628.5 c 128,-1,18
 247 618 247 618 246 613 c 1,19,-1
 246 611 l 1,20,-1
 251 525 l 1,0,-1
249 230 m 1,21,-1
 245 174 l 1,22,23
 245 155 245 155 250.5 140 c 128,-1,24
 256 125 256 125 262 125 c 0,25,26
 270 125 270 125 291.5 130.5 c 128,-1,27
 313 136 313 136 320 142 c 0,28,29
 330 152 330 152 341 176.5 c 128,-1,30
 352 201 352 201 352 210.5 c 128,-1,31
 352 220 352 220 336 239 c 128,-1,32
 320 258 320 258 320 263 c 1,33,-1
 328 297 l 1,34,35
 328 308 328 308 310.5 318.5 c 128,-1,36
 293 329 293 329 284 329 c 128,-1,37
 275 329 275 329 260.5 308.5 c 128,-1,38
 246 288 246 288 246 282 c 2,39,-1
 249 239 l 1,40,-1
 249 230 l 1,21,-1
516 140 m 1,41,42
 494 127 494 127 494 115.5 c 128,-1,43
 494 104 494 104 508 84 c 1,44,45
 508 77 508 77 484.5 55 c 128,-1,46
 461 33 461 33 443 20.5 c 128,-1,47
 425 8 425 8 385.5 -9 c 128,-1,48
 346 -26 346 -26 326.5 -26 c 128,-1,49
 307 -26 307 -26 263 -10.5 c 128,-1,50
 219 5 219 5 216 5 c 128,-1,51
 213 5 213 5 196 -13.5 c 128,-1,52
 179 -32 179 -32 169 -32 c 0,53,54
 135 -32 135 -32 82.5 0 c 128,-1,55
 30 32 30 32 30 44 c 0,56,57
 30 46 30 46 37 62 c 0,58,59
 57 107.714285714 57 107.714285714 57 186 c 1,60,-1
 55 231 l 2,61,62
 55 232 55 232 62.5 235 c 0,63,64
 85 244 85 244 85 260 c 128,-1,65
 85 276 85 276 68.5 290 c 128,-1,66
 52 304 52 304 52 306 c 2,67,-1
 52 307 l 1,68,69
 59 329 59 329 59 383 c 1,70,-1
 56 510 l 1,71,-1
 56 524 l 2,72,73
 56 530 56 530 48.5 542 c 128,-1,74
 41 554 41 554 41 561.5 c 128,-1,75
 41 569 41 569 54 586 c 128,-1,76
 67 603 67 603 67 614 c 128,-1,77
 67 625 67 625 43.5 664 c 128,-1,78
 20 703 20 703 20 704 c 0,79,80
 20 717 20 717 60 740.5 c 128,-1,81
 100 764 100 764 121 764 c 1,82,83
 165 786 165 786 188 786 c 0,84,85
 197 786 197 786 216.5 752 c 128,-1,86
 236 718 236 718 239 718 c 128,-1,87
 242 718 242 718 267 733 c 0,88,89
 340.333333333 777 340.333333333 777 374.666666667 777 c 128,-1,90
 409 777 409 777 459 746.5 c 128,-1,91
 509 716 509 716 509 698 c 1,92,-1
 496 685 l 2,93,94
 483 672 483 672 483 659 c 0,95,96
 483 648 483 648 502.5 643.5 c 128,-1,97
 522 639 522 639 522 637 c 0,98,99
 522 542 522 542 476 496 c 0,100,101
 465 485 465 485 442.5 470 c 128,-1,102
 420 455 420 455 407.5 442.5 c 128,-1,103
 395 430 395 430 395 414 c 1,104,105
 399 399 399 399 405 399 c 0,106,107
 407 399 407 399 428.5 410.5 c 128,-1,108
 450 422 450 422 466 422 c 0,109,110
 472 422 472 422 492.5 398.5 c 128,-1,111
 513 375 513 375 533.5 331 c 128,-1,112
 554 287 554 287 554 256 c 128,-1,113
 554 225 554 225 547 192 c 128,-1,114
 540 159 540 159 540 154.5 c 128,-1,115
 540 150 540 150 535 147 c 0,116,117
 523.333333333 140 523.333333333 140 516 140 c 1,41,42
EndSplineSet
EndChar

StartChar: C
Encoding: 67 67 9
Width: 534
Flags: MW
HStem: -23 149<208 314> -2 21G<392.5 405> 655 117<280.5 428>
VStem: 26 185<465.5 597.5> 26 209<421.5 597.5> 46 177<203 270.5> 322 155<607.5 660> 338 181
LayerCount: 2
Fore
SplineSet
223 578 m 1,0,-1
 225 565 l 2,1,2
 225 562 225 562 218 529.5 c 128,-1,3
 211 497 211 497 211 471 c 0,4,5
 211 467 211 467 223 455.5 c 128,-1,6
 235 444 235 444 235 432.5 c 128,-1,7
 235 421 235 421 219 407 c 128,-1,8
 203 393 203 393 203 386 c 128,-1,9
 203 379 203 379 209.5 372 c 128,-1,10
 216 365 216 365 222 361 c 128,-1,11
 228 357 228 357 228 355 c 0,12,13
 225 343 225 343 225 306 c 2,14,-1
 225 258 l 2,15,16
 225 226 225 226 223 215 c 1,17,-1
 223 213 l 2,18,19
 223 193 223 193 250 159.5 c 128,-1,20
 277 126 277 126 307 126 c 0,21,22
 322 126 322 126 356 170 c 128,-1,23
 390 214 390 214 390 254 c 0,24,25
 390 259 390 259 402 259 c 2,26,-1
 405 259 l 1,27,28
 412 258 412 258 442.5 241 c 128,-1,29
 473 224 473 224 481.5 215.5 c 128,-1,30
 490 207 490 207 504.5 181.5 c 128,-1,31
 519 156 519 156 519 153 c 0,32,33
 519 116 519 116 466 57 c 128,-1,34
 413 -2 413 -2 396 -2 c 0,35,36
 394 -2 394 -2 385 6.5 c 128,-1,37
 376 15 376 15 370 15 c 128,-1,38
 364 15 364 15 342.5 5.5 c 0,39,40
 278 -23 278 -23 222 -23 c 0,41,42
 201 -23 201 -23 146.5 10 c 128,-1,43
 92 43 92 43 77 67 c 0,44,45
 50 110 50 110 33 157.5 c 128,-1,46
 16 205 16 205 16 218 c 1,47,-1
 31 232 l 2,48,49
 46 246 46 246 46 259 c 128,-1,50
 46 272 46 272 32.5 284.5 c 128,-1,51
 19 297 19 297 19.5 300 c 128,-1,52
 20 303 20 303 20 317 c 2,53,-1
 15 413 l 1,54,55
 15 438 15 438 26 482.5 c 128,-1,56
 37 527 37 527 37 538 c 128,-1,57
 37 549 37 549 31.5 564 c 128,-1,58
 26 579 26 579 26 580 c 0,59,60
 26 605 26 605 99 670 c 128,-1,61
 172 735 172 735 214 750 c 1,62,63
 290 772 290 772 407 772 c 0,64,65
 434 772 434 772 465.5 736.5 c 128,-1,66
 497 701 497 701 497 691 c 0,67,68
 497 690 497 690 487 676 c 128,-1,69
 477 662 477 662 477 651.5 c 128,-1,70
 477 641 477 641 493.5 629 c 128,-1,71
 510 617 510 617 510.5 612 c 128,-1,72
 511 607 511 607 511 597 c 0,73,74
 511 558 511 558 501 542.5 c 128,-1,75
 491 527 491 527 467 502.5 c 128,-1,76
 443 478 443 478 434 475 c 0,77,78
 392 461 392 461 337 461 c 0,79,80
 333 461 333 461 327 468 c 128,-1,81
 321 475 321 475 321 478 c 128,-1,82
 321 481 321 481 322 481 c 0,83,84
 338 498 338 498 338 566 c 0,85,86
 338 577 338 577 329.5 586.5 c 128,-1,87
 321 596 321 596 321 600 c 2,88,-1
 321 602 l 1,89,-1
 322 609 l 1,90,91
 322 625 322 625 316 640 c 128,-1,92
 310 655 310 655 297 655 c 0,93,94
 273 655 273 655 248 628.5 c 128,-1,95
 223 602 223 602 223 578 c 1,0,-1
EndSplineSet
EndChar

StartChar: Ccedilla
Encoding: 199 199 10
Width: 534
Flags: MW
HStem: -186 50<245 250.5 239.5 261.5> -2 21G<391.5 404> 655 117<280 427>
VStem: 25 185<466.5 598> 25 209<422 598> 45 177<203 270.5> 201 131<-108 -72> 321 155<607.5 660.5> 337 181
LayerCount: 2
Fore
SplineSet
223 309 m 2,0,-1
 224 252 l 2,1,2
 224 235 224 235 222 215 c 1,3,-1
 222 213 l 2,4,5
 222 193 222 193 249 159.5 c 128,-1,6
 276 126 276 126 306 126 c 0,7,8
 320 126 320 126 354.5 170 c 128,-1,9
 389 214 389 214 389 254 c 0,10,11
 389 259 389 259 401 259 c 2,12,-1
 404 259 l 1,13,14
 411 258 411 258 441.5 241 c 128,-1,15
 472 224 472 224 481 215 c 128,-1,16
 490 206 490 206 504 181.5 c 128,-1,17
 518 157 518 157 518 153 c 0,18,19
 518 116 518 116 465 57 c 128,-1,20
 412 -2 412 -2 395 -2 c 0,21,22
 392 -2 392 -2 384 6.5 c 128,-1,23
 376 15 376 15 369.5 15 c 128,-1,24
 363 15 363 15 352 9 c 0,25,26
 310.808510638 -13.4680851064 310.808510638 -13.4680851064 279 -19 c 1,27,28
 265 -35 265 -35 265 -43 c 128,-1,29
 265 -51 265 -51 267.5 -51.5 c 128,-1,30
 270 -52 270 -52 278 -55 c 128,-1,31
 286 -58 286 -58 291.5 -60 c 128,-1,32
 297 -62 297 -62 305.5 -66 c 128,-1,33
 314 -70 314 -70 319 -74 c 0,34,35
 332 -84.4 332 -84.4 332 -92 c 2,36,-1
 332 -97 l 2,37,38
 332 -134 332 -134 319 -149 c 1,39,40
 308.363636364 -163.181818182 308.363636364 -163.181818182 277 -182 c 0,41,42
 270 -186 270 -186 258 -186 c 0,43,44
 234 -186 234 -186 205.5 -175.5 c 2,45,-1
 196 -172 l 1,46,47
 194 -170 194 -170 194 -165 c 128,-1,48
 194 -160 194 -160 202 -146 c 128,-1,49
 210 -132 210 -132 215 -132 c 2,50,-1
 216 -132 l 1,51,52
 229 -136 229 -136 243 -136 c 1,53,-1
 266 -132 l 1,54,55
 275 -126 275 -126 275 -104 c 1,56,-1
 274 -99 l 1,57,58
 272 -97 272 -97 243 -89.5 c 128,-1,59
 214 -82 214 -82 207.5 -82 c 128,-1,60
 201 -82 201 -82 201 -78 c 0,61,62
 201 -70 201 -70 210.5 -51 c 128,-1,63
 220 -32 220 -32 228 -21 c 1,64,65
 197 -12 197 -12 142.5 17.5 c 128,-1,66
 88 47 88 47 76 67 c 0,67,68
 49 110 49 110 32 157.5 c 128,-1,69
 15 205 15 205 15 218 c 1,70,-1
 30 232 l 2,71,72
 45 246 45 246 45 258.5 c 128,-1,73
 45 271 45 271 31.5 284 c 128,-1,74
 18 297 18 297 18.5 300.5 c 128,-1,75
 19 304 19 304 19 318 c 2,76,-1
 14 413 l 1,77,78
 14 438 14 438 25 483 c 128,-1,79
 36 528 36 528 36 538.5 c 128,-1,80
 36 549 36 549 30.5 564.5 c 128,-1,81
 25 580 25 580 25 581 c 0,82,83
 25 606 25 606 98 670.5 c 128,-1,84
 171 735 171 735 213 750 c 1,85,86
 289 772 289 772 406 772 c 0,87,88
 433 772 433 772 464.5 737 c 128,-1,89
 496 702 496 702 496 691 c 0,90,91
 496 690 496 690 486 676 c 128,-1,92
 476 662 476 662 476 651.5 c 128,-1,93
 476 641 476 641 492.5 629.5 c 128,-1,94
 509 618 509 618 509 614 c 2,95,-1
 509 600 l 2,96,97
 509 558 509 558 497 538 c 1,98,99
 489 527 489 527 465.5 503 c 128,-1,100
 442 479 442 479 433 476 c 0,101,102
 391 461 391 461 336 461 c 0,103,104
 332 461 332 461 326 468 c 128,-1,105
 320 475 320 475 320 480 c 2,106,-1
 320 482 l 1,107,108
 337 498 337 498 337 567 c 0,109,110
 337 578 337 578 328.5 587 c 128,-1,111
 320 596 320 596 320 600 c 2,112,-1
 320 602 l 1,113,-1
 321 609 l 1,114,115
 321 625 321 625 315 640 c 128,-1,116
 309 655 309 655 296 655 c 0,117,118
 272 655 272 655 246.5 629 c 128,-1,119
 221 603 221 603 221 580 c 1,120,-1
 224 566 l 2,121,122
 224 562 224 562 217 530 c 128,-1,123
 210 498 210 498 210 472 c 0,124,125
 210 468 210 468 222 456 c 128,-1,126
 234 444 234 444 234 432.5 c 128,-1,127
 234 421 234 421 218 407 c 128,-1,128
 202 393 202 393 202 386 c 128,-1,129
 202 379 202 379 208.5 372 c 128,-1,130
 215 365 215 365 221 361 c 128,-1,131
 227 357 227 357 227 355 c 0,132,133
 223 340 223 340 223 309 c 2,0,-1
EndSplineSet
EndChar

StartChar: D
Encoding: 68 68 11
Width: 565
Flags: MW
HStem: -19 21G<279 296> -15 121<142 261> -7 21G<263 270.5> 758 20G<196.5 229>
VStem: 51 189 51 210<479.5 557> 75 165<157 289> 342 132<147.5 225.5> 356 191<307 442.5>
LayerCount: 2
Fore
SplineSet
258 407 m 0,0,1
 257 374 257 374 248.5 353 c 128,-1,2
 240 332 240 332 240 276 c 128,-1,3
 240 220 240 220 248 172 c 1,4,5
 248 153.133333333 248 153.133333333 226.5 134.5 c 0,6,7
 219 128 219 128 219 124.5 c 128,-1,8
 219 121 219 121 226 113.5 c 128,-1,9
 233 106 233 106 246 106 c 128,-1,10
 259 106 259 106 279.5 116.5 c 128,-1,11
 300 127 300 127 311 137 c 2,12,-1
 322 147 l 1,13,14
 342 167 342 167 342 214 c 1,15,-1
 338 257 l 2,16,17
 338 260 338 260 352.5 268 c 128,-1,18
 367 276 367 276 367 285 c 0,19,20
 367 301.3 367 301.3 346 316 c 1,21,22
 333.625 320.125 333.625 320.125 328 337 c 0,23,24
 328 339 328 339 335 358 c 0,25,26
 356 415 356 415 356 430.5 c 128,-1,27
 356 446 356 446 354 452 c 1,28,29
 343 471 343 471 339 535 c 128,-1,30
 335 599 335 599 326 615.5 c 128,-1,31
 317 632 317 632 301.5 644 c 128,-1,32
 286 656 286 656 275 660 c 2,33,-1
 264 664 l 1,34,35
 257 664 257 664 249 659 c 128,-1,36
 241 654 241 654 242 648 c 128,-1,37
 243 642 243 642 243 603 c 128,-1,38
 243 564 243 564 238 526 c 1,39,-1
 238 525 l 2,40,41
 238 520 238 520 249.5 507.5 c 128,-1,42
 261 495 261 495 261 487 c 128,-1,43
 261 479 261 479 246.5 462.5 c 128,-1,44
 232 446 232 446 232 439 c 128,-1,45
 232 432 232 432 245 421.5 c 128,-1,46
 258 411 258 411 258 407 c 0,0,1
547 360 m 1,47,-1
 550 316 l 2,48,49
 550 308.5 550 308.5 547 307 c 0,50,51
 532 294 532 294 532 255 c 1,52,53
 523 191 523 191 515 187 c 1,54,55
 474 180 474 180 474 156 c 0,56,57
 474 146 474 146 483.5 137.5 c 128,-1,58
 493 129 493 129 493 125 c 128,-1,59
 493 121 493 121 466.5 90.5 c 128,-1,60
 440 60 440 60 412 41 c 128,-1,61
 384 22 384 22 343 1.5 c 128,-1,62
 302 -19 302 -19 282 -19 c 0,63,64
 280 -19 280 -19 275.5 -13 c 128,-1,65
 271 -7 271 -7 265 -7 c 2,66,67
 169 -15 l 1,68,69
 117 -15 117 -15 61 -1 c 2,70,-1
 41 4 l 2,71,72
 36 6 36 6 31 14 c 128,-1,73
 26 22 26 22 26 26 c 1,74,-1
 27 28 l 1,75,76
 44 54 44 54 44 134 c 2,77,-1
 44 136 l 2,78,79
 44 138 44 138 59.5 146.5 c 128,-1,80
 75 155 75 155 75 169 c 128,-1,81
 75 183 75 183 57 197 c 128,-1,82
 39 211 39 211 39 214 c 2,83,-1
 39 215 l 1,84,85
 49 257 49 257 49 413 c 2,86,-1
 49 441 l 2,87,88
 49 468 49 468 39 490 c 1,89,-1
 39 492 l 1,90,-1
 49 518 l 2,91,92
 51 524 51 524 51 541 c 2,93,-1
 47 626 l 1,94,95
 41.5939086294 656.634517766 41.5939086294 656.634517766 25.7969543147 681.317258883 c 128,-1,96
 10 706 10 706 10 707.5 c 128,-1,97
 10 709 10 709 12 714 c 0,98,99
 18.7368421053 730.842105263 18.7368421053 730.842105263 29.8684210526 737.421052632 c 128,-1,100
 41 744 41 744 114.5 761 c 128,-1,101
 188 778 188 778 213.5 778 c 128,-1,102
 239 778 239 778 306.5 766 c 128,-1,103
 374 754 374 754 398 742 c 128,-1,104
 422 730 422 730 468 685.5 c 128,-1,105
 514 641 514 641 514 630 c 0,106,107
 514 627 514 627 505 611.5 c 128,-1,108
 496 596 496 596 496 589 c 128,-1,109
 496 582 496 582 515 570.5 c 128,-1,110
 534 559 534 559 536 549 c 0,111,112
 546 494 546 494 548 466 c 2,113,-1
 549 442 l 2,114,115
 549 424 549 424 548 392 c 2,116,-1
 547 360 l 1,47,-1
EndSplineSet
EndChar

StartChar: E
Encoding: 69 69 12
Width: 508
Flags: MW
HStem: -10 138 -1 21G<226.5 233.5> 4 124<162.5 337> 341 132<308 413> 606 161<390.5 403.5> 664 83<255 349.5> 664 103<307 424> 749 20G<187.5 237.5>
VStem: 24 212 49 187<242.5 465.5> 62 174
LayerCount: 2
Fore
SplineSet
238 464 m 1,0,-1
 401 473 l 1,1,2
 432 473 432 473 432 464 c 0,3,4
 432 437 432 437 409 379.5 c 128,-1,5
 386 322 386 322 373 322 c 1,6,-1
 356 331.5 l 2,7,8
 339 341 339 341 320 341 c 0,9,10
 248 341 248 341 242 335 c 128,-1,11
 236 329 236 329 236 244.5 c 128,-1,12
 236 160 236 160 252 144 c 128,-1,13
 268 128 268 128 318 128 c 128,-1,14
 368 128 368 128 381.5 141.5 c 128,-1,15
 395 155 395 155 409.5 178 c 128,-1,16
 424 201 424 201 433 217.5 c 128,-1,17
 442 234 442 234 443 234 c 0,18,19
 452 234 452 234 477.5 209 c 128,-1,20
 503 184 503 184 503 172.5 c 128,-1,21
 503 161 503 161 481.5 90.5 c 128,-1,22
 460 20 460 20 451 11 c 0,23,24
 450 9 450 9 443 9 c 2,25,-1
 386 15 l 1,26,27
 350 15 350 15 326 12.5 c 128,-1,28
 302 10 302 10 298.5 10 c 128,-1,29
 295 10 295 10 282.5 16 c 128,-1,30
 270 22 270 22 264.5 22 c 128,-1,31
 259 22 259 22 255.5 19 c 128,-1,32
 252 16 252 16 249 11 c 0,33,34
 241.8 -1 241.8 -1 231 -1 c 1,35,-1
 189 4 l 1,36,37
 160 4 160 4 126.5 -3 c 128,-1,38
 93 -10 93 -10 78 -10 c 128,-1,39
 63 -10 63 -10 41.5 -4.5 c 128,-1,40
 20 1 20 1 20 8 c 0,41,42
 20 10 20 10 25 27.5 c 0,43,44
 41 83.5 41 83.5 41 106.25 c 128,-1,45
 41 129 41 129 39 136 c 0,46,47
 39 137 39 137 51.5 145.5 c 128,-1,48
 64 154 64 154 64 168 c 128,-1,49
 64 182 64 182 46 193.5 c 128,-1,50
 28 205 28 205 28 206 c 2,51,-1
 37 248 l 2,52,53
 46 290 46 290 46 305 c 128,-1,54
 46 320 46 320 43.5 328 c 128,-1,55
 41 336 41 336 41 337 c 2,56,-1
 41 339 l 1,57,58
 49 377 49 377 49 423.5 c 128,-1,59
 49 470 49 470 45.5 510.5 c 128,-1,60
 42 551 42 551 42 552 c 128,-1,61
 42 553 42 553 52 561 c 128,-1,62
 62 569 62 569 62 579.5 c 128,-1,63
 62 590 62 590 52.5 609 c 0,64,65
 24 666 24 666 24 741 c 0,66,67
 24 752 24 752 93 760.5 c 128,-1,68
 162 769 162 769 225 769 c 0,69,70
 238 769 238 769 247 758 c 128,-1,71
 256 747 256 747 262.5 747 c 128,-1,72
 269 747 269 747 321.5 757 c 128,-1,73
 374 767 374 767 404 767 c 0,74,75
 477 767 477 767 477 750 c 0,76,77
 477 721 477 721 465 672.5 c 128,-1,78
 453 624 453 624 447 618 c 0,79,80
 437 606 437 606 397 606 c 0,81,82
 393 606 393 606 386.5 620.5 c 128,-1,83
 380 635 380 635 362.5 649.5 c 128,-1,84
 345 664 345 664 324 664 c 128,-1,85
 303 664 303 664 279 655.5 c 128,-1,86
 255 647 255 647 249 641 c 128,-1,87
 243 635 243 635 243 590.5 c 128,-1,88
 243 546 243 546 248 524 c 1,89,-1
 248 521 l 2,90,91
 248 514 248 514 228 508 c 128,-1,92
 208 502 208 502 208 469 c 0,93,94
 208 464 208 464 238 464 c 1,0,-1
EndSplineSet
EndChar

StartChar: Eacute
Encoding: 201 201 13
Width: 508
Flags: MW
HStem: -10 138 -1 21G<226.5 233.5> 15 113<308 399> 128 213<308 336 308 337> 341 123<229 336> 464 142<229 403.5> 606 163<187.5 403.5> 664 83<255 349.5> 769 191<187.5 296.5>
VStem: 24 219<584 749> 41 202 64 179
LayerCount: 2
Fore
SplineSet
278 868 m 1,0,-1
 280 853 l 2,1,2
 280 850 280 850 271 847 c 128,-1,3
 262 844 262 844 239 824.5 c 128,-1,4
 216 805 216 805 211.5 800 c 128,-1,5
 207 795 207 795 202 795 c 128,-1,6
 197 795 197 795 177.5 811 c 128,-1,7
 158 827 158 827 158 835.5 c 128,-1,8
 158 844 158 844 183 875.5 c 128,-1,9
 208 907 208 907 208 909 c 0,10,11
 209 921 209 921 209 922 c 0,12,13
 233 952 233 952 234.5 953.5 c 128,-1,14
 236 955 236 955 256.5 957.5 c 128,-1,15
 277 960 277 960 289 960 c 128,-1,16
 301 960 301 960 325.5 943 c 128,-1,17
 350 926 350 926 350 917 c 0,18,19
 350 914 350 914 342 908.5 c 0,20,21
 310.784313725 887.039215686 310.784313725 887.039215686 302 877 c 0,22,23
 302 876 302 876 290 876 c 128,-1,24
 278 876 278 876 278 868 c 1,0,-1
238 464 m 1,25,-1
 401 473 l 1,26,27
 432 473 432 473 432 464 c 0,28,29
 432 437 432 437 409 379.5 c 128,-1,30
 386 322 386 322 373 322 c 1,31,-1
 356 331.5 l 2,32,33
 339 341 339 341 320 341 c 0,34,35
 248 341 248 341 242 335 c 128,-1,36
 236 329 236 329 236 244.5 c 128,-1,37
 236 160 236 160 252 144 c 128,-1,38
 268 128 268 128 318 128 c 128,-1,39
 368 128 368 128 381.5 141.5 c 128,-1,40
 395 155 395 155 409.5 178 c 128,-1,41
 424 201 424 201 433 217.5 c 128,-1,42
 442 234 442 234 443 234 c 0,43,44
 452 234 452 234 477.5 209 c 128,-1,45
 503 184 503 184 503 172.5 c 128,-1,46
 503 161 503 161 481.5 90.5 c 128,-1,47
 460 20 460 20 451 11 c 0,48,49
 450 9 450 9 443 9 c 2,50,-1
 386 15 l 1,51,52
 350 15 350 15 326 12.5 c 128,-1,53
 302 10 302 10 298.5 10 c 128,-1,54
 295 10 295 10 282.5 16 c 128,-1,55
 270 22 270 22 264.5 22 c 128,-1,56
 259 22 259 22 255.5 19 c 128,-1,57
 252 16 252 16 249 11 c 0,58,59
 241.8 -1 241.8 -1 231 -1 c 1,60,-1
 189 4 l 1,61,62
 160 4 160 4 126.5 -3 c 128,-1,63
 93 -10 93 -10 78 -10 c 128,-1,64
 63 -10 63 -10 41.5 -4.5 c 128,-1,65
 20 1 20 1 20 8 c 0,66,67
 20 10 20 10 25 27.5 c 0,68,69
 41 83.5 41 83.5 41 106.25 c 128,-1,70
 41 129 41 129 39 136 c 0,71,72
 39 137 39 137 51.5 145.5 c 128,-1,73
 64 154 64 154 64 168 c 128,-1,74
 64 182 64 182 46 193.5 c 128,-1,75
 28 205 28 205 28 206 c 2,76,-1
 37 248 l 2,77,78
 46 290 46 290 46 305 c 128,-1,79
 46 320 46 320 43.5 328 c 128,-1,80
 41 336 41 336 41 337 c 2,81,-1
 41 339 l 1,82,83
 49 377 49 377 49 423.5 c 128,-1,84
 49 470 49 470 45.5 510.5 c 128,-1,85
 42 551 42 551 42 552 c 128,-1,86
 42 553 42 553 52 561 c 128,-1,87
 62 569 62 569 62 579.5 c 128,-1,88
 62 590 62 590 52.5 609 c 0,89,90
 24 666 24 666 24 741 c 0,91,92
 24 752 24 752 93 760.5 c 128,-1,93
 162 769 162 769 225 769 c 0,94,95
 238 769 238 769 247 758 c 128,-1,96
 256 747 256 747 262.5 747 c 128,-1,97
 269 747 269 747 321.5 757 c 128,-1,98
 374 767 374 767 404 767 c 0,99,100
 477 767 477 767 477 750 c 0,101,102
 477 721 477 721 465 672.5 c 128,-1,103
 453 624 453 624 447 618 c 0,104,105
 437 606 437 606 397 606 c 0,106,107
 393 606 393 606 386.5 620.5 c 128,-1,108
 380 635 380 635 362.5 649.5 c 128,-1,109
 345 664 345 664 324 664 c 128,-1,110
 303 664 303 664 279 655.5 c 128,-1,111
 255 647 255 647 249 641 c 128,-1,112
 243 635 243 635 243 590.5 c 128,-1,113
 243 546 243 546 248 524 c 1,114,-1
 248 521 l 2,115,116
 248 514 248 514 228 508 c 128,-1,117
 208 502 208 502 208 469 c 0,118,119
 208 464 208 464 238 464 c 1,25,-1
EndSplineSet
EndChar

StartChar: Ecircumflex
Encoding: 202 202 14
Width: 508
Flags: MW
HStem: -10 138 -1 21G<226.5 233.5> 4 124<162.5 337> 341 132<308 413> 606 161<390.5 403.5> 664 83<255 349.5> 664 103<307 424> 800 164<144 323> 840 124<202.5 323>
VStem: 24 212 49 187<242.5 465.5> 62 174
LayerCount: 2
Fore
SplineSet
166 913 m 1,0,-1
 162 933 l 1,1,2
 180 962 180 962 187 962 c 2,3,-1
 208 962 l 2,4,5
 238 962 238 962 240 959 c 1,6,7
 258 944 258 944 260 944 c 128,-1,8
 262 944 262 944 285 959 c 1,9,10
 288 964 288 964 309.5 964 c 128,-1,11
 331 964 331 964 334.5 961 c 128,-1,12
 338 958 338 958 354 932.5 c 128,-1,13
 370 907 370 907 370 903 c 1,14,15
 367 892 367 892 367 882 c 128,-1,16
 367 872 367 872 388 872 c 1,17,18
 415 838 415 838 415 834.5 c 128,-1,19
 415 831 415 831 413 829 c 128,-1,20
 411 827 411 827 408 825 c 128,-1,21
 405 823 405 823 399.5 817.5 c 128,-1,22
 394 812 394 812 382.5 806.5 c 128,-1,23
 371 801 371 801 359 799 c 1,24,25
 336 799 336 799 336 803 c 1,26,-1
 298 848 l 1,27,28
 281 851.4 281 851.4 281 856 c 0,29,30
 281 869 281 869 272 883.5 c 128,-1,31
 263 898 263 898 257 898 c 0,32,33
 252 898 252 898 229.5 869.5 c 2,34,-1
 222 860 l 1,35,36
 222 844 222 844 216 840 c 1,37,38
 200 840 200 840 181.5 820 c 128,-1,39
 163 800 163 800 162 800 c 0,40,41
 146 800 146 800 130.5 807.5 c 128,-1,42
 115 815 115 815 107.5 822 c 128,-1,43
 100 829 100 829 100 831 c 1,44,-1
 119.5 862 l 2,45,46
 139 893 139 893 139 898 c 1,47,48
 166 904 166 904 166 913 c 1,0,-1
238 464 m 1,49,-1
 401 473 l 1,50,51
 432 473 432 473 432 464 c 0,52,53
 432 437 432 437 409 379.5 c 128,-1,54
 386 322 386 322 373 322 c 1,55,-1
 356 331.5 l 2,56,57
 339 341 339 341 320 341 c 0,58,59
 248 341 248 341 242 335 c 128,-1,60
 236 329 236 329 236 244.5 c 128,-1,61
 236 160 236 160 252 144 c 128,-1,62
 268 128 268 128 318 128 c 128,-1,63
 368 128 368 128 381.5 141.5 c 128,-1,64
 395 155 395 155 409.5 178 c 128,-1,65
 424 201 424 201 433 217.5 c 128,-1,66
 442 234 442 234 443 234 c 0,67,68
 452 234 452 234 477.5 209 c 128,-1,69
 503 184 503 184 503 172.5 c 128,-1,70
 503 161 503 161 481.5 90.5 c 128,-1,71
 460 20 460 20 451 11 c 0,72,73
 450 9 450 9 443 9 c 2,74,-1
 386 15 l 1,75,76
 350 15 350 15 326 12.5 c 128,-1,77
 302 10 302 10 298.5 10 c 128,-1,78
 295 10 295 10 282.5 16 c 128,-1,79
 270 22 270 22 264.5 22 c 128,-1,80
 259 22 259 22 255.5 19 c 128,-1,81
 252 16 252 16 249 11 c 0,82,83
 241.8 -1 241.8 -1 231 -1 c 1,84,-1
 189 4 l 1,85,86
 160 4 160 4 126.5 -3 c 128,-1,87
 93 -10 93 -10 78 -10 c 128,-1,88
 63 -10 63 -10 41.5 -4.5 c 128,-1,89
 20 1 20 1 20 8 c 0,90,91
 20 10 20 10 25 27.5 c 0,92,93
 41 83.5 41 83.5 41 106.25 c 128,-1,94
 41 129 41 129 39 136 c 0,95,96
 39 137 39 137 51.5 145.5 c 128,-1,97
 64 154 64 154 64 168 c 128,-1,98
 64 182 64 182 46 193.5 c 128,-1,99
 28 205 28 205 28 206 c 2,100,-1
 37 248 l 2,101,102
 46 290 46 290 46 305 c 128,-1,103
 46 320 46 320 43.5 328 c 128,-1,104
 41 336 41 336 41 337 c 2,105,-1
 41 339 l 1,106,107
 49 377 49 377 49 423.5 c 128,-1,108
 49 470 49 470 45.5 510.5 c 128,-1,109
 42 551 42 551 42 552 c 128,-1,110
 42 553 42 553 52 561 c 128,-1,111
 62 569 62 569 62 579.5 c 128,-1,112
 62 590 62 590 52.5 609 c 0,113,114
 24 666 24 666 24 741 c 0,115,116
 24 752 24 752 93 760.5 c 128,-1,117
 162 769 162 769 225 769 c 0,118,119
 238 769 238 769 247 758 c 128,-1,120
 256 747 256 747 262.5 747 c 128,-1,121
 269 747 269 747 321.5 757 c 128,-1,122
 374 767 374 767 404 767 c 0,123,124
 477 767 477 767 477 750 c 0,125,126
 477 721 477 721 465 672.5 c 128,-1,127
 453 624 453 624 447 618 c 0,128,129
 437 606 437 606 397 606 c 0,130,131
 393 606 393 606 386.5 620.5 c 128,-1,132
 380 635 380 635 362.5 649.5 c 128,-1,133
 345 664 345 664 324 664 c 128,-1,134
 303 664 303 664 279 655.5 c 128,-1,135
 255 647 255 647 249 641 c 128,-1,136
 243 635 243 635 243 590.5 c 128,-1,137
 243 546 243 546 248 524 c 1,138,-1
 248 521 l 2,139,140
 248 514 248 514 228 508 c 128,-1,141
 208 502 208 502 208 469 c 0,142,143
 208 464 208 464 238 464 c 1,49,-1
EndSplineSet
EndChar

StartChar: Edieresis
Encoding: 203 203 15
Width: 508
Flags: MW
HStem: -10 138 -1 21G<226.5 233.5> 4 124<162.5 337> 341 132<308 413> 606 161<390.5 403.5> 664 83<255 349.5> 664 103<307 424> 923 20G<157.5 166.5 365 369>
VStem: 24 212 49 187<242.5 465.5> 62 174 214 206<866.5 923.5> 286 134<850 923.5> 286 146
LayerCount: 2
Fore
SplineSet
214 889 m 0,0,1
 214 869 214 869 209 853.5 c 128,-1,2
 204 838 204 838 194.5 830 c 128,-1,3
 185 822 185 822 165 815.5 c 128,-1,4
 145 809 145 809 126.5 809 c 128,-1,5
 108 809 108 809 100 817 c 0,6,7
 99 818 99 818 99 827.5 c 0,8,9
 99 843 99 843 88 843 c 2,10,-1
 82 843 l 2,11,12
 78 843 78 843 75 845.5 c 128,-1,13
 72 848 72 848 72 872.5 c 128,-1,14
 72 897 72 897 73.5 899.5 c 128,-1,15
 75 902 75 902 85.5 913 c 128,-1,16
 96 924 96 924 107 930 c 1,17,18
 150 943 150 943 160 943 c 128,-1,19
 170 943 170 943 184.5 938.5 c 128,-1,20
 199 934 199 934 199 930 c 1,21,22
 195 920 195 920 195 911 c 1,23,24
 214 895 214 895 214 889 c 0,0,1
436 876 m 0,25,26
 435 846 435 846 426 837 c 128,-1,27
 417 828 417 828 411.5 828 c 128,-1,28
 406 828 406 828 392 814.5 c 128,-1,29
 378 801 378 801 375 801 c 2,30,-1
 332 807 l 1,31,32
 318.375 811.541666667 318.375 811.541666667 289 837 c 0,33,34
 286 840 286 840 286 855 c 128,-1,35
 286 870 286 870 289.5 888 c 128,-1,36
 293 906 293 906 297 906 c 0,37,38
 310 906 310 906 351 939 c 1,39,40
 361 943 361 943 369 943 c 1,41,42
 420 931 420 931 420 916 c 1,43,44
 414 907 414 907 414 901.5 c 128,-1,45
 414 896 414 896 425 889 c 128,-1,46
 436 882 436 882 436 876 c 0,25,26
238 464 m 1,47,-1
 401 473 l 1,48,49
 432 473 432 473 432 464 c 0,50,51
 432 437 432 437 409 379.5 c 128,-1,52
 386 322 386 322 373 322 c 1,53,-1
 356 331.5 l 2,54,55
 339 341 339 341 320 341 c 0,56,57
 248 341 248 341 242 335 c 128,-1,58
 236 329 236 329 236 244.5 c 128,-1,59
 236 160 236 160 252 144 c 128,-1,60
 268 128 268 128 318 128 c 128,-1,61
 368 128 368 128 381.5 141.5 c 128,-1,62
 395 155 395 155 409.5 178 c 128,-1,63
 424 201 424 201 433 217.5 c 128,-1,64
 442 234 442 234 443 234 c 0,65,66
 452 234 452 234 477.5 209 c 128,-1,67
 503 184 503 184 503 172.5 c 128,-1,68
 503 161 503 161 481.5 90.5 c 128,-1,69
 460 20 460 20 451 11 c 0,70,71
 450 9 450 9 443 9 c 2,72,-1
 386 15 l 1,73,74
 350 15 350 15 326 12.5 c 128,-1,75
 302 10 302 10 298.5 10 c 128,-1,76
 295 10 295 10 282.5 16 c 128,-1,77
 270 22 270 22 264.5 22 c 128,-1,78
 259 22 259 22 255.5 19 c 128,-1,79
 252 16 252 16 249 11 c 0,80,81
 241.8 -1 241.8 -1 231 -1 c 1,82,-1
 189 4 l 1,83,84
 160 4 160 4 126.5 -3 c 128,-1,85
 93 -10 93 -10 78 -10 c 128,-1,86
 63 -10 63 -10 41.5 -4.5 c 128,-1,87
 20 1 20 1 20 8 c 0,88,89
 20 10 20 10 25 27.5 c 0,90,91
 41 83.5 41 83.5 41 106.25 c 128,-1,92
 41 129 41 129 39 136 c 0,93,94
 39 137 39 137 51.5 145.5 c 128,-1,95
 64 154 64 154 64 168 c 128,-1,96
 64 182 64 182 46 193.5 c 128,-1,97
 28 205 28 205 28 206 c 2,98,-1
 37 248 l 2,99,100
 46 290 46 290 46 305 c 128,-1,101
 46 320 46 320 43.5 328 c 128,-1,102
 41 336 41 336 41 337 c 2,103,-1
 41 339 l 1,104,105
 49 377 49 377 49 423.5 c 128,-1,106
 49 470 49 470 45.5 510.5 c 128,-1,107
 42 551 42 551 42 552 c 128,-1,108
 42 553 42 553 52 561 c 128,-1,109
 62 569 62 569 62 579.5 c 128,-1,110
 62 590 62 590 52.5 609 c 0,111,112
 24 666 24 666 24 741 c 0,113,114
 24 752 24 752 93 760.5 c 128,-1,115
 162 769 162 769 225 769 c 0,116,117
 238 769 238 769 247 758 c 128,-1,118
 256 747 256 747 262.5 747 c 128,-1,119
 269 747 269 747 321.5 757 c 128,-1,120
 374 767 374 767 404 767 c 0,121,122
 477 767 477 767 477 750 c 0,123,124
 477 721 477 721 465 672.5 c 128,-1,125
 453 624 453 624 447 618 c 0,126,127
 437 606 437 606 397 606 c 0,128,129
 393 606 393 606 386.5 620.5 c 128,-1,130
 380 635 380 635 362.5 649.5 c 128,-1,131
 345 664 345 664 324 664 c 128,-1,132
 303 664 303 664 279 655.5 c 128,-1,133
 255 647 255 647 249 641 c 128,-1,134
 243 635 243 635 243 590.5 c 128,-1,135
 243 546 243 546 248 524 c 1,136,-1
 248 521 l 2,137,138
 248 514 248 514 228 508 c 128,-1,139
 208 502 208 502 208 469 c 0,140,141
 208 464 208 464 238 464 c 1,47,-1
EndSplineSet
EndChar

StartChar: Egrave
Encoding: 200 200 16
Width: 508
Flags: MW
HStem: -10 138 -1 21G<226.5 233.5> 15 113<308 399> 341 123<229 336> 606 163<187.5 403.5> 664 83<255 349.5> 664 143<280.5 349.5> 938 20G<220.5 232>
VStem: 24 219<584 749> 41 202 64 179
LayerCount: 2
Fore
SplineSet
209 881 m 2,0,-1
 195 880 l 1,1,-1
 194 880 l 1,2,3
 194 881 194 881 174.5 901 c 128,-1,4
 155 921 155 921 155 923 c 0,5,6
 155 928 155 928 185.5 943 c 128,-1,7
 216 958 216 958 232 958 c 1,8,9
 287 947 287 947 289 945 c 0,10,11
 333 854 333 854 352 835 c 1,12,-1
 352 834 l 2,13,14
 352 823.333333333 352 823.333333333 327.5 815.166666667 c 128,-1,15
 303 807 303 807 285 807 c 0,16,17
 280 807 280 807 252.5 829.5 c 128,-1,18
 225 852 225 852 221 852 c 0,19,20
 220 852 220 852 220 857 c 2,21,-1
 220 867 l 2,22,23
 220 876 220 876 217.5 878.5 c 128,-1,24
 215 881 215 881 209 881 c 2,0,-1
238 464 m 1,25,-1
 401 473 l 1,26,27
 432 473 432 473 432 464 c 0,28,29
 432 437 432 437 409 379.5 c 128,-1,30
 386 322 386 322 373 322 c 1,31,-1
 356 331.5 l 2,32,33
 339 341 339 341 320 341 c 0,34,35
 248 341 248 341 242 335 c 128,-1,36
 236 329 236 329 236 244.5 c 128,-1,37
 236 160 236 160 252 144 c 128,-1,38
 268 128 268 128 318 128 c 128,-1,39
 368 128 368 128 381.5 141.5 c 128,-1,40
 395 155 395 155 409.5 178 c 128,-1,41
 424 201 424 201 433 217.5 c 128,-1,42
 442 234 442 234 443 234 c 0,43,44
 452 234 452 234 477.5 209 c 128,-1,45
 503 184 503 184 503 172.5 c 128,-1,46
 503 161 503 161 481.5 90.5 c 128,-1,47
 460 20 460 20 451 11 c 0,48,49
 450 9 450 9 443 9 c 2,50,-1
 386 15 l 1,51,52
 350 15 350 15 326 12.5 c 128,-1,53
 302 10 302 10 298.5 10 c 128,-1,54
 295 10 295 10 282.5 16 c 128,-1,55
 270 22 270 22 264.5 22 c 128,-1,56
 259 22 259 22 255.5 19 c 128,-1,57
 252 16 252 16 249 11 c 0,58,59
 241.8 -1 241.8 -1 231 -1 c 1,60,-1
 189 4 l 1,61,62
 160 4 160 4 126.5 -3 c 128,-1,63
 93 -10 93 -10 78 -10 c 128,-1,64
 63 -10 63 -10 41.5 -4.5 c 128,-1,65
 20 1 20 1 20 8 c 0,66,67
 20 10 20 10 25 27.5 c 0,68,69
 41 83.5 41 83.5 41 106.25 c 128,-1,70
 41 129 41 129 39 136 c 0,71,72
 39 137 39 137 51.5 145.5 c 128,-1,73
 64 154 64 154 64 168 c 128,-1,74
 64 182 64 182 46 193.5 c 128,-1,75
 28 205 28 205 28 206 c 2,76,-1
 37 248 l 2,77,78
 46 290 46 290 46 305 c 128,-1,79
 46 320 46 320 43.5 328 c 128,-1,80
 41 336 41 336 41 337 c 2,81,-1
 41 339 l 1,82,83
 49 377 49 377 49 423.5 c 128,-1,84
 49 470 49 470 45.5 510.5 c 128,-1,85
 42 551 42 551 42 552 c 128,-1,86
 42 553 42 553 52 561 c 128,-1,87
 62 569 62 569 62 579.5 c 128,-1,88
 62 590 62 590 52.5 609 c 0,89,90
 24 666 24 666 24 741 c 0,91,92
 24 752 24 752 93 760.5 c 128,-1,93
 162 769 162 769 225 769 c 0,94,95
 238 769 238 769 247 758 c 128,-1,96
 256 747 256 747 262.5 747 c 128,-1,97
 269 747 269 747 321.5 757 c 128,-1,98
 374 767 374 767 404 767 c 0,99,100
 477 767 477 767 477 750 c 0,101,102
 477 721 477 721 465 672.5 c 128,-1,103
 453 624 453 624 447 618 c 0,104,105
 437 606 437 606 397 606 c 0,106,107
 393 606 393 606 386.5 620.5 c 128,-1,108
 380 635 380 635 362.5 649.5 c 128,-1,109
 345 664 345 664 324 664 c 128,-1,110
 303 664 303 664 279 655.5 c 128,-1,111
 255 647 255 647 249 641 c 128,-1,112
 243 635 243 635 243 590.5 c 128,-1,113
 243 546 243 546 248 524 c 1,114,-1
 248 521 l 2,115,116
 248 514 248 514 228 508 c 128,-1,117
 208 502 208 502 208 469 c 0,118,119
 208 464 208 464 238 464 c 1,25,-1
EndSplineSet
EndChar

StartChar: Eth
Encoding: 208 208 17
Width: 565
Flags: MW
HStem: -19 21G<279 296> -15 121<142 261> -7 21G<263 270.5> 318 112 758 20G<196.5 229>
VStem: 51 189 51 210<479.5 557> 75 165<157 280.5> 342 132<147.5 225.5> 356 191<307 442.5>
LayerCount: 2
Fore
SplineSet
243 327 m 1,0,1
 240 303 240 303 240 261.5 c 128,-1,2
 240 220 240 220 248 172 c 1,3,4
 248 153.133333333 248 153.133333333 226.5 134.5 c 0,5,6
 219 128 219 128 219 124.5 c 128,-1,7
 219 121 219 121 226 113.5 c 128,-1,8
 233 106 233 106 246 106 c 128,-1,9
 259 106 259 106 279.5 116.5 c 128,-1,10
 300 127 300 127 311 137 c 2,11,-1
 322 147 l 1,12,13
 342 167 342 167 342 214 c 1,14,-1
 338 257 l 2,15,16
 338 260 338 260 352.5 268 c 128,-1,17
 367 276 367 276 367 285 c 0,18,19
 367 301.3 367 301.3 346 316 c 1,20,21
 333.625 320.125 333.625 320.125 328 337 c 0,22,23
 328 339 328 339 335 358 c 0,24,25
 356 415 356 415 356 430.5 c 128,-1,26
 356 446 356 446 354 452 c 1,27,28
 343 471 343 471 339 535 c 128,-1,29
 335 599 335 599 326 615.5 c 128,-1,30
 317 632 317 632 301.5 644 c 128,-1,31
 286 656 286 656 275 660 c 2,32,-1
 264 664 l 1,33,34
 257 664 257 664 249 659 c 128,-1,35
 241 654 241 654 242 648 c 128,-1,36
 243 642 243 642 243 603 c 128,-1,37
 243 564 243 564 238 526 c 1,38,-1
 238 525 l 2,39,40
 238 520 238 520 249.5 507.5 c 128,-1,41
 261 495 261 495 261 487 c 128,-1,42
 261 479 261 479 246.5 462.5 c 128,-1,43
 232 446 232 446 232 441 c 128,-1,44
 232 436 232 436 236 430 c 1,45,-1
 306 424 l 1,46,47
 315 410 315 410 315 386 c 0,48,49
 315 383 315 383 304 359 c 128,-1,50
 293 335 293 335 293 321 c 1,51,52
 279 317 279 317 270.5 317 c 128,-1,53
 262 317 262 317 260 319 c 0,54,55
 257 325 257 325 243 327 c 1,0,1
547 360 m 1,56,-1
 550 316 l 2,57,58
 550 308.5 550 308.5 547 307 c 0,59,60
 532 294 532 294 532 255 c 1,61,62
 523 191 523 191 515 187 c 1,63,64
 474 180 474 180 474 156 c 0,65,66
 474 146 474 146 483.5 137.5 c 128,-1,67
 493 129 493 129 493 125 c 128,-1,68
 493 121 493 121 466.5 90.5 c 128,-1,69
 440 60 440 60 412 41 c 128,-1,70
 384 22 384 22 343 1.5 c 128,-1,71
 302 -19 302 -19 282 -19 c 0,72,73
 280 -19 280 -19 275.5 -13 c 128,-1,74
 271 -7 271 -7 265 -7 c 2,75,-1
 169 -15 l 1,76,77
 117 -15 117 -15 61 -1 c 2,78,-1
 41 4 l 2,79,80
 36 6 36 6 31 14 c 128,-1,81
 26 22 26 22 26 26 c 1,82,-1
 27 28 l 1,83,84
 44 54 44 54 44 134 c 2,85,-1
 44 136 l 2,86,87
 44 138 44 138 59.5 146.5 c 128,-1,88
 75 155 75 155 75 169 c 128,-1,89
 75 183 75 183 57 197 c 128,-1,90
 39 211 39 211 39 214 c 2,91,-1
 39 215 l 1,92,93
 46 245 46 245 48 323 c 1,94,-1
 28 322 l 1,95,-1
 25 322 l 1,96,97
 17 318 17 318 1 318 c 128,-1,98
 -15 318 -15 318 -15 322 c 0,99,100
 -15 372 -15 372 -1.5 408 c 2,101,-1
 3 420 l 1,102,103
 11 428 11 428 49 428 c 1,104,-1
 49 441 l 2,105,106
 49 468 49 468 39 490 c 1,107,-1
 39 492 l 1,108,-1
 49 518 l 2,109,110
 51 524 51 524 51 541 c 2,111,-1
 47 626 l 1,112,113
 41.5939086294 656.634517766 41.5939086294 656.634517766 25.7969543147 681.317258883 c 128,-1,114
 10 706 10 706 10 707.5 c 128,-1,115
 10 709 10 709 12 714 c 0,116,117
 18.7368421053 730.842105263 18.7368421053 730.842105263 29.8684210526 737.421052632 c 128,-1,118
 41 744 41 744 114.5 761 c 128,-1,119
 188 778 188 778 213.5 778 c 128,-1,120
 239 778 239 778 306.5 766 c 128,-1,121
 374 754 374 754 398 742 c 128,-1,122
 422 730 422 730 468 685.5 c 128,-1,123
 514 641 514 641 514 630 c 0,124,125
 514 627 514 627 505 611.5 c 128,-1,126
 496 596 496 596 496 589 c 128,-1,127
 496 582 496 582 515 570.5 c 128,-1,128
 534 559 534 559 536 549 c 0,129,130
 546 494 546 494 548 466 c 2,131,-1
 549 442 l 2,132,133
 549 424 549 424 548 392 c 2,134,-1
 547 360 l 1,56,-1
EndSplineSet
EndChar

StartChar: Euro
Encoding: 8364 8364 18
Width: 584
Flags: MW
HStem: -23 21G<439 445> -21 133<316 451> -1 21G<409.5 422> 224 116<383 446> 415 121 428 108<83.5 86.5> 653 106<394 454.5> 653 124<327.5 454.5> 756 20G<423 425 425 433>
VStem: 91 200<213 340.5> 120 171<213 214.5>
LayerCount: 2
Fore
SplineSet
58 537 m 2,0,-1
 88 536 l 2,1,2
 100 536 100 536 103 539 c 128,-1,3
 106 542 106 542 108 582.5 c 128,-1,4
 110 623 110 623 115 625 c 0,5,6
 129 630 129 630 156.5 678.5 c 128,-1,7
 184 727 184 727 212 744 c 1,8,9
 286 777 286 777 369 777 c 1,10,11
 389 759 389 759 398.5 759 c 128,-1,12
 408 759 408 759 414.5 767.5 c 128,-1,13
 421 776 421 776 423 776 c 2,14,-1
 425 776 l 2,15,16
 540 776 540 776 562 755 c 1,17,18
 579 684 579 684 579 671 c 128,-1,19
 579 658 579 658 578 657 c 0,20,21
 541 630 541 630 534 630 c 1,22,23
 475 653 475 653 434 653 c 0,24,25
 420 653 420 653 380 635 c 128,-1,26
 340 617 340 617 310 587 c 1,27,28
 301 548 301 548 301 539 c 0,29,30
 301 527 301 527 343 527 c 0,31,32
 360 527 360 527 364.5 531.5 c 128,-1,33
 369 536 369 536 423.5 536 c 128,-1,34
 478 536 478 536 482 532 c 128,-1,35
 486 528 486 528 495.5 504 c 128,-1,36
 505 480 505 480 505 462 c 1,37,38
 496 412 496 412 485 412 c 2,39,-1
 484 412 l 1,40,41
 476 415 476 415 411 415 c 2,42,-1
 341 415 l 2,43,44
 340 415 340 415 329.5 425.5 c 128,-1,45
 319 436 319 436 309 436 c 1,46,47
 287 420 287 420 287 414 c 0,48,49
 283 380 283 380 283 360 c 128,-1,50
 283 340 283 340 287.5 335.5 c 128,-1,51
 292 331 292 331 345 331 c 128,-1,52
 398 331 398 331 402.5 335.5 c 128,-1,53
 407 340 407 340 447.5 340 c 128,-1,54
 488 340 488 340 494 334 c 1,55,56
 502 319 502 319 502 296 c 0,57,58
 502 292 502 292 491.5 265.5 c 128,-1,59
 481 239 481 239 481 225 c 1,60,61
 467 220 467 220 459 220 c 128,-1,62
 451 220 451 220 448 223 c 1,63,64
 444 236 444 236 426 235.5 c 128,-1,65
 408 235 408 235 402 229.5 c 128,-1,66
 396 224 396 224 389 224 c 128,-1,67
 382 224 382 224 365.5 228.5 c 128,-1,68
 349 233 349 233 348 233 c 0,69,70
 291 232 291 232 291 224 c 2,71,-1
 291 219 l 2,72,73
 291 179 291 179 311 159 c 0,74,75
 318 152 318 152 335.5 150.5 c 128,-1,76
 353 149 353 149 358 144 c 1,77,78
 368 125 368 125 373.5 118.5 c 128,-1,79
 379 112 379 112 435 112 c 128,-1,80
 491 112 491 112 509 123 c 0,81,82
 513 125 513 125 523.5 135 c 128,-1,83
 534 145 534 145 538.5 145 c 128,-1,84
 543 145 543 145 560.5 134.5 c 128,-1,85
 578 124 578 124 578 116.5 c 0,86,87
 578 97.4761904762 578 97.4761904762 547.5 20.5 c 2,88,-1
 537 -6 l 1,89,90
 523.947368421 -19.0526315789 523.947368421 -19.0526315789 465 -22 c 2,91,-1
 445 -23 l 2,92,93
 439 -23 439 -23 430.5 -12 c 128,-1,94
 422 -1 422 -1 416 -1 c 0,95,96
 406 -1 406 -1 386 -17 c 0,97,98
 381 -21 381 -21 313 -21 c 128,-1,99
 245 -21 245 -21 225 -12.5 c 128,-1,100
 205 -4 205 -4 179.5 29 c 128,-1,101
 154 62 154 62 147 62 c 0,102,103
 131 62 131 62 113 108.5 c 128,-1,104
 95 155 95 155 95 171 c 0,105,106
 95 172 95 172 107.5 182 c 128,-1,107
 120 192 120 192 120 209 c 0,108,109
 120 216 120 216 98 222 c 128,-1,110
 76 228 76 228 67.5 228 c 128,-1,111
 59 228 59 228 53.5 225 c 128,-1,112
 48 222 48 222 32 222 c 128,-1,113
 16 222 16 222 16 227 c 0,114,115
 16 276 16 276 29.5 316.5 c 2,116,-1
 34 330 l 1,117,118
 42 338 42 338 78.5 338 c 2,119,-1
 91 338 l 1,120,-1
 94 423 l 2,121,122
 94 428 94 428 84 428 c 0,123,124
 69.2 428 69.2 428 33.5 419.5 c 2,125,-1
 23 417 l 1,126,-1
 22 417 l 2,127,128
 17.5454545455 417 17.5454545455 417 5 440 c 1,129,130
 5 469 5 469 33.5 518.5 c 2,131,-1
 43 535 l 1,132,133
 46 537 46 537 58 537 c 2,0,-1
EndSplineSet
EndChar

StartChar: F
Encoding: 70 70 19
Width: 494
Flags: MW
HStem: -14 21G<97.5 140.5> 346 131<260 428> 651 84<250 347> 651 108<302.5 402> 746 20G<149.5 155> 747 20G<426.5 433>
VStem: 20 211 44 187<114.5 317.5> 44 205
LayerCount: 2
Fore
SplineSet
400 331 m 1,0,1
 398 332 398 332 397 332 c 0,2,3
 363 346 363 346 313.5 346 c 128,-1,4
 264 346 264 346 235 336 c 0,5,6
 189 320.137931034 189 320.137931034 189 294 c 0,7,8
 189 281 189 281 214 281 c 0,9,10
 218 281 218 281 232 283 c 1,11,-1
 233 283 l 2,12,13
 237 283 237 283 237 262 c 1,14,-1
 235.5 239 l 2,15,16
 231 170 231 170 231 139.5 c 128,-1,17
 231 109 231 109 240 79 c 2,18,-1
 249 49 l 2,19,20
 249 46 249 46 246 44 c 0,21,22
 238 41 238 41 213 25 c 0,23,24
 152.0625 -14 152.0625 -14 125.53125 -14 c 128,-1,25
 99 -14 99 -14 76.5 -7.5 c 128,-1,26
 54 -1 54 -1 41 6 c 128,-1,27
 28 13 28 13 28 16 c 0,28,29
 28 21 28 21 38.5 49.5 c 128,-1,30
 49 78 49 78 49 102 c 0,31,32
 49 107 49 107 39 113.5 c 128,-1,33
 29 120 29 120 29 129 c 128,-1,34
 29 138 29 138 35.5 154 c 128,-1,35
 42 170 42 170 42 171 c 2,36,-1
 42 175 l 1,37,-1
 41 225 l 2,38,39
 41 238 41 238 43 278 c 1,40,-1
 43 282 l 1,41,-1
 44 300 l 1,42,43
 44 321 44 321 40.5 342 c 128,-1,44
 37 363 37 363 37 364 c 128,-1,45
 37 365 37 365 53 379 c 128,-1,46
 69 393 69 393 69 401 c 128,-1,47
 69 409 69 409 66 413.5 c 128,-1,48
 63 418 63 418 58.5 420.5 c 128,-1,49
 54 423 54 423 49.5 425 c 0,50,51
 39 429.666666667 39 429.666666667 39 431 c 0,52,53
 44 481 44 481 44 500 c 2,54,-1
 41 610 l 1,55,56
 53 626 53 626 53 630 c 128,-1,57
 53 634 53 634 44 643 c 1,58,59
 35 648 35 648 27.5 683 c 128,-1,60
 20 718 20 718 20 735 c 0,61,62
 20 742 20 742 81 749.5 c 128,-1,63
 142 757 142 757 142 763 c 1,64,65
 147 766 147 766 155 766 c 128,-1,66
 163 766 163 766 200 762 c 128,-1,67
 237 758 237 758 241 754 c 1,68,-1
 245 744.5 l 2,69,70
 249 735 249 735 259 735 c 128,-1,71
 269 735 269 735 314 747 c 128,-1,72
 359 759 359 759 394 759 c 1,73,-1
 433 767 l 1,74,75
 484 757 484 757 487 755 c 1,76,77
 489 751 489 751 489 735.5 c 128,-1,78
 489 720 489 720 485 698 c 1,79,-1
 485 696 l 1,80,81
 462 604 462 604 451 593 c 128,-1,82
 440 582 440 582 407.5 582.5 c 128,-1,83
 375 583 375 583 375 594 c 2,84,-1
 375 597 l 2,85,86
 375 622.2 375 622.2 360 636.6 c 128,-1,87
 345 651 345 651 319.5 651 c 128,-1,88
 294 651 294 651 258 635 c 128,-1,89
 222 619 222 619 222 610 c 0,90,91
 222 608 222 608 232.5 599.5 c 128,-1,92
 243 591 243 591 243 584 c 128,-1,93
 243 577 243 577 239 571.5 c 0,94,95
 233 563.25 233 563.25 233 523.125 c 128,-1,96
 233 483 233 483 238 478 c 128,-1,97
 243 473 243 473 274 473 c 2,98,-1
 422 477 l 2,99,100
 441 477 441 477 443.5 474.5 c 128,-1,101
 446 472 446 472 446 445 c 128,-1,102
 446 418 446 418 429 374.5 c 128,-1,103
 412 331 412 331 401 331 c 2,104,-1
 400 331 l 1,0,1
EndSplineSet
EndChar

StartChar: G
Encoding: 71 71 20
Width: 544
Flags: MW
HStem: -16 21G<211.5 274> 644 118<328.5 393.5>
VStem: 10 205<265.5 373> 35 180 35 207 270 240<209 364> 322 188<254 259 209 276> 341 169<209 319> 341 187<315.5 319>
LayerCount: 2
Fore
SplineSet
332 461 m 2,0,-1
 359 460 l 1,1,2
 389 460 389 460 398 469 c 128,-1,3
 407 478 407 478 459.5 477.5 c 128,-1,4
 512 477 512 477 520.5 468.5 c 128,-1,5
 529 460 529 460 529 431 c 128,-1,6
 529 402 529 402 527 400 c 0,7,8
 505.214285714 384.75 505.214285714 384.75 502.107142857 373.875 c 128,-1,9
 499 363 499 363 499 355.5 c 128,-1,10
 499 348 499 348 513.5 341 c 128,-1,11
 528 334 528 334 528 329 c 0,12,13
 528 314 528 314 519 286 c 128,-1,14
 510 258 510 258 510 251 c 0,15,16
 510 203 510 203 514.5 161.5 c 128,-1,17
 519 120 519 120 519 92 c 128,-1,18
 519 64 519 64 512 54 c 1,19,20
 498 40 498 40 475 30 c 128,-1,21
 452 20 452 20 441 20 c 0,22,23
 439 20 439 20 418.5 38.5 c 128,-1,24
 398 57 398 57 389 57 c 128,-1,25
 380 57 380 57 365.5 45.5 c 128,-1,26
 351 34 351 34 334 20.5 c 128,-1,27
 317 7 317 7 288.5 -4.5 c 128,-1,28
 260 -16 260 -16 233 -16 c 128,-1,29
 206 -16 206 -16 158 9 c 128,-1,30
 110 34 110 34 97 47 c 0,31,32
 93 50 93 50 85.5 62.5 c 128,-1,33
 78 75 78 75 75 78 c 128,-1,34
 72 81 72 81 57.5 87.5 c 128,-1,35
 43 94 43 94 38 99 c 128,-1,36
 33 104 33 104 27 183 c 128,-1,37
 21 262 21 262 13 278 c 1,38,-1
 13 279 l 2,39,40
 13 280 13 280 26.5 290.5 c 128,-1,41
 40 301 40 301 40 314.5 c 128,-1,42
 40 328 40 328 32.5 337.5 c 128,-1,43
 25 347 25 347 17.5 353 c 128,-1,44
 10 359 10 359 10 360 c 0,45,46
 10 380 10 380 31 424 c 0,47,48
 37 436 37 436 37 484 c 1,49,-1
 35 569 l 2,50,51
 35 595 35 595 110 675 c 128,-1,52
 185 755 185 755 212 755 c 1,53,-1
 233 744 l 1,54,55
 236 744 236 744 296.5 753 c 128,-1,56
 357 762 357 762 378 762 c 128,-1,57
 399 762 399 762 434.5 755 c 128,-1,58
 470 748 470 748 475 743 c 128,-1,59
 480 738 480 738 480 721 c 128,-1,60
 480 704 480 704 476.5 686.5 c 128,-1,61
 473 669 473 669 461 637.5 c 128,-1,62
 449 606 449 606 443.5 600 c 128,-1,63
 438 594 438 594 424.5 594 c 128,-1,64
 411 594 411 594 409.5 595.5 c 128,-1,65
 408 597 408 597 400.5 607 c 128,-1,66
 393 617 393 617 386.5 624 c 0,67,68
 367.928571429 644 367.928571429 644 333 644 c 0,69,70
 324 644 324 644 296 632 c 128,-1,71
 268 620 268 620 253 605 c 0,72,73
 248 600 248 600 241 571 c 128,-1,74
 234 542 234 542 234 519 c 0,75,76
 234 515 234 515 212 504 c 1,77,78
 203 492 203 492 203 486.5 c 128,-1,79
 203 481 203 481 219.5 472.5 c 128,-1,80
 236 464 236 464 236 461 c 0,81,82
 236 450 236 450 223 424 c 1,83,84
 215 398 215 398 215 319 c 128,-1,85
 215 240 215 240 217 238 c 128,-1,86
 219 236 219 236 226.5 231 c 0,87,88
 244 219.333333333 244 219.333333333 244 214 c 1,89,90
 242 206 242 206 242 195 c 0,91,92
 242 158 242 158 265 135 c 0,93,94
 272 128 272 128 293 128 c 0,95,96
 304 128 304 128 321.5 159 c 128,-1,97
 339 190 339 190 339 214 c 0,98,99
 339 216 339 216 330.5 233 c 128,-1,100
 322 250 322 250 322 274 c 1,101,-1
 331.5 285.5 l 2,102,103
 341 297 341 297 341 309.5 c 128,-1,104
 341 322 341 322 333.5 331 c 128,-1,105
 326 340 326 340 322 341 c 128,-1,106
 318 342 318 342 313 342 c 2,107,-1
 276 338 l 2,108,109
 270 338 270 338 270 341 c 0,110,111
 270 371 270 371 286.5 408.5 c 128,-1,112
 303 446 303 446 315 458 c 0,113,114
 318 461 318 461 332 461 c 2,0,-1
EndSplineSet
EndChar

StartChar: H
Encoding: 72 72 21
Width: 592
Flags: MW
HStem: -32 21G<126.5 159> -22 21G<431.5 466> 333 116<258.5 331.5> 766 20G<441 471>
VStem: 33 224<558.5 689 558.5 696.5> 59 150<266 283.5 266 316.5> 69 172<471 485.5 471 485.5> 349 161 369 141<158.5 164 143.5 183> 369 161
LayerCount: 2
Fore
SplineSet
530 603 m 1,0,-1
 532 543 l 2,1,2
 532 541 532 541 518.5 529.5 c 128,-1,3
 505 518 505 518 505 509 c 128,-1,4
 505 500 505 500 516 490 c 128,-1,5
 527 480 527 480 536 480 c 0,6,7
 540 480 540 480 540 457.5 c 128,-1,8
 540 435 540 435 538 430.5 c 128,-1,9
 536 426 536 426 532.5 419 c 2,10,-1
 528 410 l 1,11,-1
 528 396 l 2,12,13
 528 222 528 222 537 197 c 1,14,-1
 537 196 l 2,15,16
 537 194 537 194 523.5 180 c 128,-1,17
 510 166 510 166 510 155.5 c 128,-1,18
 510 145 510 145 518 141 c 128,-1,19
 526 137 526 137 534.5 136 c 128,-1,20
 543 135 543 135 543 134 c 0,21,22
 543 122 543 122 556 96 c 128,-1,23
 569 70 569 70 574.5 64 c 128,-1,24
 580 58 580 58 580 56 c 0,25,26
 580 42 580 42 527 10 c 128,-1,27
 474 -22 474 -22 450.5 -22 c 128,-1,28
 427 -22 427 -22 386.5 3 c 128,-1,29
 346 28 346 28 342 34 c 0,30,31
 336 43 336 43 334.5 110.5 c 2,32,-1
 334 133 l 1,33,-1
 351.5 144.5 l 2,34,35
 369 156 369 156 369 170 c 128,-1,36
 369 184 369 184 352 188 c 128,-1,37
 335 192 335 192 335 193.5 c 128,-1,38
 335 195 335 195 340 218 c 128,-1,39
 345 241 345 241 345 282 c 128,-1,40
 345 323 345 323 338 330 c 1,41,42
 333 333 333 333 328 333 c 0,43,44
 275 333 275 333 242 312.5 c 128,-1,45
 209 292 209 292 209 271 c 0,46,47
 209 259 209 259 230 259 c 1,48,-1
 244 261 l 1,49,50
 247 259.5 247 259.5 247 255 c 2,51,-1
 242 154 l 1,52,53
 242 102 242 102 248.5 76 c 128,-1,54
 255 50 255 50 255 37 c 128,-1,55
 255 24 255 24 253.5 22 c 128,-1,56
 252 20 252 20 233 7.5 c 128,-1,57
 214 -5 214 -5 185.5 -18.5 c 128,-1,58
 157 -32 157 -32 137 -32 c 128,-1,59
 117 -32 117 -32 68.5 -15 c 128,-1,60
 20 2 20 2 20 14 c 1,61,-1
 21 16 l 1,62,63
 59 79 59 79 59 292 c 1,64,-1
 54 392 l 1,65,66
 38 408 38 408 38 437 c 2,67,-1
 38 441 l 2,68,69
 38 442 38 442 53.5 454 c 128,-1,70
 69 466 69 466 69 475 c 128,-1,71
 69 484 69 484 63 490 c 128,-1,72
 57 496 57 496 51.5 500 c 128,-1,73
 46 504 46 504 46 506 c 0,74,75
 50 521 50 521 50 566.5 c 128,-1,76
 50 612 50 612 34 684 c 0,77,78
 34 685 34 685 33 688 c 1,79,-1
 33 689 l 2,80,81
 33 700 33 700 93 734 c 128,-1,82
 153 768 153 768 169 768 c 128,-1,83
 185 768 185 768 220.5 756.5 c 128,-1,84
 256 745 256 745 256 738.5 c 128,-1,85
 256 732 256 732 249.5 682.5 c 128,-1,86
 243 633 243 633 242 629 c 2,87,-1
 235 613 l 1,88,89
 235 604 235 604 246 588 c 128,-1,90
 257 572 257 572 257 566 c 128,-1,91
 257 560 257 560 253.5 553.5 c 0,92,93
 242 532.142857143 242 532.142857143 241.5 513.071428571 c 128,-1,94
 241 494 241 494 241 474 c 128,-1,95
 241 454 241 454 243.5 451.5 c 128,-1,96
 246 449 246 449 264 449 c 0,97,98
 313 449 313 449 332 467 c 1,99,100
 349 486 349 486 349 581.5 c 128,-1,101
 349 677 349 677 340 711 c 1,102,-1
 340 712 l 2,103,104
 340 723 340 723 387 754.5 c 128,-1,105
 434 786 434 786 456.5 786 c 128,-1,106
 479 786 479 786 516.5 772.5 c 128,-1,107
 554 759 554 759 554 748 c 2,108,-1
 554 747 l 1,109,110
 530 691 530 691 530 603 c 1,0,-1
EndSplineSet
EndChar

StartChar: I
Encoding: 73 73 22
Width: 278
Flags: MW
HStem: -21 21G<169 188.5> 753 20G<119 139>
VStem: 20 217 45 158 68 154<461 463.5 428.5 486>
LayerCount: 2
Fore
SplineSet
233 203 m 0,0,1
 231 184 231 184 231 137 c 128,-1,2
 231 90 231 90 258 36 c 1,3,4
 258 30.8125 258 30.8125 246.5 22.90625 c 128,-1,5
 235 15 235 15 230 11.5 c 128,-1,6
 225 8 225 8 216.5 1 c 128,-1,7
 208 -6 208 -6 203 -10 c 0,8,9
 189.25 -21 189.25 -21 183 -21 c 0,10,11
 154 -21 154 -21 87.5 -10 c 128,-1,12
 21 1 21 1 21 12 c 0,13,14
 21 18 21 18 26 62 c 128,-1,15
 31 106 31 106 32 111 c 1,16,-1
 39 125 l 1,17,18
 48 224 48 224 48 255 c 128,-1,19
 48 286 48 286 45.5 332 c 128,-1,20
 43 378 43 378 40.5 404.5 c 128,-1,21
 38 431 38 431 38 432.5 c 128,-1,22
 38 434 38 434 45.5 439 c 0,23,24
 68 454 68 454 68 471 c 128,-1,25
 68 488 68 488 51.5 496.5 c 128,-1,26
 35 505 35 505 35 508 c 0,27,28
 35 518 35 518 40 554.5 c 128,-1,29
 45 591 45 591 45 611 c 128,-1,30
 45 631 45 631 32.5 667 c 128,-1,31
 20 703 20 703 20 708 c 0,32,33
 20 716 20 716 66.5 744.5 c 128,-1,34
 113 773 113 773 132.5 773 c 128,-1,35
 152 773 152 773 197 760.5 c 128,-1,36
 242 748 242 748 242 733 c 0,37,38
 242 722 242 722 231 678 c 128,-1,39
 220 634 220 634 220 628 c 128,-1,40
 220 622 220 622 226.5 617.5 c 128,-1,41
 233 613 233 613 233 607 c 0,42,43
 222 493 222 493 222 453.5 c 128,-1,44
 222 414 222 414 223 407.5 c 128,-1,45
 224 401 224 401 229 393 c 128,-1,46
 234 385 234 385 234 377 c 0,47,48
 234 376 234 376 218.5 363 c 128,-1,49
 203 350 203 350 203 340 c 128,-1,50
 203 330 203 330 220 316 c 128,-1,51
 237 302 237 302 237 287 c 1,52,53
 234 267 234 267 233.5 265.5 c 128,-1,54
 233 264 233 264 218 253.5 c 128,-1,55
 203 243 203 243 203 239 c 2,56,-1
 203 232 l 2,57,58
 203 219 203 219 223 211.5 c 0,59,60
 233 207.75 233 207.75 233 203 c 0,0,1
EndSplineSet
EndChar

StartChar: Iacute
Encoding: 205 205 23
Width: 278
Flags: MW
HStem: -21 21G<169 188.5> 773 187<119 181.5>
VStem: 21 210<4 167> 35 196 48 155<230 232 232 239 230 292.5> 68 163
LayerCount: 2
Fore
SplineSet
163 868 m 1,0,-1
 165 853 l 2,1,2
 165 850 165 850 156 847 c 128,-1,3
 147 844 147 844 124 824.5 c 128,-1,4
 101 805 101 805 96.5 800 c 128,-1,5
 92 795 92 795 87 795 c 128,-1,6
 82 795 82 795 62.5 811 c 128,-1,7
 43 827 43 827 43 835.5 c 128,-1,8
 43 844 43 844 68 875.5 c 128,-1,9
 93 907 93 907 93 909 c 0,10,11
 94 921 94 921 94 922 c 0,12,13
 118 952 118 952 119.5 953.5 c 128,-1,14
 121 955 121 955 141.5 957.5 c 128,-1,15
 162 960 162 960 174 960 c 128,-1,16
 186 960 186 960 210.5 943 c 128,-1,17
 235 926 235 926 235 917 c 0,18,19
 235 914 235 914 227 908.5 c 0,20,21
 195.784313725 887.039215686 195.784313725 887.039215686 187 877 c 0,22,23
 186 876 186 876 174.5 876 c 128,-1,24
 163 876 163 876 163 868 c 1,0,-1
233 203 m 0,25,26
 231 184 231 184 231 137 c 128,-1,27
 231 90 231 90 258 36 c 1,28,29
 258 30.8125 258 30.8125 246.5 22.90625 c 128,-1,30
 235 15 235 15 230 11.5 c 128,-1,31
 225 8 225 8 216.5 1 c 128,-1,32
 208 -6 208 -6 203 -10 c 0,33,34
 189.25 -21 189.25 -21 183 -21 c 0,35,36
 154 -21 154 -21 87.5 -10 c 128,-1,37
 21 1 21 1 21 12 c 0,38,39
 21 18 21 18 26 62 c 128,-1,40
 31 106 31 106 32 111 c 1,41,-1
 39 125 l 1,42,43
 48 224 48 224 48 255 c 128,-1,44
 48 286 48 286 45.5 332 c 128,-1,45
 43 378 43 378 40.5 404.5 c 128,-1,46
 38 431 38 431 38 432.5 c 128,-1,47
 38 434 38 434 45.5 439 c 0,48,49
 68 454 68 454 68 471 c 128,-1,50
 68 488 68 488 51.5 496.5 c 128,-1,51
 35 505 35 505 35 508 c 0,52,53
 35 518 35 518 40 554.5 c 128,-1,54
 45 591 45 591 45 611 c 128,-1,55
 45 631 45 631 32.5 667 c 128,-1,56
 20 703 20 703 20 708 c 0,57,58
 20 716 20 716 66.5 744.5 c 128,-1,59
 113 773 113 773 132.5 773 c 128,-1,60
 152 773 152 773 197 760.5 c 128,-1,61
 242 748 242 748 242 733 c 0,62,63
 242 722 242 722 231 678 c 128,-1,64
 220 634 220 634 220 628 c 128,-1,65
 220 622 220 622 226.5 617.5 c 128,-1,66
 233 613 233 613 233 607 c 0,67,68
 222 493 222 493 222 453.5 c 128,-1,69
 222 414 222 414 223 407.5 c 128,-1,70
 224 401 224 401 229 393 c 128,-1,71
 234 385 234 385 234 377 c 0,72,73
 234 376 234 376 218.5 363 c 128,-1,74
 203 350 203 350 203 340 c 128,-1,75
 203 330 203 330 220 316 c 128,-1,76
 237 302 237 302 237 287 c 1,77,78
 234 267 234 267 233.5 265.5 c 128,-1,79
 233 264 233 264 218 253.5 c 128,-1,80
 203 243 203 243 203 239 c 2,81,-1
 203 232 l 2,82,83
 203 219 203 219 223 211.5 c 0,84,85
 233 207.75 233 207.75 233 203 c 0,25,26
EndSplineSet
EndChar

StartChar: Icircumflex
Encoding: 206 206 24
Width: 278
Flags: MW
HStem: -21 21G<169 188.5> 800 164<26 205> 840 124<84.5 205>
VStem: 20 229<701 887> 45 158 45 192 68 154<461 463.5 428.5 486>
LayerCount: 2
Fore
SplineSet
48 913 m 1,0,-1
 44 933 l 1,1,2
 62 962 62 962 69 962 c 2,3,-1
 90 962 l 2,4,5
 120 962 120 962 122 959 c 1,6,7
 140 944 140 944 142 944 c 128,-1,8
 144 944 144 944 167 959 c 1,9,10
 170 964 170 964 191.5 964 c 128,-1,11
 213 964 213 964 216.5 961 c 128,-1,12
 220 958 220 958 236 932.5 c 128,-1,13
 252 907 252 907 252 903 c 1,14,15
 249 892 249 892 249 882 c 128,-1,16
 249 872 249 872 270 872 c 1,17,18
 297 838 297 838 297 834.5 c 128,-1,19
 297 831 297 831 295 829 c 128,-1,20
 293 827 293 827 290 825 c 128,-1,21
 287 823 287 823 281.5 817.5 c 128,-1,22
 276 812 276 812 264.5 806.5 c 128,-1,23
 253 801 253 801 241 799 c 1,24,25
 218 799 218 799 218 803 c 1,26,-1
 180 848 l 1,27,28
 163 851.4 163 851.4 163 856 c 0,29,30
 163 869 163 869 154 883.5 c 128,-1,31
 145 898 145 898 139 898 c 0,32,33
 134 898 134 898 111.5 869.5 c 2,34,-1
 104 860 l 1,35,36
 104 844 104 844 98 840 c 1,37,38
 82 840 82 840 63.5 820 c 128,-1,39
 45 800 45 800 44 800 c 0,40,41
 28 800 28 800 12.5 807.5 c 128,-1,42
 -3 815 -3 815 -10.5 822 c 128,-1,43
 -18 829 -18 829 -18 831 c 1,44,-1
 1.5 862 l 2,45,46
 21 893 21 893 21 898 c 1,47,48
 48 904 48 904 48 913 c 1,0,-1
233 203 m 0,49,50
 231 184 231 184 231 137 c 128,-1,51
 231 90 231 90 258 36 c 1,52,53
 258 30.8125 258 30.8125 246.5 22.90625 c 128,-1,54
 235 15 235 15 230 11.5 c 128,-1,55
 225 8 225 8 216.5 1 c 128,-1,56
 208 -6 208 -6 203 -10 c 0,57,58
 189.25 -21 189.25 -21 183 -21 c 0,59,60
 154 -21 154 -21 87.5 -10 c 128,-1,61
 21 1 21 1 21 12 c 0,62,63
 21 18 21 18 26 62 c 128,-1,64
 31 106 31 106 32 111 c 1,65,-1
 39 125 l 1,66,67
 48 224 48 224 48 255 c 128,-1,68
 48 286 48 286 45.5 332 c 128,-1,69
 43 378 43 378 40.5 404.5 c 128,-1,70
 38 431 38 431 38 432.5 c 128,-1,71
 38 434 38 434 45.5 439 c 0,72,73
 68 454 68 454 68 471 c 128,-1,74
 68 488 68 488 51.5 496.5 c 128,-1,75
 35 505 35 505 35 508 c 0,76,77
 35 518 35 518 40 554.5 c 128,-1,78
 45 591 45 591 45 611 c 128,-1,79
 45 631 45 631 32.5 667 c 128,-1,80
 20 703 20 703 20 708 c 0,81,82
 20 716 20 716 66.5 744.5 c 128,-1,83
 113 773 113 773 132.5 773 c 128,-1,84
 152 773 152 773 197 760.5 c 128,-1,85
 242 748 242 748 242 733 c 0,86,87
 242 722 242 722 231 678 c 128,-1,88
 220 634 220 634 220 628 c 128,-1,89
 220 622 220 622 226.5 617.5 c 128,-1,90
 233 613 233 613 233 607 c 0,91,92
 222 493 222 493 222 453.5 c 128,-1,93
 222 414 222 414 223 407.5 c 128,-1,94
 224 401 224 401 229 393 c 128,-1,95
 234 385 234 385 234 377 c 0,96,97
 234 376 234 376 218.5 363 c 128,-1,98
 203 350 203 350 203 340 c 128,-1,99
 203 330 203 330 220 316 c 128,-1,100
 237 302 237 302 237 287 c 1,101,102
 234 267 234 267 233.5 265.5 c 128,-1,103
 233 264 233 264 218 253.5 c 128,-1,104
 203 243 203 243 203 239 c 2,105,-1
 203 232 l 2,106,107
 203 219 203 219 223 211.5 c 0,108,109
 233 207.75 233 207.75 233 203 c 0,49,50
EndSplineSet
EndChar

StartChar: Idieresis
Encoding: 207 207 25
Width: 278
Flags: MW
HStem: -21 21G<169 188.5> 923 20G<42.5 51.5 250 254>
VStem: 20 217 45 158 68 154<461 463.5 428.5 486> 99 206<866.5 923.5> 171 134<850 923.5>
LayerCount: 2
Fore
SplineSet
99 889 m 0,0,1
 99 869 99 869 93.5 853.5 c 128,-1,2
 88 838 88 838 78 828 c 1,3,4
 70 822 70 822 50 815.5 c 128,-1,5
 30 809 30 809 11.5 809 c 128,-1,6
 -7 809 -7 809 -15 817 c 0,7,8
 -16 818 -16 818 -16 827.5 c 0,9,10
 -16 843 -16 843 -27 843 c 2,11,-1
 -33 843 l 2,12,13
 -37 843 -37 843 -40 845.5 c 128,-1,14
 -43 848 -43 848 -43 872.5 c 128,-1,15
 -43 897 -43 897 -41.5 899.5 c 128,-1,16
 -40 902 -40 902 -29.5 913 c 128,-1,17
 -19 924 -19 924 -8 930 c 1,18,19
 35 943 35 943 45 943 c 128,-1,20
 55 943 55 943 69.5 938.5 c 128,-1,21
 84 934 84 934 84 930 c 1,22,23
 80 920 80 920 80 911 c 1,24,25
 99 895 99 895 99 889 c 0,0,1
321 876 m 0,26,27
 320 846 320 846 311 837 c 128,-1,28
 302 828 302 828 297 828 c 128,-1,29
 292 828 292 828 277 814.5 c 128,-1,30
 262 801 262 801 260 801 c 2,31,-1
 217 807 l 1,32,33
 203.375 811.541666667 203.375 811.541666667 174 837 c 0,34,35
 171 840 171 840 171 855 c 128,-1,36
 171 870 171 870 174.5 888 c 128,-1,37
 178 906 178 906 182 906 c 0,38,39
 195 906 195 906 236 939 c 1,40,41
 246 943 246 943 254 943 c 1,42,43
 305 931 305 931 305 916 c 1,44,45
 299 907 299 907 299 901.5 c 128,-1,46
 299 896 299 896 310 889 c 128,-1,47
 321 882 321 882 321 876 c 0,26,27
233 203 m 0,48,49
 231 184 231 184 231 137 c 128,-1,50
 231 90 231 90 258 36 c 1,51,52
 258 30.8125 258 30.8125 246.5 22.90625 c 128,-1,53
 235 15 235 15 230 11.5 c 128,-1,54
 225 8 225 8 216.5 1 c 128,-1,55
 208 -6 208 -6 203 -10 c 0,56,57
 189.25 -21 189.25 -21 183 -21 c 0,58,59
 154 -21 154 -21 87.5 -10 c 128,-1,60
 21 1 21 1 21 12 c 0,61,62
 21 18 21 18 26 62 c 128,-1,63
 31 106 31 106 32 111 c 1,64,-1
 39 125 l 1,65,66
 48 224 48 224 48 255 c 128,-1,67
 48 286 48 286 45.5 332 c 128,-1,68
 43 378 43 378 40.5 404.5 c 128,-1,69
 38 431 38 431 38 432.5 c 128,-1,70
 38 434 38 434 45.5 439 c 0,71,72
 68 454 68 454 68 471 c 128,-1,73
 68 488 68 488 51.5 496.5 c 128,-1,74
 35 505 35 505 35 508 c 0,75,76
 35 518 35 518 40 554.5 c 128,-1,77
 45 591 45 591 45 611 c 128,-1,78
 45 631 45 631 32.5 667 c 128,-1,79
 20 703 20 703 20 708 c 0,80,81
 20 716 20 716 66.5 744.5 c 128,-1,82
 113 773 113 773 132.5 773 c 128,-1,83
 152 773 152 773 197 760.5 c 128,-1,84
 242 748 242 748 242 733 c 0,85,86
 242 722 242 722 231 678 c 128,-1,87
 220 634 220 634 220 628 c 128,-1,88
 220 622 220 622 226.5 617.5 c 128,-1,89
 233 613 233 613 233 607 c 0,90,91
 222 493 222 493 222 453.5 c 128,-1,92
 222 414 222 414 223 407.5 c 128,-1,93
 224 401 224 401 229 393 c 128,-1,94
 234 385 234 385 234 377 c 0,95,96
 234 376 234 376 218.5 363 c 128,-1,97
 203 350 203 350 203 340 c 128,-1,98
 203 330 203 330 220 316 c 128,-1,99
 237 302 237 302 237 287 c 1,100,101
 234 267 234 267 233.5 265.5 c 128,-1,102
 233 264 233 264 218 253.5 c 128,-1,103
 203 243 203 243 203 239 c 2,104,-1
 203 232 l 2,105,106
 203 219 203 219 223 211.5 c 0,107,108
 233 207.75 233 207.75 233 203 c 0,48,49
EndSplineSet
EndChar

StartChar: Igrave
Encoding: 204 204 26
Width: 278
Flags: MW
HStem: -21 21G<169 188.5> 947 20G<106.5 118>
VStem: 21 210<4 167> 35 196 48 155<230 232 232 239 230 292.5> 68 163
LayerCount: 2
Fore
SplineSet
95 890 m 2,0,-1
 81 889 l 1,1,-1
 80 889 l 1,2,3
 80 890 80 890 60.5 910 c 128,-1,4
 41 930 41 930 41 932 c 0,5,6
 41 937 41 937 71.5 952 c 128,-1,7
 102 967 102 967 118 967 c 1,8,9
 173 956 173 956 175 954 c 0,10,11
 219 863 219 863 238 844 c 1,12,-1
 238 843 l 2,13,14
 238 832.333333333 238 832.333333333 213.5 824.166666667 c 128,-1,15
 189 816 189 816 171 816 c 0,16,17
 166 816 166 816 138.5 838.5 c 128,-1,18
 111 861 111 861 107 861 c 0,19,20
 106 861 106 861 106 866 c 2,21,-1
 106 876 l 2,22,23
 106 885 106 885 103.5 887.5 c 128,-1,24
 101 890 101 890 95 890 c 2,0,-1
233 203 m 0,25,26
 231 184 231 184 231 137 c 128,-1,27
 231 90 231 90 258 36 c 1,28,29
 258 30.8125 258 30.8125 246.5 22.90625 c 128,-1,30
 235 15 235 15 230 11.5 c 128,-1,31
 225 8 225 8 216.5 1 c 128,-1,32
 208 -6 208 -6 203 -10 c 0,33,34
 189.25 -21 189.25 -21 183 -21 c 0,35,36
 154 -21 154 -21 87.5 -10 c 128,-1,37
 21 1 21 1 21 12 c 0,38,39
 21 18 21 18 26 62 c 128,-1,40
 31 106 31 106 32 111 c 1,41,-1
 39 125 l 1,42,43
 48 224 48 224 48 255 c 128,-1,44
 48 286 48 286 45.5 332 c 128,-1,45
 43 378 43 378 40.5 404.5 c 128,-1,46
 38 431 38 431 38 432.5 c 128,-1,47
 38 434 38 434 45.5 439 c 0,48,49
 68 454 68 454 68 471 c 128,-1,50
 68 488 68 488 51.5 496.5 c 128,-1,51
 35 505 35 505 35 508 c 0,52,53
 35 518 35 518 40 554.5 c 128,-1,54
 45 591 45 591 45 611 c 128,-1,55
 45 631 45 631 32.5 667 c 128,-1,56
 20 703 20 703 20 708 c 0,57,58
 20 716 20 716 66.5 744.5 c 128,-1,59
 113 773 113 773 132.5 773 c 128,-1,60
 152 773 152 773 197 760.5 c 128,-1,61
 242 748 242 748 242 733 c 0,62,63
 242 722 242 722 231 678 c 128,-1,64
 220 634 220 634 220 628 c 128,-1,65
 220 622 220 622 226.5 617.5 c 128,-1,66
 233 613 233 613 233 607 c 0,67,68
 222 493 222 493 222 453.5 c 128,-1,69
 222 414 222 414 223 407.5 c 128,-1,70
 224 401 224 401 229 393 c 128,-1,71
 234 385 234 385 234 377 c 0,72,73
 234 376 234 376 218.5 363 c 128,-1,74
 203 350 203 350 203 340 c 128,-1,75
 203 330 203 330 220 316 c 128,-1,76
 237 302 237 302 237 287 c 1,77,78
 234 267 234 267 233.5 265.5 c 128,-1,79
 233 264 233 264 218 253.5 c 128,-1,80
 203 243 203 243 203 239 c 2,81,-1
 203 232 l 2,82,83
 203 219 203 219 223 211.5 c 0,84,85
 233 207.75 233 207.75 233 203 c 0,25,26
EndSplineSet
EndChar

StartChar: J
Encoding: 74 74 27
Width: 512
Flags: MW
HStem: -33 125<160 240> 639 140<265 389>
VStem: 6 177<75 142.5> 6 199<75 193.5> 283 173<441.5 547.5> 283 209<441.5 715.5> 307 149 307 166<152.5 320>
LayerCount: 2
Fore
SplineSet
467 298 m 1,0,-1
 473 158 l 2,1,2
 473 144 473 144 469.5 127 c 128,-1,3
 466 110 466 110 439.5 71 c 128,-1,4
 413 32 413 32 399 32 c 1,5,-1
 367 42 l 1,6,7
 363.230769231 42 363.230769231 42 355.615384615 33 c 128,-1,8
 348 24 348 24 336.5 13 c 128,-1,9
 325 2 325 2 270.5 -15.5 c 128,-1,10
 216 -33 216 -33 197 -33 c 0,11,12
 149 -33 149 -33 101 -3 c 128,-1,13
 53 27 53 27 29 53 c 0,14,15
 28 54 28 54 19.5 57 c 128,-1,16
 11 60 11 60 8.5 62.5 c 128,-1,17
 6 65 6 65 6 78.5 c 0,18,19
 6 105 6 105 15 151.5 c 2,20,-1
 18 167 l 1,21,22
 5 220 l 1,23,24
 5 231 5 231 54.5 268 c 128,-1,25
 104 305 104 305 126 305 c 128,-1,26
 148 305 148 305 170 298.5 c 0,27,28
 197 290.522727273 197 290.522727273 197 286.761363636 c 128,-1,29
 197 283 197 283 189 257.5 c 128,-1,30
 181 232 181 232 181 220.5 c 128,-1,31
 181 209 181 209 193 200.5 c 128,-1,32
 205 192 205 192 205 190 c 0,33,34
 205 176 205 176 194 158 c 128,-1,35
 183 140 183 140 183 139 c 0,36,37
 183 126 183 126 201.5 109 c 128,-1,38
 220 92 220 92 229.5 92 c 0,39,40
 244.818181818 92 244.818181818 92 272 115 c 1,41,42
 287 130 287 130 287 177.5 c 128,-1,43
 287 225 287 225 282 230 c 128,-1,44
 277 235 277 235 277 267 c 2,45,-1
 277 275 l 2,46,47
 277 277 277 277 292 287.5 c 128,-1,48
 307 298 307 298 307 310 c 128,-1,49
 307 322 307 322 293.5 330 c 128,-1,50
 280 338 280 338 280 339 c 2,51,-1
 281 360 l 2,52,53
 283 402 283 402 283 479.5 c 128,-1,54
 283 557 283 557 276 579 c 1,55,-1
 276 580 l 2,56,57
 276 586 276 586 293 599.5 c 128,-1,58
 310 613 310 613 310 614 c 0,59,60
 310 623 310 623 303 631 c 128,-1,61
 296 639 296 639 282 639 c 128,-1,62
 268 639 268 639 253 629 c 128,-1,63
 238 619 238 619 230.5 609 c 128,-1,64
 223 599 223 599 219 599 c 128,-1,65
 215 599 215 599 198 613 c 128,-1,66
 181 627 181 627 181 635 c 128,-1,67
 181 643 181 643 191.5 683.5 c 128,-1,68
 202 724 202 724 207 730 c 1,69,70
 217 739 217 739 282.5 759 c 128,-1,71
 348 779 348 779 389 779 c 1,72,73
 396 774 396 774 398 771 c 128,-1,74
 400 768 400 768 402 768 c 2,75,-1
 471 775 l 1,76,77
 483 775 483 775 487.5 770.5 c 128,-1,78
 492 766 492 766 492 705 c 0,79,80
 492 690 492 690 476 654.5 c 128,-1,81
 460 619 460 619 460 613.5 c 128,-1,82
 460 608 460 608 472 597.5 c 128,-1,83
 484 587 484 587 484 581 c 128,-1,84
 484 575 484 575 470 561.5 c 128,-1,85
 456 548 456 548 456 539.5 c 128,-1,86
 456 531 456 531 471 511.5 c 128,-1,87
 486 492 486 492 486 489 c 128,-1,88
 486 486 486 486 485.5 486 c 128,-1,89
 485 486 485 486 485 485 c 0,90,91
 467 453 467 453 467 368 c 2,92,-1
 467 298 l 1,0,-1
EndSplineSet
EndChar

StartChar: K
Encoding: 75 75 28
Width: 564
Flags: MW
HStem: -24 21G<106.5 138> -11 21G<419.5 436.5> 772 20G<469 477.5>
VStem: 30 188<572.5 662> 45 173<589 662> 68 170<93.5 292> 311 173<292 402 295 402>
LayerCount: 2
Fore
SplineSet
233 755 m 1,0,-1
 218 657 l 1,1,2
 227 653 227 653 227 647 c 2,3,-1
 227 641 l 1,4,-1
 215 567 l 2,5,6
 215 566 215 566 214 564 c 1,7,-1
 214 542 l 1,8,9
 216 510 216 510 220 506 c 0,10,11
 234 493 234 493 238 493 c 128,-1,12
 242 493 242 493 242 493.5 c 128,-1,13
 242 494 242 494 244 495.5 c 128,-1,14
 246 497 246 497 263.5 544.5 c 128,-1,15
 281 592 281 592 285 595.5 c 128,-1,16
 289 599 289 599 302.5 600 c 128,-1,17
 316 601 316 601 320 605 c 1,18,19
 326 616 326 616 326 623 c 1,20,-1
 317 649 l 2,21,22
 317 650 317 650 317.5 650 c 128,-1,23
 318 650 318 650 318 651 c 0,24,25
 355 718 355 718 362 751 c 0,26,27
 363 756 363 756 414 774 c 128,-1,28
 465 792 465 792 471 792 c 128,-1,29
 477 792 477 792 482.5 787 c 128,-1,30
 488 782 488 782 493 782 c 2,31,-1
 517 785 l 2,32,33
 521 785 521 785 542.5 771.5 c 128,-1,34
 564 758 564 758 564 754 c 128,-1,35
 564 750 564 750 545.5 731 c 128,-1,36
 527 712 527 712 525 708 c 0,37,38
 513 684 513 684 501 684 c 1,39,40
 490 687 490 687 488 687 c 0,41,42
 467 676 467 676 467 668 c 128,-1,43
 467 660 467 660 472.5 652 c 128,-1,44
 478 644 478 644 478 641.5 c 128,-1,45
 478 639 478 639 466.5 626 c 0,46,47
 426.692307692 581 426.692307692 581 415 562 c 0,48,49
 365 483 365 483 365 473 c 0,50,51
 365 468.622222222 365 468.622222222 424.5 443.5 c 0,52,53
 447 434 447 434 465.5 410.5 c 128,-1,54
 484 387 484 387 484 356 c 0,55,56
 484 345 484 345 488 329.5 c 128,-1,57
 492 314 492 314 492 305.5 c 128,-1,58
 492 297 492 297 483 288 c 1,59,60
 474 271 474 271 474 264.5 c 0,61,62
 474 253.411764706 474 253.411764706 506 244 c 1,63,64
 510 239 510 239 513 193.5 c 128,-1,65
 516 148 516 148 516 122 c 1,66,67
 560 61 560 61 560 49 c 0,68,69
 560 39 560 39 501.5 14 c 128,-1,70
 443 -11 443 -11 429 -11 c 128,-1,71
 415 -11 415 -11 383 0 c 128,-1,72
 351 11 351 11 344.5 17 c 0,73,74
 334.148148148 26.5555555556 334.148148148 26.5555555556 328 86.5 c 2,75,-1
 326 106 l 1,76,-1
 326 107 l 2,77,78
 326 108 326 108 338 117 c 128,-1,79
 350 126 350 126 350 141 c 128,-1,80
 350 156 350 156 324 156 c 2,81,-1
 322 156 l 2,82,83
 316 156 316 156 316 180 c 2,84,-1
 316 184 l 1,85,-1
 309 274 l 1,86,87
 309 287 309 287 311 292 c 1,88,-1
 311 295 l 2,89,90
 311 311 311 311 289 335 c 128,-1,91
 267 359 267 359 242 359 c 0,92,93
 236 359 236 359 226 344 c 128,-1,94
 216 329 216 329 216 324.5 c 128,-1,95
 216 320 216 320 228.5 309.5 c 128,-1,96
 241 299 241 299 241 293.5 c 128,-1,97
 241 288 241 288 237 279 c 128,-1,98
 233 270 233 270 233 240 c 2,99,-1
 233 236 l 2,100,101
 233 224 233 224 240 216.5 c 128,-1,102
 247 209 247 209 247 205 c 128,-1,103
 247 201 247 201 242.5 194.5 c 128,-1,104
 238 188 238 188 230 183 c 1,105,106
 223 176 223 176 223 162.5 c 2,107,-1
 223 158 l 2,108,109
 223 156 223 156 231.5 149.5 c 128,-1,110
 240 143 240 143 240 139 c 2,111,-1
 240 138 l 1,112,113
 238 126 238 126 238 110 c 2,114,-1
 242 31 l 2,115,116
 242 22 242 22 214 13 c 128,-1,117
 186 4 186 4 163 -10 c 128,-1,118
 140 -24 140 -24 119 -24 c 128,-1,119
 98 -24 98 -24 61 -7.5 c 128,-1,120
 24 9 24 9 24 20 c 1,121,-1
 37 134 l 2,122,123
 38 143 38 143 38 163 c 2,124,-1
 35 249 l 2,125,126
 35 253 35 253 51.5 262.5 c 128,-1,127
 68 272 68 272 68 283 c 128,-1,128
 68 294 68 294 49 306.5 c 128,-1,129
 30 319 30 319 30 322 c 0,130,131
 30 392 30 392 39 467 c 2,132,-1
 42 492 l 1,133,134
 30 511 30 511 30 580 c 0,135,136
 30 581 30 581 37.5 584.5 c 128,-1,137
 45 588 45 588 45 595 c 0,138,139
 45 628 45 628 32.5 662 c 128,-1,140
 20 696 20 696 20 705.5 c 128,-1,141
 20 715 20 715 66.5 743 c 128,-1,142
 113 771 113 771 132 771 c 2,143,-1
 188 769 l 1,144,145
 233 763 233 763 233 755 c 1,0,-1
EndSplineSet
EndChar

StartChar: L
Encoding: 76 76 29
Width: 510
Flags: MW
HStem: -1 21G<162.5 181.5> 5 152<34 102.5> 755 20G<117.5 155.5>
VStem: 32 170 32 225<328.5 479> 43 171<609 616.5 598.5 622> 72 130<155.5 215> 72 165<192 218>
LayerCount: 2
Fore
SplineSet
485 133 m 1,0,-1
 488 114 l 1,1,2
 488 100.103448276 488 100.103448276 471.5 62.5517241379 c 128,-1,3
 455 25 455 25 452 21 c 0,4,5
 441 11 441 11 401 11 c 0,6,7
 325.166666667 11 325.166666667 11 262.5 19 c 2,8,-1
 239 22 l 1,9,10
 222 22 222 22 210 10.5 c 128,-1,11
 198 -1 198 -1 174 -1 c 1,12,-1
 84 5 l 1,13,14
 34 5 34 5 34 17 c 2,15,-1
 34 19 l 1,16,17
 39 36 39 36 39 73 c 1,18,-1
 34 157 l 1,19,-1
 34 158 l 2,20,21
 34 163 34 163 53 177 c 128,-1,22
 72 191 72 191 72 202 c 128,-1,23
 72 213 72 213 63 223 c 128,-1,24
 54 233 54 233 35 239 c 1,25,26
 33 245 33 245 33 251 c 2,27,-1
 39 291 l 2,28,29
 41 305 41 305 41 317 c 2,30,-1
 32 477 l 2,31,32
 32 480 32 480 40 486 c 0,33,34
 55 497.25 55 497.25 55 505 c 1,35,-1
 50 527 l 1,36,37
 43.6 533.4 43.6 533.4 34.8 536.7 c 0,38,39
 20 542.25 20 542.25 20 547.625 c 128,-1,40
 20 553 20 553 31.5 581 c 128,-1,41
 43 609 43 609 43 616 c 1,42,-1
 26 704 l 1,43,44
 26 712 26 712 69 743.5 c 128,-1,45
 112 775 112 775 140.5 775 c 128,-1,46
 169 775 169 775 213.5 768 c 128,-1,47
 258 761 258 761 258 754 c 0,48,49
 258 742 258 742 250.5 690.5 c 128,-1,50
 243 639 243 639 238 636 c 0,51,52
 214 624 214 624 214 610.5 c 128,-1,53
 214 597 214 597 229.5 583.5 c 128,-1,54
 245 570 245 570 245 566 c 2,55,-1
 245 565 l 1,56,57
 237 454 237 454 237 412.5 c 128,-1,58
 237 371 237 371 238.5 364.5 c 128,-1,59
 240 358 240 358 248.5 349 c 128,-1,60
 257 340 257 340 257 335 c 128,-1,61
 257 330 257 330 246.5 314.5 c 128,-1,62
 236 299 236 299 236 286 c 1,63,64
 239 255 239 255 239 237.5 c 128,-1,65
 239 220 239 220 237 218 c 0,66,67
 202 183 202 183 202 158 c 0,68,69
 202 153 202 153 207 144 c 128,-1,70
 212 135 212 135 215.5 135 c 128,-1,71
 219 135 219 135 238 149.5 c 128,-1,72
 257 164 257 164 267 164 c 2,73,-1
 270 164 l 1,74,75
 304 157 304 157 334 157 c 128,-1,76
 364 157 364 157 373 166 c 0,77,78
 406.615384615 199.615384615 406.615384615 199.615384615 427 246.5 c 0,79,80
 432 258 432 258 435 258 c 0,81,82
 463 258 463 258 486.5 234 c 128,-1,83
 510 210 510 210 510 194 c 1,84,85
 504 163 504 163 494.5 151.5 c 128,-1,86
 485 140 485 140 485 133 c 1,0,-1
EndSplineSet
EndChar

StartChar: Lslash
Encoding: 321 321 30
Width: 510
Flags: MW
HStem: -1 21G<162.5 181.5> 5 152<34 102.5> 755 20G<117.5 155.5>
VStem: 26 176 43 159 43 171<609 616.5 598.5 622> 43 215<609 759> 72 130<155.5 215> 72 170
LayerCount: 2
Fore
SplineSet
43 616 m 1,0,-1
 26 704 l 1,1,2
 26 712 26 712 69 743.5 c 128,-1,3
 112 775 112 775 140.5 775 c 128,-1,4
 169 775 169 775 213.5 768 c 128,-1,5
 258 761 258 761 258 754 c 0,6,7
 258 742 258 742 250.5 690.5 c 128,-1,8
 243 639 243 639 238 636 c 0,9,10
 214 624 214 624 214 610.5 c 128,-1,11
 214 597 214 597 229.5 583.5 c 128,-1,12
 245 570 245 570 245 566 c 2,13,-1
 245 565 l 1,14,15
 243 549 243 549 242 531 c 1,16,17
 250 534 250 534 250 538 c 128,-1,18
 250 542 250 542 255.5 544.5 c 128,-1,19
 261 547 261 547 272.5 549.5 c 128,-1,20
 284 552 284 552 290 554 c 1,21,22
 300 545 300 545 307 528 c 1,23,24
 313 504 313 504 313 461 c 1,25,26
 288 461 288 461 288 454 c 0,27,28
 288 451 288 451 263.5 443 c 128,-1,29
 239 435 239 435 239 432 c 2,30,-1
 238 436 l 1,31,32
 237 417 237 417 237 394 c 128,-1,33
 237 371 237 371 238.5 364.5 c 128,-1,34
 240 358 240 358 248.5 349 c 128,-1,35
 257 340 257 340 257 335 c 128,-1,36
 257 330 257 330 246.5 314.5 c 128,-1,37
 236 299 236 299 236 286 c 1,38,39
 239 255 239 255 239 237.5 c 128,-1,40
 239 220 239 220 237 218 c 0,41,42
 202 183 202 183 202 158 c 0,43,44
 202 153 202 153 207 144 c 128,-1,45
 212 135 212 135 215.5 135 c 128,-1,46
 219 135 219 135 238 149.5 c 128,-1,47
 257 164 257 164 267 164 c 2,48,-1
 270 164 l 1,49,50
 304 157 304 157 334 157 c 128,-1,51
 364 157 364 157 373 166 c 0,52,53
 406.615384615 199.615384615 406.615384615 199.615384615 427 246.5 c 0,54,55
 432 258 432 258 435 258 c 0,56,57
 463 258 463 258 486.5 234 c 128,-1,58
 510 210 510 210 510 194 c 1,59,60
 504 163 504 163 494.5 151.5 c 128,-1,61
 485 140 485 140 485 133 c 1,62,-1
 488 114 l 1,63,64
 488 100.103448276 488 100.103448276 471.5 62.5517241379 c 128,-1,65
 455 25 455 25 452 21 c 0,66,67
 441 11 441 11 401 11 c 0,68,69
 325.166666667 11 325.166666667 11 262.5 19 c 2,70,-1
 239 22 l 1,71,72
 222 22 222 22 210 10.5 c 128,-1,73
 198 -1 198 -1 174 -1 c 1,74,-1
 84 5 l 1,75,76
 34 5 34 5 34 17 c 2,77,-1
 34 19 l 1,78,79
 39 36 39 36 39 73 c 1,80,-1
 34 157 l 1,81,-1
 34 158 l 2,82,83
 34 163 34 163 53 177 c 128,-1,84
 72 191 72 191 72 202 c 128,-1,85
 72 213 72 213 63 223 c 128,-1,86
 54 233 54 233 35 239 c 1,87,88
 33 245 33 245 33 251 c 2,89,-1
 39 291 l 2,90,91
 41 305 41 305 41 315.5 c 128,-1,92
 41 326 41 326 39.5 342 c 128,-1,93
 38 358 38 358 38 368 c 1,94,95
 20 363 20 363 17 360 c 0,96,97
 7 347 7 347 -10 347 c 0,98,99
 -13 347 -13 347 -13 348 c 0,100,101
 -27 385 -27 385 -27 433 c 2,102,-1
 -27 437 l 1,103,104
 -23 445 -23 445 13 459 c 1,105,106
 22 461 22 461 32 464 c 1,107,-1
 32 477 l 2,108,109
 32 480 32 480 40 486 c 0,110,111
 55 497.25 55 497.25 55 505 c 1,112,-1
 50 527 l 1,113,114
 43.6 533.4 43.6 533.4 34.8 536.7 c 0,115,116
 20 542.25 20 542.25 20 547.625 c 128,-1,117
 20 553 20 553 31.5 581 c 128,-1,118
 43 609 43 609 43 616 c 1,0,-1
EndSplineSet
EndChar

StartChar: M
Encoding: 77 77 31
Width: 811
Flags: MW
HStem: -21 21G<635 666.5> -11 21G<104.5 117> 764 20G
VStem: 27 161<210 395.5> 49 139<155 395.5> 49 153<171.5 177 32 198.5> 564 171 587 176<107.5 280.5>
LayerCount: 2
Fore
SplineSet
49 655 m 1,0,-1
 45 730 l 2,1,2
 45 736 45 736 94.5 755.5 c 128,-1,3
 144 775 144 775 151 775 c 1,4,-1
 176 764 l 1,5,6
 182 764 182 764 192.5 764.5 c 128,-1,7
 203 765 203 765 225 765.5 c 0,8,9
 275.355555556 766.644444444 275.355555556 766.644444444 274 768 c 1,10,11
 345 754 345 754 345 741 c 0,12,13
 345 714 345 714 351 665.5 c 128,-1,14
 357 617 357 617 369 604 c 1,15,16
 369 602 369 602 356 585 c 128,-1,17
 343 568 343 568 343 553 c 0,18,19
 343 548 343 548 357 542 c 128,-1,20
 371 536 371 536 371 533 c 0,21,22
 381 432 381 432 386.5 423 c 128,-1,23
 392 414 392 414 407 414 c 0,24,25
 411 414 411 414 414 426.5 c 0,26,27
 424.894736842 471.894736842 424.894736842 471.894736842 431 478 c 1,28,29
 442 588 442 588 449 596 c 1,30,31
 479 612 479 612 479 628 c 0,32,33
 479 637 479 637 469 647.5 c 128,-1,34
 459 658 459 658 459 660.5 c 128,-1,35
 459 663 459 663 471 700.5 c 128,-1,36
 483 738 483 738 488.5 743.5 c 128,-1,37
 494 749 494 749 565 766.5 c 128,-1,38
 636 784 636 784 654 784 c 0,39,40
 777 779 777 779 777 762 c 1,41,42
 758 689 758 689 758 678 c 128,-1,43
 758 667 758 667 759 667 c 0,44,45
 768 667 768 667 768 562 c 2,46,-1
 768 544 l 2,47,48
 768 542 768 542 760 537.5 c 0,49,50
 735 523.4375 735 523.4375 735 501 c 0,51,52
 735 500 735 500 750 488.5 c 128,-1,53
 765 477 765 477 765 471 c 2,54,-1
 765 470 l 1,55,56
 755 424 755 424 755 287 c 1,57,-1
 756 223 l 1,58,59
 761 212 761 212 761 186 c 2,60,-1
 761 175 l 2,61,62
 761 172 761 172 747.5 158 c 128,-1,63
 734 144 734 144 734 138 c 0,64,65
 734 124.866666667 734 124.866666667 763 121 c 1,66,67
 763 98 763 98 784 47 c 2,68,-1
 791 30 l 1,69,70
 791 21 791 21 733.5 0 c 128,-1,71
 676 -21 676 -21 642 -21 c 0,72,73
 630 -21 630 -21 590 -4.5 c 128,-1,74
 550 12 550 12 550 20 c 1,75,-1
 566 106 l 1,76,-1
 562 232 l 2,77,78
 562 233 562 233 574.5 246.5 c 128,-1,79
 587 260 587 260 587 269.5 c 128,-1,80
 587 279 587 279 581.5 285.5 c 128,-1,81
 576 292 576 292 570 294.5 c 128,-1,82
 564 297 564 297 564 298 c 0,83,84
 564 310 564 310 576 338 c 1,85,86
 576 364 576 364 572.5 428.5 c 128,-1,87
 569 493 569 493 565 493 c 1,88,-1
 548 485 l 1,89,90
 545 482 545 482 521 381.5 c 128,-1,91
 497 281 497 281 497 276 c 128,-1,92
 497 271 497 271 502 259 c 128,-1,93
 507 247 507 247 507 242.5 c 128,-1,94
 507 238 507 238 501.5 232.5 c 128,-1,95
 496 227 496 227 488 221 c 128,-1,96
 480 215 480 215 478 213 c 1,97,-1
 473 197 l 1,98,99
 473 190 473 190 482 180.5 c 128,-1,100
 491 171 491 171 491 168.5 c 128,-1,101
 491 166 491 166 476.5 145.5 c 128,-1,102
 462 125 462 125 436.5 103 c 128,-1,103
 411 81 411 81 391.5 81 c 128,-1,104
 372 81 372 81 324 95.5 c 128,-1,105
 276 110 276 110 276 118 c 1,106,-1
 267 165 l 2,107,108
 267 166 267 166 274.5 169 c 0,109,110
 296 177.6 296 177.6 296 194 c 0,111,112
 296 205 296 205 275.5 209 c 128,-1,113
 255 213 255 213 255 219 c 0,114,115
 255 285 255 285 220.5 427.5 c 2,116,-1
 209 475 l 2,117,118
 208 475 208 475 208 475.5 c 128,-1,119
 208 476 208 476 207 476 c 2,120,-1
 195 470 l 1,121,122
 188 463 188 463 188 371 c 1,123,-1
 191 224 l 1,124,125
 202 190 202 190 202 179.5 c 128,-1,126
 202 169 202 169 201 168 c 0,127,128
 177 151 177 151 177 132 c 2,129,-1
 177 128 l 2,130,131
 177 123.272727273 177 123.272727273 185.5 118.636363636 c 128,-1,132
 194 114 194 114 196 112 c 0,133,134
 198 108 198 108 198 102 c 2,135,-1
 197 77 l 1,136,-1
 202 37 l 1,137,138
 202 24 202 24 196 23 c 1,139,-1
 157.5 6 l 2,140,141
 119 -11 119 -11 109 -11 c 128,-1,142
 99 -11 99 -11 59.5 3 c 128,-1,143
 20 17 20 17 20 25 c 0,144,145
 20 27 20 27 27 53 c 0,146,147
 49 134.714285714 49 134.714285714 49 197 c 0,148,149
 49 198 49 198 38 204 c 128,-1,150
 27 210 27 210 27 213 c 2,151,-1
 48 318 l 1,152,153
 45 335 45 335 45 480 c 2,154,-1
 45 529 l 2,155,156
 45 530 45 530 51.5 534.5 c 0,157,158
 71 548 71 548 71 558.5 c 128,-1,159
 71 569 71 569 68 575 c 128,-1,160
 65 581 65 581 60.5 585 c 128,-1,161
 56 589 56 589 51.5 592 c 128,-1,162
 47 595 47 595 44.5 596.5 c 128,-1,163
 42 598 42 598 45.5 607 c 128,-1,164
 49 616 49 616 49 655 c 1,0,-1
EndSplineSet
EndChar

StartChar: N
Encoding: 78 78 32
Width: 614
Flags: MW
HStem: -23 21G<111.5 123> -11 21G<445 475.5> 780 20G<509.5 529>
VStem: 31 184<6 121> 58 143<250 356.5> 77 124<313 401> 322 250 416 156<588 751.5> 435 133<319 416 319 433.5>
LayerCount: 2
Fore
SplineSet
565 520 m 2,0,-1
 571 493 l 1,1,2
 568 405 568 405 568 341.5 c 128,-1,3
 568 278 568 278 571 261 c 1,4,5
 546 236 546 236 546 218 c 1,6,7
 580 196 580 196 580 183 c 0,8,9
 580 180 580 180 574.5 174.5 c 128,-1,10
 569 169 569 169 569 150.5 c 128,-1,11
 569 132 569 132 574.5 105.5 c 128,-1,12
 580 79 580 79 586 65.5 c 2,13,-1
 592 52 l 1,14,-1
 592 51 l 2,15,16
 592 46 592 46 568 31 c 128,-1,17
 544 16 544 16 508.5 2.5 c 128,-1,18
 473 -11 473 -11 455 -11 c 128,-1,19
 437 -11 437 -11 379.5 -1 c 128,-1,20
 322 9 322 9 322 16 c 0,21,22
 322 44 322 44 313 87 c 128,-1,23
 304 130 304 130 295 152 c 1,24,-1
 289 163 l 2,25,26
 289 164 289 164 292.5 168.5 c 0,27,28
 304 183.285714286 304 183.285714286 304 193.642857143 c 128,-1,29
 304 204 304 204 297.5 209 c 128,-1,30
 291 214 291 214 282.5 218 c 128,-1,31
 274 222 274 222 272 224 c 1,32,33
 272 255 272 255 240.5 361.5 c 2,34,-1
 230 397 l 1,35,36
 223.888888889 403.111111111 223.888888889 403.111111111 205 405 c 1,37,38
 201 401 201 401 201 339 c 2,39,-1
 203 187 l 1,40,-1
 202 172 l 1,41,42
 195 165 195 165 189.5 152 c 128,-1,43
 184 139 184 139 184 135 c 0,44,45
 184 123.066666667 184 123.066666667 215 121 c 1,46,47
 215 105 215 105 222 72 c 128,-1,48
 229 39 229 39 229 35.5 c 0,49,50
 229 27 229 27 216.5 21.5 c 0,51,52
 173.078947368 2.39473684211 173.078947368 2.39473684211 144 -13 c 2,53,-1
 127 -22 l 2,54,55
 126 -23 126 -23 116.5 -23 c 128,-1,56
 107 -23 107 -23 69 -9.5 c 128,-1,57
 31 4 31 4 31 9 c 0,58,59
 31 61 31 61 49 116.5 c 2,60,-1
 55 135 l 1,61,62
 54 136 54 136 54 145 c 2,63,-1
 58 269 l 2,64,65
 58 298 58 298 55 301 c 128,-1,66
 52 304 52 304 52 329 c 2,67,-1
 53 361 l 2,68,69
 53 362 53 362 59 366 c 0,70,71
 77 378 77 378 77 396 c 0,72,73
 77 403.222222222 77 403.222222222 57 421 c 2,74,-1
 48 429 l 2,75,76
 46 431 46 431 46 441 c 2,77,-1
 51 497 l 1,78,-1
 42 558 l 2,79,80
 42 559 42 559 50 569 c 128,-1,81
 58 579 58 579 58 587 c 128,-1,82
 58 595 58 595 39 654.5 c 128,-1,83
 20 714 20 714 20 718.5 c 128,-1,84
 20 723 20 723 51 742.5 c 128,-1,85
 82 762 82 762 91 762 c 2,86,-1
 96 762 l 2,87,88
 151 762 151 762 162 770 c 1,89,90
 176 771 176 771 196 771 c 0,91,92
 300 771 300 771 317 754 c 1,93,94
 335 689 335 689 335 676 c 2,95,-1
 335 674 l 1,96,97
 315 658 315 658 315 633 c 0,98,99
 315 629 315 629 338.5 623 c 128,-1,100
 362 617 362 617 362 606 c 1,101,-1
 358 571 l 1,102,103
 358 558 358 558 384.5 485 c 128,-1,104
 411 412 411 412 416 407 c 1,105,106
 424 402 424 402 429.5 402 c 128,-1,107
 435 402 435 402 435 407 c 2,108,-1
 435 416 l 2,109,110
 435 565 435 565 419 583 c 1,111,112
 419 587 419 587 429 600.5 c 128,-1,113
 439 614 439 614 439 619 c 1,114,115
 433 641 433 641 414 660 c 0,116,117
 412 662 412 662 412 667 c 128,-1,118
 412 672 412 672 419.5 686.5 c 128,-1,119
 427 701 427 701 427 705 c 2,120,-1
 416 750 l 2,121,122
 416 752 416 752 435.5 764 c 0,123,124
 494 800 494 800 529 800 c 1,125,126
 594 798 594 798 594 788 c 1,127,128
 572 645 572 645 572 588 c 1,129,130
 592 566 592 566 592 558 c 128,-1,131
 592 550 592 550 578.5 536 c 128,-1,132
 565 522 565 522 565 520 c 2,0,-1
EndSplineSet
EndChar

StartChar: Ntilde
Encoding: 209 209 33
Width: 614
Flags: MW
HStem: -23 21G<111.5 123> -11 21G<445 475.5> 829 73<276.5 311>
VStem: 58 143<250 356.5> 77 124<313 401> 435 137
LayerCount: 2
Fore
SplineSet
469 843 m 0,0,1
 469 836 469 836 434.5 814.5 c 128,-1,2
 400 793 400 793 390 793 c 128,-1,3
 380 793 380 793 345.5 811 c 128,-1,4
 311 829 311 829 303 829 c 128,-1,5
 295 829 295 829 260 818 c 128,-1,6
 225 807 225 807 222.5 807 c 128,-1,7
 220 807 220 807 213.5 826.5 c 128,-1,8
 207 846 207 846 207 856 c 1,9,10
 272 902 272 902 284.5 902 c 128,-1,11
 297 902 297 902 343 885.5 c 128,-1,12
 389 869 389 869 393.5 869 c 128,-1,13
 398 869 398 869 423.5 880 c 128,-1,14
 449 891 449 891 452 891 c 128,-1,15
 455 891 455 891 462 875 c 128,-1,16
 469 859 469 859 469 843 c 0,0,1
203 187 m 2,17,-1
 201 339 l 2,18,19
 201 401 201 401 205 405 c 1,20,21
 224 403 224 403 230 397 c 1,22,23
 272 259 272 259 272 224 c 1,24,25
 274 222 274 222 282.5 218 c 0,26,27
 304 207.882352941 304 207.882352941 304 198.441176471 c 128,-1,28
 304 189 304 189 300 181 c 128,-1,29
 296 173 296 173 292.5 168.5 c 128,-1,30
 289 164 289 164 289 163 c 2,31,-1
 295 152 l 1,32,33
 304 130 304 130 313 87 c 128,-1,34
 322 44 322 44 322 16 c 0,35,36
 322 9 322 9 379.5 -1 c 128,-1,37
 437 -11 437 -11 455 -11 c 128,-1,38
 473 -11 473 -11 508.5 2.5 c 128,-1,39
 544 16 544 16 568 31 c 128,-1,40
 592 46 592 46 592 51 c 2,41,-1
 592 52 l 1,42,43
 569 99 569 99 569 158 c 0,44,45
 569 166.75 569 166.75 574.5 173.375 c 128,-1,46
 580 180 580 180 580 184.5 c 0,47,48
 580 194 580 194 554.5 212 c 2,49,-1
 546 218 l 1,50,51
 546 236 546 236 571 261 c 1,52,53
 568 278 568 278 568 336 c 1,54,-1
 571 493 l 1,55,-1
 565 520 l 2,56,57
 565 522 565 522 578.5 536 c 128,-1,58
 592 550 592 550 592 557 c 128,-1,59
 592 564 592 564 572 588 c 1,60,61
 572 638 572 638 588.5 750.5 c 2,62,-1
 594 788 l 1,63,64
 594 796.060606061 594 796.060606061 545.5 799 c 2,65,-1
 529 800 l 1,66,67
 494 800 494 800 435.5 764 c 0,68,69
 416 752 416 752 416 750 c 2,70,-1
 427 705 l 2,71,72
 427 701 427 701 419.5 686.5 c 128,-1,73
 412 672 412 672 412 667 c 128,-1,74
 412 662 412 662 417 657 c 0,75,76
 431 643 431 643 439 619 c 1,77,78
 439 614 439 614 429 600.5 c 128,-1,79
 419 587 419 587 419 583 c 1,80,81
 435 565 435 565 435 416 c 2,82,-1
 435 407 l 2,83,84
 435 402 435 402 430 402 c 1,85,-1
 416 407 l 1,86,87
 411 412 411 412 384.5 485 c 128,-1,88
 358 558 358 558 358 571 c 1,89,-1
 362 606 l 1,90,91
 362 617 362 617 338.5 623 c 128,-1,92
 315 629 315 629 315 633 c 0,93,94
 315 656 315 656 335 674 c 1,95,-1
 335 676 l 1,96,-1
 317 754 l 1,97,98
 300 771 300 771 196 771 c 1,99,-1
 162 770 l 1,100,101
 151 762 151 762 96 762 c 2,102,-1
 91 762 l 2,103,104
 82 762 82 762 51 742.5 c 128,-1,105
 20 723 20 723 20 718.5 c 128,-1,106
 20 714 20 714 39 654.5 c 128,-1,107
 58 595 58 595 58 587 c 128,-1,108
 58 579 58 579 50 569 c 128,-1,109
 42 559 42 559 42 558 c 0,110,111
 51 511 51 511 51 497 c 1,112,113
 46 461 46 461 46 446 c 128,-1,114
 46 431 46 431 48 429 c 2,115,-1
 57 421 l 2,116,117
 77 403.222222222 77 403.222222222 77 394.611111111 c 128,-1,118
 77 386 77 386 71 378 c 128,-1,119
 65 370 65 370 59 366 c 128,-1,120
 53 362 53 362 53 361 c 0,121,122
 52 345 52 345 52 324.5 c 128,-1,123
 52 304 52 304 55 301 c 128,-1,124
 58 298 58 298 58 269 c 2,125,-1
 54 145 l 2,126,127
 54 136 54 136 55 135 c 1,128,129
 31 67 31 67 31 9 c 0,130,131
 31 4 31 4 69 -9.5 c 128,-1,132
 107 -23 107 -23 116.5 -23 c 128,-1,133
 126 -23 126 -23 127 -22 c 0,134,135
 192 13 192 13 213 19 c 1,136,137
 229 26 229 26 229 36 c 0,138,139
 229 39 229 39 222 72 c 128,-1,140
 215 105 215 105 215 121 c 1,141,142
 184 121 184 121 184 135 c 0,143,144
 184 139 184 139 189.5 152 c 128,-1,145
 195 165 195 165 202 172 c 1,146,147
 203 178 203 178 203 187 c 2,17,-1
EndSplineSet
EndChar

StartChar: O
Encoding: 79 79 34
Width: 590
Flags: MW
HStem: -19 21G 757 20G
VStem: 10 235<180.5 347> 44 201 73 172<154 203.5> 341 191<199.5 233.5> 362 170<215.5 291.5> 362 190<2 189 164.5 291.5> 362 218<277.5 433>
LayerCount: 2
Fore
SplineSet
248 585 m 1,0,-1
 264 539 l 2,1,2
 264 537 264 537 249 519 c 128,-1,3
 234 501 234 501 234 492.5 c 128,-1,4
 234 484 234 484 247.5 473 c 128,-1,5
 261 462 261 462 261 456 c 1,6,7
 238 344 238 344 238 294 c 0,8,9
 238 283 238 283 262 259 c 0,10,11
 264 257 264 257 264 251.5 c 128,-1,12
 264 246 264 246 254.5 224.5 c 128,-1,13
 245 203 245 203 245 199 c 0,14,15
 245 172 245 172 269 144 c 128,-1,16
 293 116 293 116 314 116 c 0,17,18
 327.1 116 327.1 116 336.55 126.5 c 128,-1,19
 346 137 346 137 354.5 147 c 2,20,-1
 363 157 l 2,21,22
 364 158 364 158 364 160 c 128,-1,23
 364 162 364 162 352.5 180.5 c 128,-1,24
 341 199 341 199 341 206 c 128,-1,25
 341 213 341 213 351.5 244.5 c 128,-1,26
 362 276 362 276 362 290 c 1,27,-1
 346 306 l 2,28,29
 345 307 345 307 345 312 c 2,30,-1
 345 314 l 2,31,32
 345 331 345 331 338 338 c 1,33,-1
 337 341 l 1,34,35
 339 351 339 351 361 377 c 0,36,37
 366 382 366 382 366 418 c 1,38,-1
 361 515 l 2,39,40
 361 524 361 524 345.5 536 c 128,-1,41
 330 548 330 548 330 551 c 0,42,43
 330 576.666666667 330 576.666666667 344.5 610.5 c 2,44,-1
 349 621 l 1,45,46
 349 633 349 633 322 648 c 2,47,-1
 313 653 l 1,48,49
 296 653 296 653 272 628.5 c 128,-1,50
 248 604 248 604 248 585 c 1,0,-1
532 227 m 0,51,52
 532 207 532 207 552 189 c 1,53,54
 552 167 552 167 537 133.5 c 128,-1,55
 522 100 522 100 505.5 77 c 128,-1,56
 489 54 489 54 484 54 c 0,57,58
 461 54 461 54 430.5 41 c 128,-1,59
 400 28 400 28 381 15 c 2,60,-1
 362 2 l 1,61,62
 351.545851528 -6.71179039301 351.545851528 -6.71179039301 269.5 -16 c 2,63,-1
 243 -19 l 1,64,65
 201 -19 201 -19 156 16.5 c 128,-1,66
 111 52 111 52 87.5 85 c 128,-1,67
 64 118 64 118 64 122 c 128,-1,68
 64 126 64 126 68.5 139 c 128,-1,69
 73 152 73 152 73 164 c 0,70,71
 73 188 73 188 42 188 c 1,72,-1
 34 187 l 2,73,74
 26 187 26 187 14 293.5 c 2,75,-1
 10 329 l 1,76,-1
 22 465 l 2,77,78
 22 468 22 468 34 485 c 128,-1,79
 46 502 46 502 46 506 c 2,80,-1
 44 592 l 2,81,82
 44 631 44 631 47 635 c 0,83,84
 60 653 60 653 130 705 c 128,-1,85
 200 757 200 757 235 757 c 1,86,87
 242 774 242 774 250 774 c 0,88,89
 300 777 300 777 366.5 777 c 128,-1,90
 433 777 433 777 444 766 c 0,91,92
 445 765 445 765 467 745 c 128,-1,93
 489 725 489 725 504 710 c 128,-1,94
 519 695 519 695 533.5 673 c 128,-1,95
 548 651 548 651 548 636 c 1,96,-1
 528 611 l 1,97,98
 539 588 539 588 559.5 514.5 c 128,-1,99
 580 441 580 441 580 409 c 0,100,101
 576 253 576 253 565 253 c 1,102,103
 532 240 532 240 532 227 c 0,51,52
EndSplineSet
EndChar

StartChar: OE
Encoding: 338 338 35
Width: 849
Flags: MW
HStem: -20 21G -8 138 6 124<504.5 678.5> 351 114<572 678> 666 83<596.5 691.5> 666 102<649 765> 759 20G<334.5 383.5>
VStem: 10 235<179.5 345> 44 201 73 172<152.5 202> 346 231<203.5 293> 367 210<281 293 248.5 295>
LayerCount: 2
Fore
SplineSet
247 584 m 1,0,-1
 263 537 l 2,1,2
 263 535 263 535 248.5 517.5 c 128,-1,3
 234 500 234 500 234 491 c 128,-1,4
 234 482 234 482 247.5 471 c 128,-1,5
 261 460 261 460 261 454 c 1,6,7
 238 343 238 343 238 292 c 0,8,9
 238 281 238 281 249 270 c 2,10,-1
 262 257 l 2,11,12
 264 255 264 255 264 250 c 128,-1,13
 264 245 264 245 254.5 223 c 128,-1,14
 245 201 245 201 245 198 c 0,15,16
 245 171 245 171 269 142.5 c 128,-1,17
 293 114 293 114 314 114 c 0,18,19
 325 114 325 114 344.5 134 c 128,-1,20
 364 154 364 154 364 158 c 128,-1,21
 364 162 364 162 355 182.5 c 128,-1,22
 346 203 346 203 346 210 c 128,-1,23
 346 217 346 217 356.5 248.5 c 128,-1,24
 367 280 367 280 367 287.5 c 128,-1,25
 367 295 367 295 364.5 297.5 c 128,-1,26
 362 300 362 300 357.5 303.5 c 0,27,28
 350 309.333333333 350 309.333333333 350 315 c 2,29,-1
 350 317 l 2,30,31
 350 333 350 333 342 344 c 1,32,33
 342 353 342 353 366 381 c 0,34,35
 371 386 371 386 371 422 c 1,36,-1
 366 519 l 2,37,38
 366 528 366 528 350.5 539.5 c 128,-1,39
 335 551 335 551 335 554 c 0,40,41
 335 582 335 582 345.5 610.5 c 2,42,-1
 349 620 l 1,43,44
 349 632 349 632 322 647 c 2,45,-1
 313 652 l 1,46,47
 296 652 296 652 271.5 627 c 128,-1,48
 247 602 247 602 247 584 c 1,0,-1
572 1 m 1,49,-1
 531 6 l 1,50,51
 490 6 490 6 455 -1 c 128,-1,52
 420 -8 420 -8 415.5 -8 c 128,-1,53
 411 -8 411 -8 392 0.5 c 128,-1,54
 373 9 373 9 369 10 c 1,55,56
 355 -6 355 -6 271 -16.5 c 2,57,-1
 243 -20 l 1,58,59
 172.348837209 -20 172.348837209 -20 99.5 69.5 c 0,60,61
 64 113.114285714 64 113.114285714 64 123 c 0,62,63
 64 125 64 125 68.5 138 c 128,-1,64
 73 151 73 151 73 163 c 0,65,66
 73 186 73 186 44 186 c 1,67,-1
 34 185 l 2,68,69
 26 185 26 185 14 291.5 c 2,70,-1
 10 327 l 1,71,-1
 22 463 l 2,72,73
 22 467 22 467 34 483.5 c 128,-1,74
 46 500 46 500 46 504 c 2,75,-1
 44 591 l 2,76,77
 44 629 44 629 47 633 c 0,78,79
 60 651 60 651 130 703.5 c 128,-1,80
 200 756 200 756 235 756 c 1,81,82
 242 772 242 772 250 772 c 0,83,84
 307 779 307 779 374.5 779 c 128,-1,85
 442 779 442 779 461 760 c 1,86,87
 500 770 500 770 567 770 c 0,88,89
 580 770 580 770 589 759.5 c 128,-1,90
 598 749 598 749 604.5 749 c 128,-1,91
 611 749 611 749 663.5 758.5 c 128,-1,92
 716 768 716 768 767 768 c 128,-1,93
 818 768 818 768 818 752 c 0,94,95
 818 723 818 723 806.5 674.5 c 128,-1,96
 795 626 795 626 786 617 c 128,-1,97
 777 608 777 608 739 608 c 0,98,99
 735 608 735 608 728.5 622.5 c 128,-1,100
 722 637 722 637 704.5 651.5 c 128,-1,101
 687 666 687 666 666.5 666 c 128,-1,102
 646 666 646 666 621.5 657.5 c 128,-1,103
 597 649 597 649 591 643.5 c 128,-1,104
 585 638 585 638 585 593 c 128,-1,105
 585 548 585 548 590 526 c 1,106,-1
 590 524 l 2,107,108
 590 516 590 516 575.5 512 c 0,109,110
 549 504.689655172 549 504.689655172 549 471 c 0,111,112
 549 465 549 465 582 465 c 1,113,-1
 743 474 l 1,114,115
 774 474 774 474 774 466 c 0,116,117
 774 439 774 439 750.5 386 c 128,-1,118
 727 333 727 333 714 333 c 0,119,120
 712 333 712 333 705.5 337.5 c 0,121,122
 686 351 686 351 662 351 c 0,123,124
 589 351 589 351 583 345 c 128,-1,125
 577 339 577 339 577 250.5 c 128,-1,126
 577 162 577 162 593 146 c 128,-1,127
 609 130 609 130 659.5 130 c 128,-1,128
 710 130 710 130 723.5 143.5 c 128,-1,129
 737 157 737 157 751.5 180 c 128,-1,130
 766 203 766 203 775 219.5 c 128,-1,131
 784 236 784 236 785 236 c 0,132,133
 794 236 794 236 819 210.5 c 128,-1,134
 844 185 844 185 844 174 c 128,-1,135
 844 163 844 163 823 92 c 128,-1,136
 802 21 802 21 793 12 c 1,137,138
 789 10 789 10 786 10 c 2,139,-1
 728 16 l 1,140,141
 692 16 692 16 668 14 c 128,-1,142
 644 12 644 12 640.5 12 c 128,-1,143
 637 12 637 12 624.5 18 c 128,-1,144
 612 24 612 24 606 24 c 128,-1,145
 600 24 600 24 597 21 c 128,-1,146
 594 18 594 18 590.5 13 c 0,147,148
 582.1 1 582.1 1 572 1 c 1,49,-1
EndSplineSet
EndChar

StartChar: Oacute
Encoding: 211 211 36
Width: 590
Flags: MW
HStem: -19 21G 777 183<331.5 347.5 331.5 371.5>
VStem: 10 228<287.5 347> 44 190<483.5 602.5> 44 220 73 165<154 319> 366 166 366 182 366 214<409 433 409 438.5>
LayerCount: 2
Fore
SplineSet
329 868 m 1,0,-1
 331 853 l 2,1,2
 331 850 331 850 322 847 c 128,-1,3
 313 844 313 844 290 824.5 c 128,-1,4
 267 805 267 805 262.5 800 c 128,-1,5
 258 795 258 795 253 795 c 128,-1,6
 248 795 248 795 228.5 811 c 128,-1,7
 209 827 209 827 209 835.5 c 128,-1,8
 209 844 209 844 234 875.5 c 128,-1,9
 259 907 259 907 259 909 c 0,10,11
 260 921 260 921 260 922 c 0,12,13
 284 952 284 952 285.5 953.5 c 128,-1,14
 287 955 287 955 307.5 957.5 c 128,-1,15
 328 960 328 960 340 960 c 128,-1,16
 352 960 352 960 376.5 943 c 128,-1,17
 401 926 401 926 401 917 c 0,18,19
 401 914 401 914 393 908.5 c 0,20,21
 361.784313725 887.039215686 361.784313725 887.039215686 353 877 c 0,22,23
 352 876 352 876 340.5 876 c 128,-1,24
 329 876 329 876 329 868 c 1,0,-1
248 585 m 1,25,-1
 264 539 l 2,26,27
 264 537 264 537 249 519 c 128,-1,28
 234 501 234 501 234 492.5 c 128,-1,29
 234 484 234 484 247.5 473 c 128,-1,30
 261 462 261 462 261 456 c 1,31,32
 238 344 238 344 238 294 c 0,33,34
 238 283 238 283 262 259 c 0,35,36
 264 257 264 257 264 251.5 c 128,-1,37
 264 246 264 246 254.5 224.5 c 128,-1,38
 245 203 245 203 245 199 c 0,39,40
 245 172 245 172 269 144 c 128,-1,41
 293 116 293 116 314 116 c 0,42,43
 327.1 116 327.1 116 336.55 126.5 c 128,-1,44
 346 137 346 137 354.5 147 c 2,45,-1
 363 157 l 2,46,47
 364 158 364 158 364 160 c 128,-1,48
 364 162 364 162 352.5 180.5 c 128,-1,49
 341 199 341 199 341 206 c 128,-1,50
 341 213 341 213 351.5 244.5 c 128,-1,51
 362 276 362 276 362 290 c 1,52,-1
 346 306 l 2,53,54
 345 307 345 307 345 312 c 2,55,-1
 345 314 l 2,56,57
 345 331 345 331 338 338 c 1,58,-1
 337 341 l 1,59,60
 339 351 339 351 361 377 c 0,61,62
 366 382 366 382 366 418 c 1,63,-1
 361 515 l 2,64,65
 361 524 361 524 345.5 536 c 128,-1,66
 330 548 330 548 330 551 c 0,67,68
 330 576.666666667 330 576.666666667 344.5 610.5 c 2,69,-1
 349 621 l 1,70,71
 349 633 349 633 322 648 c 2,72,-1
 313 653 l 1,73,74
 296 653 296 653 272 628.5 c 128,-1,75
 248 604 248 604 248 585 c 1,25,-1
532 227 m 0,76,77
 532 207 532 207 552 189 c 1,78,79
 552 167 552 167 537 133.5 c 128,-1,80
 522 100 522 100 505.5 77 c 128,-1,81
 489 54 489 54 484 54 c 0,82,83
 461 54 461 54 430.5 41 c 128,-1,84
 400 28 400 28 381 15 c 2,85,-1
 362 2 l 1,86,87
 351.545851528 -6.71179039301 351.545851528 -6.71179039301 269.5 -16 c 2,88,-1
 243 -19 l 1,89,90
 201 -19 201 -19 156 16.5 c 128,-1,91
 111 52 111 52 87.5 85 c 128,-1,92
 64 118 64 118 64 122 c 128,-1,93
 64 126 64 126 68.5 139 c 128,-1,94
 73 152 73 152 73 164 c 0,95,96
 73 188 73 188 42 188 c 1,97,-1
 34 187 l 2,98,99
 26 187 26 187 14 293.5 c 2,100,-1
 10 329 l 1,101,-1
 22 465 l 2,102,103
 22 468 22 468 34 485 c 128,-1,104
 46 502 46 502 46 506 c 2,105,-1
 44 592 l 2,106,107
 44 631 44 631 47 635 c 0,108,109
 60 653 60 653 130 705 c 128,-1,110
 200 757 200 757 235 757 c 1,111,112
 242 774 242 774 250 774 c 0,113,114
 300 777 300 777 366.5 777 c 128,-1,115
 433 777 433 777 444 766 c 0,116,117
 445 765 445 765 467 745 c 128,-1,118
 489 725 489 725 504 710 c 128,-1,119
 519 695 519 695 533.5 673 c 128,-1,120
 548 651 548 651 548 636 c 1,121,-1
 528 611 l 1,122,123
 539 588 539 588 559.5 514.5 c 128,-1,124
 580 441 580 441 580 409 c 0,125,126
 576 253 576 253 565 253 c 1,127,128
 532 240 532 240 532 227 c 0,76,77
EndSplineSet
EndChar

StartChar: Ocircumflex
Encoding: 212 212 37
Width: 590
Flags: MW
HStem: -19 21G 800 164<191 370> 840 124<249.5 370>
VStem: 10 235<180.5 347> 44 201 73 172<154 203.5> 362 170<215.5 291.5> 362 190<2 189 164.5 291.5> 362 218<277.5 433>
LayerCount: 2
Fore
SplineSet
213 913 m 1,0,-1
 209 933 l 1,1,2
 227 962 227 962 234 962 c 2,3,-1
 255 962 l 2,4,5
 285 962 285 962 287 959 c 1,6,7
 305 944 305 944 307.5 944 c 128,-1,8
 310 944 310 944 332 959 c 1,9,10
 334 964 334 964 356 964 c 128,-1,11
 378 964 378 964 381.5 961 c 128,-1,12
 385 958 385 958 401 932.5 c 128,-1,13
 417 907 417 907 417 903 c 1,14,15
 414 892 414 892 414 882 c 128,-1,16
 414 872 414 872 435 872 c 1,17,18
 462 838 462 838 462 834.5 c 128,-1,19
 462 831 462 831 460 829 c 128,-1,20
 458 827 458 827 455 825 c 128,-1,21
 452 823 452 823 446.5 817.5 c 128,-1,22
 441 812 441 812 429.5 806.5 c 128,-1,23
 418 801 418 801 406 799 c 1,24,25
 383 799 383 799 383 803 c 1,26,-1
 345 848 l 1,27,28
 328 851.4 328 851.4 328 856 c 0,29,30
 328 869 328 869 319 883.5 c 128,-1,31
 310 898 310 898 304 898 c 0,32,33
 299 898 299 898 276.5 869.5 c 2,34,-1
 269 860 l 1,35,36
 269 844 269 844 263 840 c 1,37,38
 247 840 247 840 228.5 820 c 128,-1,39
 210 800 210 800 209 800 c 0,40,41
 193 800 193 800 177.5 807.5 c 128,-1,42
 162 815 162 815 154.5 822 c 128,-1,43
 147 829 147 829 147 831 c 1,44,-1
 166.5 862 l 2,45,46
 186 893 186 893 186 898 c 1,47,48
 213 904 213 904 213 913 c 1,0,-1
248 585 m 1,49,-1
 264 539 l 2,50,51
 264 537 264 537 249 519 c 128,-1,52
 234 501 234 501 234 492.5 c 128,-1,53
 234 484 234 484 247.5 473 c 128,-1,54
 261 462 261 462 261 456 c 1,55,56
 238 344 238 344 238 294 c 0,57,58
 238 283 238 283 262 259 c 0,59,60
 264 257 264 257 264 251.5 c 128,-1,61
 264 246 264 246 254.5 224.5 c 128,-1,62
 245 203 245 203 245 199 c 0,63,64
 245 172 245 172 269 144 c 128,-1,65
 293 116 293 116 314 116 c 0,66,67
 327.1 116 327.1 116 336.55 126.5 c 128,-1,68
 346 137 346 137 354.5 147 c 2,69,-1
 363 157 l 2,70,71
 364 158 364 158 364 160 c 128,-1,72
 364 162 364 162 352.5 180.5 c 128,-1,73
 341 199 341 199 341 206 c 128,-1,74
 341 213 341 213 351.5 244.5 c 128,-1,75
 362 276 362 276 362 290 c 1,76,-1
 346 306 l 2,77,78
 345 307 345 307 345 312 c 2,79,-1
 345 314 l 2,80,81
 345 331 345 331 338 338 c 1,82,-1
 337 341 l 1,83,84
 339 351 339 351 361 377 c 0,85,86
 366 382 366 382 366 418 c 1,87,-1
 361 515 l 2,88,89
 361 524 361 524 345.5 536 c 128,-1,90
 330 548 330 548 330 551 c 0,91,92
 330 576.666666667 330 576.666666667 344.5 610.5 c 2,93,-1
 349 621 l 1,94,95
 349 633 349 633 322 648 c 2,96,-1
 313 653 l 1,97,98
 296 653 296 653 272 628.5 c 128,-1,99
 248 604 248 604 248 585 c 1,49,-1
532 227 m 0,100,101
 532 207 532 207 552 189 c 1,102,103
 552 167 552 167 537 133.5 c 128,-1,104
 522 100 522 100 505.5 77 c 128,-1,105
 489 54 489 54 484 54 c 0,106,107
 461 54 461 54 430.5 41 c 128,-1,108
 400 28 400 28 381 15 c 2,109,-1
 362 2 l 1,110,111
 351.545851528 -6.71179039301 351.545851528 -6.71179039301 269.5 -16 c 2,112,-1
 243 -19 l 1,113,114
 201 -19 201 -19 156 16.5 c 128,-1,115
 111 52 111 52 87.5 85 c 128,-1,116
 64 118 64 118 64 122 c 128,-1,117
 64 126 64 126 68.5 139 c 128,-1,118
 73 152 73 152 73 164 c 0,119,120
 73 188 73 188 42 188 c 1,121,-1
 34 187 l 2,122,123
 26 187 26 187 14 293.5 c 2,124,-1
 10 329 l 1,125,-1
 22 465 l 2,126,127
 22 468 22 468 34 485 c 128,-1,128
 46 502 46 502 46 506 c 2,129,-1
 44 592 l 2,130,131
 44 631 44 631 47 635 c 0,132,133
 60 653 60 653 130 705 c 128,-1,134
 200 757 200 757 235 757 c 1,135,136
 242 774 242 774 250 774 c 0,137,138
 300 777 300 777 366.5 777 c 128,-1,139
 433 777 433 777 444 766 c 0,140,141
 445 765 445 765 467 745 c 128,-1,142
 489 725 489 725 504 710 c 128,-1,143
 519 695 519 695 533.5 673 c 128,-1,144
 548 651 548 651 548 636 c 1,145,-1
 528 611 l 1,146,147
 539 588 539 588 559.5 514.5 c 128,-1,148
 580 441 580 441 580 409 c 0,149,150
 576 253 576 253 565 253 c 1,151,152
 532 240 532 240 532 227 c 0,100,101
EndSplineSet
EndChar

StartChar: Odieresis
Encoding: 214 214 38
Width: 590
Flags: MW
HStem: -19 21G 923 20G<208.5 217.5 416 420>
VStem: 10 235<180.5 347> 44 201 73 172<154 203.5> 265 206<866.5 923.5> 337 134<850 923.5> 362 170<215.5 291.5> 362 190<2 189 164.5 291.5> 362 218<277.5 433>
LayerCount: 2
Fore
SplineSet
265 889 m 0,0,1
 265 869 265 869 259.5 853.5 c 128,-1,2
 254 838 254 838 244 828 c 1,3,4
 236 822 236 822 216 815.5 c 128,-1,5
 196 809 196 809 177.5 809 c 128,-1,6
 159 809 159 809 151 817 c 0,7,8
 150 818 150 818 150 827.5 c 0,9,10
 150 843 150 843 139 843 c 2,11,-1
 133 843 l 2,12,13
 129 843 129 843 126 845.5 c 128,-1,14
 123 848 123 848 123 872.5 c 128,-1,15
 123 897 123 897 124.5 899.5 c 128,-1,16
 126 902 126 902 136.5 913 c 128,-1,17
 147 924 147 924 158 930 c 1,18,19
 201 943 201 943 211 943 c 128,-1,20
 221 943 221 943 235.5 938.5 c 128,-1,21
 250 934 250 934 250 930 c 1,22,23
 246 920 246 920 246 911 c 1,24,25
 265 895 265 895 265 889 c 0,0,1
487 876 m 0,26,27
 486 846 486 846 477 837 c 128,-1,28
 468 828 468 828 463 828 c 128,-1,29
 458 828 458 828 443 814.5 c 128,-1,30
 428 801 428 801 426 801 c 2,31,-1
 383 807 l 1,32,33
 369.375 811.541666667 369.375 811.541666667 340 837 c 0,34,35
 337 840 337 840 337 855 c 128,-1,36
 337 870 337 870 340.5 888 c 128,-1,37
 344 906 344 906 348 906 c 0,38,39
 361 906 361 906 402 939 c 1,40,41
 412 943 412 943 420 943 c 1,42,43
 471 931 471 931 471 916 c 1,44,45
 465 907 465 907 465 901.5 c 128,-1,46
 465 896 465 896 476 889 c 128,-1,47
 487 882 487 882 487 876 c 0,26,27
248 585 m 1,48,-1
 264 539 l 2,49,50
 264 537 264 537 249 519 c 128,-1,51
 234 501 234 501 234 492.5 c 128,-1,52
 234 484 234 484 247.5 473 c 128,-1,53
 261 462 261 462 261 456 c 1,54,55
 238 344 238 344 238 294 c 0,56,57
 238 283 238 283 262 259 c 0,58,59
 264 257 264 257 264 251.5 c 128,-1,60
 264 246 264 246 254.5 224.5 c 128,-1,61
 245 203 245 203 245 199 c 0,62,63
 245 172 245 172 269 144 c 128,-1,64
 293 116 293 116 314 116 c 0,65,66
 327.1 116 327.1 116 336.55 126.5 c 128,-1,67
 346 137 346 137 354.5 147 c 2,68,-1
 363 157 l 2,69,70
 364 158 364 158 364 160 c 128,-1,71
 364 162 364 162 352.5 180.5 c 128,-1,72
 341 199 341 199 341 206 c 128,-1,73
 341 213 341 213 351.5 244.5 c 128,-1,74
 362 276 362 276 362 290 c 1,75,-1
 346 306 l 2,76,77
 345 307 345 307 345 312 c 2,78,-1
 345 314 l 2,79,80
 345 331 345 331 338 338 c 1,81,-1
 337 341 l 1,82,83
 339 351 339 351 361 377 c 0,84,85
 366 382 366 382 366 418 c 1,86,-1
 361 515 l 2,87,88
 361 524 361 524 345.5 536 c 128,-1,89
 330 548 330 548 330 551 c 0,90,91
 330 576.666666667 330 576.666666667 344.5 610.5 c 2,92,-1
 349 621 l 1,93,94
 349 633 349 633 322 648 c 2,95,-1
 313 653 l 1,96,97
 296 653 296 653 272 628.5 c 128,-1,98
 248 604 248 604 248 585 c 1,48,-1
532 227 m 0,99,100
 532 207 532 207 552 189 c 1,101,102
 552 167 552 167 537 133.5 c 128,-1,103
 522 100 522 100 505.5 77 c 128,-1,104
 489 54 489 54 484 54 c 0,105,106
 461 54 461 54 430.5 41 c 128,-1,107
 400 28 400 28 381 15 c 2,108,-1
 362 2 l 1,109,110
 351.545851528 -6.71179039301 351.545851528 -6.71179039301 269.5 -16 c 2,111,-1
 243 -19 l 1,112,113
 201 -19 201 -19 156 16.5 c 128,-1,114
 111 52 111 52 87.5 85 c 128,-1,115
 64 118 64 118 64 122 c 128,-1,116
 64 126 64 126 68.5 139 c 128,-1,117
 73 152 73 152 73 164 c 0,118,119
 73 188 73 188 42 188 c 1,120,-1
 34 187 l 2,121,122
 26 187 26 187 14 293.5 c 2,123,-1
 10 329 l 1,124,-1
 22 465 l 2,125,126
 22 468 22 468 34 485 c 128,-1,127
 46 502 46 502 46 506 c 2,128,-1
 44 592 l 2,129,130
 44 631 44 631 47 635 c 0,131,132
 60 653 60 653 130 705 c 128,-1,133
 200 757 200 757 235 757 c 1,134,135
 242 774 242 774 250 774 c 0,136,137
 300 777 300 777 366.5 777 c 128,-1,138
 433 777 433 777 444 766 c 0,139,140
 445 765 445 765 467 745 c 128,-1,141
 489 725 489 725 504 710 c 128,-1,142
 519 695 519 695 533.5 673 c 128,-1,143
 548 651 548 651 548 636 c 1,144,-1
 528 611 l 1,145,146
 539 588 539 588 559.5 514.5 c 128,-1,147
 580 441 580 441 580 409 c 0,148,149
 576 253 576 253 565 253 c 1,150,151
 532 240 532 240 532 227 c 0,99,100
EndSplineSet
EndChar

StartChar: Ograve
Encoding: 210 210 39
Width: 590
Flags: MW
HStem: -19 21G 938 20G<261.5 273>
VStem: 10 228<287.5 347> 44 190<483.5 602.5> 44 220 73 165<154 319> 366 166 366 182 366 214<409 433 409 438.5>
LayerCount: 2
Fore
SplineSet
250 881 m 2,0,-1
 236 880 l 1,1,-1
 235 880 l 1,2,3
 235 881 235 881 215.5 901 c 128,-1,4
 196 921 196 921 196 923 c 0,5,6
 196 928 196 928 226.5 943 c 128,-1,7
 257 958 257 958 273 958 c 1,8,9
 328 947 328 947 330 945 c 0,10,11
 374 854 374 854 393 835 c 1,12,-1
 393 834 l 2,13,14
 393 823.333333333 393 823.333333333 368.5 815.166666667 c 128,-1,15
 344 807 344 807 326 807 c 0,16,17
 321 807 321 807 293.5 829.5 c 128,-1,18
 266 852 266 852 262 852 c 0,19,20
 261 852 261 852 261 857 c 2,21,-1
 261 867 l 2,22,23
 261 876 261 876 258.5 878.5 c 128,-1,24
 256 881 256 881 250 881 c 2,0,-1
248 585 m 1,25,-1
 264 539 l 2,26,27
 264 537 264 537 249 519 c 128,-1,28
 234 501 234 501 234 492.5 c 128,-1,29
 234 484 234 484 247.5 473 c 128,-1,30
 261 462 261 462 261 456 c 1,31,32
 238 344 238 344 238 294 c 0,33,34
 238 283 238 283 262 259 c 0,35,36
 264 257 264 257 264 251.5 c 128,-1,37
 264 246 264 246 254.5 224.5 c 128,-1,38
 245 203 245 203 245 199 c 0,39,40
 245 172 245 172 269 144 c 128,-1,41
 293 116 293 116 314 116 c 0,42,43
 327.1 116 327.1 116 336.55 126.5 c 128,-1,44
 346 137 346 137 354.5 147 c 2,45,-1
 363 157 l 2,46,47
 364 158 364 158 364 160 c 128,-1,48
 364 162 364 162 352.5 180.5 c 128,-1,49
 341 199 341 199 341 206 c 128,-1,50
 341 213 341 213 351.5 244.5 c 128,-1,51
 362 276 362 276 362 290 c 1,52,-1
 346 306 l 2,53,54
 345 307 345 307 345 312 c 2,55,-1
 345 314 l 2,56,57
 345 331 345 331 338 338 c 1,58,-1
 337 341 l 1,59,60
 339 351 339 351 361 377 c 0,61,62
 366 382 366 382 366 418 c 1,63,-1
 361 515 l 2,64,65
 361 524 361 524 345.5 536 c 128,-1,66
 330 548 330 548 330 551 c 0,67,68
 330 576.666666667 330 576.666666667 344.5 610.5 c 2,69,-1
 349 621 l 1,70,71
 349 633 349 633 322 648 c 2,72,-1
 313 653 l 1,73,74
 296 653 296 653 272 628.5 c 128,-1,75
 248 604 248 604 248 585 c 1,25,-1
532 227 m 0,76,77
 532 207 532 207 552 189 c 1,78,79
 552 167 552 167 537 133.5 c 128,-1,80
 522 100 522 100 505.5 77 c 128,-1,81
 489 54 489 54 484 54 c 0,82,83
 461 54 461 54 430.5 41 c 128,-1,84
 400 28 400 28 381 15 c 2,85,-1
 362 2 l 1,86,87
 351.545851528 -6.71179039301 351.545851528 -6.71179039301 269.5 -16 c 2,88,-1
 243 -19 l 1,89,90
 201 -19 201 -19 156 16.5 c 128,-1,91
 111 52 111 52 87.5 85 c 128,-1,92
 64 118 64 118 64 122 c 128,-1,93
 64 126 64 126 68.5 139 c 128,-1,94
 73 152 73 152 73 164 c 0,95,96
 73 188 73 188 42 188 c 1,97,-1
 34 187 l 2,98,99
 26 187 26 187 14 293.5 c 2,100,-1
 10 329 l 1,101,-1
 22 465 l 2,102,103
 22 468 22 468 34 485 c 128,-1,104
 46 502 46 502 46 506 c 2,105,-1
 44 592 l 2,106,107
 44 631 44 631 47 635 c 0,108,109
 60 653 60 653 130 705 c 128,-1,110
 200 757 200 757 235 757 c 1,111,112
 242 774 242 774 250 774 c 0,113,114
 300 777 300 777 366.5 777 c 128,-1,115
 433 777 433 777 444 766 c 0,116,117
 445 765 445 765 467 745 c 128,-1,118
 489 725 489 725 504 710 c 128,-1,119
 519 695 519 695 533.5 673 c 128,-1,120
 548 651 548 651 548 636 c 1,121,-1
 528 611 l 1,122,123
 539 588 539 588 559.5 514.5 c 128,-1,124
 580 441 580 441 580 409 c 0,125,126
 576 253 576 253 565 253 c 1,127,128
 532 240 532 240 532 227 c 0,76,77
EndSplineSet
EndChar

StartChar: Oslash
Encoding: 216 216 40
Width: 590
Flags: MW
HStem: -37 21G<71.5 93> -19 21G 757 20G
VStem: 44 190<483.5 602.5> 44 204<582 598 582 602.5> 362 170<215.5 291.5> 362 190<2 189 164.5 291.5>
LayerCount: 2
Fore
SplineSet
284 252 m 1,0,-1
 286 246 l 1,1,2
 286 241 286 241 248 181 c 1,3,4
 255 156 255 156 276 136 c 128,-1,5
 297 116 297 116 308.5 116 c 128,-1,6
 320 116 320 116 328.5 121.5 c 0,7,8
 338.111111111 127.718954248 338.111111111 127.718954248 354.5 147 c 2,9,-1
 363 157 l 2,10,11
 364 158 364 158 364 160 c 128,-1,12
 364 162 364 162 352.5 180.5 c 128,-1,13
 341 199 341 199 341 206 c 128,-1,14
 341 213 341 213 351.5 244.5 c 128,-1,15
 362 276 362 276 362 290 c 1,16,-1
 346 306 l 2,17,18
 345 307 345 307 345 312 c 2,19,-1
 345 314 l 2,20,21
 345 331 345 331 338 338 c 1,22,23
 284 271 284 271 284 252 c 1,0,-1
248 585 m 1,24,-1
 264 539 l 2,25,26
 264 537 264 537 249 519 c 128,-1,27
 234 501 234 501 234 492.5 c 128,-1,28
 234 484 234 484 247.5 473 c 128,-1,29
 261 462 261 462 261 456 c 1,30,31
 246 383 246 383 240 328 c 1,32,33
 261 359 261 359 262 359 c 2,34,-1
 263 359 l 1,35,36
 269 368 269 368 282.5 393.5 c 128,-1,37
 296 419 296 419 305.5 434 c 128,-1,38
 315 449 315 449 319 449 c 128,-1,39
 323 449 323 449 328.5 458 c 128,-1,40
 334 467 334 467 340.5 481 c 128,-1,41
 347 495 347 495 351 501 c 2,42,-1
 360 519 l 1,43,44
 358 526 358 526 344 536.5 c 128,-1,45
 330 547 330 547 330 551 c 0,46,47
 330 576.666666667 330 576.666666667 344.5 610.5 c 2,48,-1
 349 621 l 1,49,50
 349 633 349 633 322 648 c 2,51,-1
 313 653 l 1,52,53
 296 653 296 653 272 628.5 c 128,-1,54
 248 604 248 604 248 585 c 1,24,-1
532 227 m 0,55,56
 532 207 532 207 552 189 c 1,57,58
 552 167 552 167 537 133.5 c 128,-1,59
 522 100 522 100 505.5 77 c 128,-1,60
 489 54 489 54 484 54 c 0,61,62
 461 54 461 54 430.5 41 c 128,-1,63
 400 28 400 28 381 15 c 2,64,-1
 362 2 l 1,65,66
 351.545851528 -6.71179039301 351.545851528 -6.71179039301 269.5 -16 c 2,67,-1
 243 -19 l 1,68,69
 198 -19 198 -19 150 20 c 1,70,71
 134 -4 134 -4 134 -5 c 0,72,73
 134 -16 134 -16 118 -32 c 0,74,75
 113 -37 113 -37 85 -37 c 0,76,77
 24 -37 24 -37 24 -22 c 0,78,79
 24 -13 24 -13 48 20 c 2,80,-1
 56 31 l 1,81,82
 77 69 77 69 80 73.5 c 128,-1,83
 83 78 83 78 85 89 c 1,84,85
 64 120 64 120 64 123 c 128,-1,86
 64 126 64 126 68.5 139 c 128,-1,87
 73 152 73 152 73 164 c 0,88,89
 73 188 73 188 42 188 c 1,90,-1
 34 187 l 2,91,92
 26 187 26 187 14 293.5 c 2,93,-1
 10 329 l 1,94,-1
 22 465 l 2,95,96
 22 468 22 468 34 485 c 128,-1,97
 46 502 46 502 46 506 c 2,98,-1
 44 592 l 2,99,100
 44 631 44 631 47 635 c 0,101,102
 60 653 60 653 130 705 c 128,-1,103
 200 757 200 757 235 757 c 1,104,105
 242 774 242 774 250 774 c 0,106,107
 300 777 300 777 366.5 777 c 128,-1,108
 433 777 433 777 444 766 c 0,109,110
 446 763 446 763 451 759 c 0,111,112
 466 747 466 747 476 737 c 1,113,114
 482 754 482 754 501 771 c 0,115,116
 507 777 507 777 553 777 c 128,-1,117
 599 777 599 777 599 766 c 1,118,119
 588 735 588 735 581 733 c 0,120,121
 569 730 569 730 566 726 c 1,122,-1
 566 719 l 2,123,124
 566 709 566 709 567 705 c 1,125,-1
 567 704 l 2,126,127
 567 699 567 699 554.5 685.5 c 2,128,-1
 542 672 l 1,129,-1
 538 666 l 1,130,131
 548 649 548 649 548 636 c 1,132,-1
 528 611 l 1,133,134
 539 588 539 588 559.5 514.5 c 128,-1,135
 580 441 580 441 580 409 c 0,136,137
 576 253 576 253 565 253 c 1,138,139
 532 240 532 240 532 227 c 0,55,56
EndSplineSet
EndChar

StartChar: Otilde
Encoding: 213 213 41
Width: 590
Flags: MW
HStem: -19 21G 829 73<266.5 301>
VStem: 10 235<180.5 347> 44 201 73 172<154 203.5> 341 191<199.5 233.5> 362 170<215.5 291.5> 362 190<2 189 164.5 291.5> 362 218<277.5 433>
LayerCount: 2
Fore
SplineSet
248 585 m 1,0,-1
 264 539 l 2,1,2
 264 537 264 537 249 519 c 128,-1,3
 234 501 234 501 234 492.5 c 128,-1,4
 234 484 234 484 247.5 473 c 128,-1,5
 261 462 261 462 261 456 c 1,6,7
 238 344 238 344 238 294 c 0,8,9
 238 283 238 283 262 259 c 0,10,11
 264 257 264 257 264 251.5 c 128,-1,12
 264 246 264 246 254.5 224.5 c 128,-1,13
 245 203 245 203 245 199 c 0,14,15
 245 172 245 172 269 144 c 128,-1,16
 293 116 293 116 314 116 c 0,17,18
 327.1 116 327.1 116 336.55 126.5 c 128,-1,19
 346 137 346 137 354.5 147 c 2,20,-1
 363 157 l 2,21,22
 364 158 364 158 364 160 c 128,-1,23
 364 162 364 162 352.5 180.5 c 128,-1,24
 341 199 341 199 341 206 c 128,-1,25
 341 213 341 213 351.5 244.5 c 128,-1,26
 362 276 362 276 362 290 c 1,27,-1
 346 306 l 2,28,29
 345 307 345 307 345 312 c 2,30,-1
 345 314 l 2,31,32
 345 331 345 331 338 338 c 1,33,-1
 337 341 l 1,34,35
 339 351 339 351 361 377 c 0,36,37
 366 382 366 382 366 418 c 1,38,-1
 361 515 l 2,39,40
 361 524 361 524 345.5 536 c 128,-1,41
 330 548 330 548 330 551 c 0,42,43
 330 576.666666667 330 576.666666667 344.5 610.5 c 2,44,-1
 349 621 l 1,45,46
 349 633 349 633 322 648 c 2,47,-1
 313 653 l 1,48,49
 296 653 296 653 272 628.5 c 128,-1,50
 248 604 248 604 248 585 c 1,0,-1
532 227 m 0,51,52
 532 207 532 207 552 189 c 1,53,54
 552 167 552 167 537 133.5 c 128,-1,55
 522 100 522 100 505.5 77 c 128,-1,56
 489 54 489 54 484 54 c 0,57,58
 461 54 461 54 430.5 41 c 128,-1,59
 400 28 400 28 381 15 c 2,60,-1
 362 2 l 1,61,62
 351.545851528 -6.71179039301 351.545851528 -6.71179039301 269.5 -16 c 2,63,-1
 243 -19 l 1,64,65
 201 -19 201 -19 156 16.5 c 128,-1,66
 111 52 111 52 87.5 85 c 128,-1,67
 64 118 64 118 64 122 c 128,-1,68
 64 126 64 126 68.5 139 c 128,-1,69
 73 152 73 152 73 164 c 0,70,71
 73 188 73 188 42 188 c 1,72,-1
 34 187 l 2,73,74
 26 187 26 187 14 293.5 c 2,75,-1
 10 329 l 1,76,-1
 22 465 l 2,77,78
 22 468 22 468 34 485 c 128,-1,79
 46 502 46 502 46 506 c 2,80,-1
 44 592 l 2,81,82
 44 631 44 631 47 635 c 0,83,84
 60 653 60 653 130 705 c 128,-1,85
 200 757 200 757 235 757 c 1,86,87
 242 774 242 774 250 774 c 0,88,89
 300 777 300 777 366.5 777 c 128,-1,90
 433 777 433 777 444 766 c 0,91,92
 445 765 445 765 467 745 c 128,-1,93
 489 725 489 725 504 710 c 128,-1,94
 519 695 519 695 533.5 673 c 128,-1,95
 548 651 548 651 548 636 c 1,96,-1
 528 611 l 1,97,98
 539 588 539 588 559.5 514.5 c 128,-1,99
 580 441 580 441 580 409 c 0,100,101
 576 253 576 253 565 253 c 1,102,103
 532 240 532 240 532 227 c 0,51,52
459 843 m 0,104,105
 459 836 459 836 424.5 814.5 c 128,-1,106
 390 793 390 793 380 793 c 128,-1,107
 370 793 370 793 335.5 811 c 128,-1,108
 301 829 301 829 293 829 c 128,-1,109
 285 829 285 829 250 818 c 128,-1,110
 215 807 215 807 212.5 807 c 128,-1,111
 210 807 210 807 203.5 826.5 c 128,-1,112
 197 846 197 846 197 856 c 1,113,114
 262 902 262 902 274.5 902 c 128,-1,115
 287 902 287 902 333 885.5 c 128,-1,116
 379 869 379 869 383.5 869 c 128,-1,117
 388 869 388 869 413.5 880 c 128,-1,118
 439 891 439 891 442 891 c 128,-1,119
 445 891 445 891 452 875 c 128,-1,120
 459 859 459 859 459 843 c 0,104,105
EndSplineSet
EndChar

StartChar: P
Encoding: 80 80 42
Width: 524
Flags: MW
HStem: -21 21G<132.5 141> 760 20G<93.5 117>
VStem: 23 210<215.5 217 156.5 224.5> 52 181 301 210<453.5 546.5> 327 184<464.5 469.5 453.5 515>
LayerCount: 2
Fore
SplineSet
314 383 m 1,0,-1
 302 402 l 2,1,2
 302 403 302 403 304.5 405.5 c 128,-1,3
 307 408 307 408 310.5 415 c 128,-1,4
 314 422 314 422 318 433 c 0,5,6
 327 457.75 327 457.75 327 513 c 0,7,8
 327 514 327 514 314 524.5 c 128,-1,9
 301 535 301 535 301 540.5 c 0,10,11
 301 548.818181818 301 548.818181818 318.5 587 c 2,12,-1
 324 599 l 1,13,14
 324 611 324 611 312 622 c 128,-1,15
 300 633 300 633 288.5 638 c 2,16,-1
 277 643 l 1,17,18
 235 608 235 608 235 591 c 1,19,-1
 241 525 l 1,20,21
 222 508 222 508 222 500 c 128,-1,22
 222 492 222 492 224 490 c 0,23,24
 239 476 239 476 239 469.5 c 128,-1,25
 239 463 239 463 236.5 460.25 c 128,-1,26
 234 457.5 234 457.5 234 444 c 2,27,-1
 235 400 l 2,28,29
 235 378 235 378 232 372 c 1,30,31
 247 355 247 355 258.5 355 c 128,-1,32
 270 355 270 355 292 365 c 128,-1,33
 314 375 314 375 314 383 c 1,0,-1
514 524 m 1,34,-1
 511 459 l 2,35,36
 511 442.5 511 442.5 514 432 c 1,37,-1
 514 429 l 2,38,39
 514 409 514 409 474 354.5 c 128,-1,40
 434 300 434 300 422.5 300 c 128,-1,41
 411 300 411 300 375.5 273.5 c 128,-1,42
 340 247 340 247 340 239 c 0,43,44
 340 233 340 233 286.5 224.5 c 128,-1,45
 233 216 233 216 233 214 c 0,46,47
 233 114.7 233 114.7 249 55.5 c 2,48,-1
 254 37 l 1,49,50
 254 29.7058823529 254 29.7058823529 223.5 15.3529411765 c 128,-1,51
 193 1 193 1 188 -4 c 0,52,53
 177 -15 177 -15 141 -21 c 1,54,55
 123 -21 123 -21 71 -8 c 128,-1,56
 19 5 19 5 19 15 c 1,57,58
 30.4901960784 37.9803921569 30.4901960784 37.9803921569 37.5 123.5 c 2,59,-1
 40 154 l 2,60,61
 40 155 40 155 44.5 157.5 c 0,62,63
 58 165 58 165 58 179.5 c 128,-1,64
 58 194 58 194 40.5 205.5 c 128,-1,65
 23 217 23 217 23 219 c 0,66,67
 23 230.8 23 230.8 37 256 c 2,68,-1
 42 265 l 1,69,-1
 44 334 l 2,70,71
 44 368 44 368 41 371 c 128,-1,72
 38 374 38 374 38 378 c 2,73,-1
 50 428 l 1,74,75
 52 442 52 442 52 460.5 c 0,76,77
 52 512.222222222 52 512.222222222 39.5 590 c 2,78,-1
 35 618 l 1,79,-1
 49 641 l 1,80,81
 49 659.055555556 49 659.055555556 23 712.5 c 2,82,-1
 14 731 l 1,83,84
 70 780 70 780 117 780 c 1,85,86
 182 773 182 773 186 768.5 c 0,87,88
 196.166666667 757.0625 196.166666667 757.0625 207 720.5 c 2,89,-1
 211 707 l 1,90,91
 218 702 218 702 222 702 c 128,-1,92
 226 702 226 702 227 704 c 0,93,94
 256 745 256 745 263 764 c 1,95,96
 320 767 320 767 346 767 c 1,97,-1
 357 766 l 1,98,-1
 359 766 l 1,99,100
 372 764 372 764 401 754.5 c 128,-1,101
 430 745 430 745 436 739 c 0,102,103
 466.8 708.2 466.8 708.2 496 642.5 c 0,104,105
 506 620 506 620 509 618 c 1,106,-1
 509 617 l 2,107,108
 509 614 509 614 493.5 596.5 c 128,-1,109
 478 579 478 579 478 574 c 2,110,-1
 478 573 l 2,111,112
 478 562.571428571 478 562.571428571 486 556.285714286 c 128,-1,113
 494 550 494 550 505 550 c 0,114,115
 514 550 514 550 514 524 c 1,34,-1
EndSplineSet
EndChar

StartChar: Q
Encoding: 81 81 43
Width: 600
Flags: MW
HStem: -83 21G<442 460> -21 21G<226.5 283> 660 124<292.5 300>
VStem: 10 217<233 360> 44 183<187.5 254.5> 83 160<454 571.5> 343 220<193 336> 362 156<572.5 607> 377 157<232.5 285> 377 204<273 377>
LayerCount: 2
Fore
SplineSet
243 468 m 1,0,-1
 230 343 l 1,1,2
 230 329 230 329 233 326 c 0,3,4
 251 297 251 297 251 291 c 128,-1,5
 251 285 251 285 239 269.5 c 128,-1,6
 227 254 227 254 227 252 c 0,7,8
 227 215.916666667 227 215.916666667 244 180.5 c 2,9,-1
 250 168 l 1,10,11
 280 139 280 139 300 139 c 1,12,13
 336 146 336 146 336 153 c 1,14,15
 330.851851852 158.148148148 330.851851852 158.148148148 318.925925926 184.074074074 c 128,-1,16
 307 210 307 210 307 213.5 c 0,17,18
 307 221 307 221 359.5 260 c 2,19,-1
 377 273 l 1,20,21
 377 295 377 295 343 315 c 1,22,23
 343 337 343 337 350.5 388.5 c 128,-1,24
 358 440 358 440 358 454.5 c 128,-1,25
 358 469 358 469 342 477 c 1,26,27
 342 494 342 494 348.5 540.5 c 128,-1,28
 355 587 355 587 358.5 590.5 c 128,-1,29
 362 594 362 594 362 597 c 0,30,31
 362 611 362 611 333.5 635.5 c 128,-1,32
 305 660 305 660 292 660 c 0,33,34
 285 660 285 660 263 631 c 128,-1,35
 241 602 241 602 241 592 c 128,-1,36
 241 582 241 582 251 568 c 128,-1,37
 261 554 261 554 261 549 c 128,-1,38
 261 544 261 544 250 519.5 c 128,-1,39
 239 495 239 495 239 488.5 c 128,-1,40
 239 482 239 482 241 480 c 128,-1,41
 243 478 243 478 243 468 c 1,0,-1
397 3 m 0,42,43
 397 17.4545454545 397 17.4545454545 374 30 c 1,44,45
 360 30 360 30 337 17.5 c 128,-1,46
 314 5 314 5 298.5 -8 c 2,47,-1
 283 -21 l 1,48,49
 233 -21 233 -21 175.5 8.5 c 128,-1,50
 118 38 118 38 85.5 67.5 c 2,51,-1
 53 97 l 1,52,53
 43 109 43 109 32.5 149.5 c 2,54,-1
 29 163 l 1,55,56
 44 180 44 180 44 199.5 c 128,-1,57
 44 219 44 219 27 258 c 128,-1,58
 10 297 10 297 10 301 c 0,59,60
 10 353 10 353 18.5 413.5 c 128,-1,61
 27 474 27 474 35.5 508 c 2,62,-1
 44 542 l 1,63,64
 83 544 83 544 83 567 c 0,65,66
 83 571 83 571 70 584 c 128,-1,67
 57 597 57 597 57 604 c 1,68,69
 87 684 87 684 127 723 c 1,70,71
 137 730 137 730 156 740 c 128,-1,72
 175 750 175 750 238 767 c 128,-1,73
 301 784 301 784 370 784 c 0,74,75
 383 784 383 784 428.5 763 c 128,-1,76
 474 742 474 742 484 731 c 1,77,78
 543 653 543 653 543 623 c 1,79,80
 518 606 518 606 518 579 c 0,81,82
 518 573 518 573 526 571.5 c 128,-1,83
 534 570 534 570 545 568.5 c 128,-1,84
 556 567 556 567 561 562 c 1,85,86
 564 548 564 548 564 521.5 c 128,-1,87
 564 495 564 495 557 459 c 1,88,89
 581 395 581 395 581 368.5 c 128,-1,90
 581 342 581 342 574 309 c 128,-1,91
 567 276 567 276 563 274 c 0,92,93
 534 263 534 263 534 245 c 0,94,95
 534 225.466666667 534 225.466666667 555.5 214 c 0,96,97
 563 210 563 210 563 209 c 0,98,99
 563 195 563 195 548 174.5 c 128,-1,100
 533 154 533 154 518 139.5 c 128,-1,101
 503 125 503 125 503 124 c 0,102,103
 509.893617021 89.5319148936 509.893617021 89.5319148936 562.5 41.5 c 0,104,105
 574 31 574 31 590 19 c 1,106,107
 590 3 590 3 562 -21.5 c 128,-1,108
 534 -46 534 -46 505.5 -63 c 2,109,-1
 477 -80 l 1,110,111
 468 -83 468 -83 456 -83 c 0,112,113
 427.833333333 -83 427.833333333 -83 393 -72 c 1,114,115
 377.894736842 -56.8947368421 377.894736842 -56.8947368421 375 -26.5 c 2,116,-1
 374 -16 l 2,117,118
 374 -15 374 -15 385.5 -7.5 c 128,-1,119
 397 0 397 0 397 3 c 0,42,43
EndSplineSet
EndChar

StartChar: R
Encoding: 82 82 44
Width: 585
Flags: MW
HStem: -31 21G -22 21G<73 97> -10 21G<469 500.5> 756 20G
VStem: 41 199<122 250.5> 54 186 54 198<537 625> 72 168<122 190.5> 333 144<546 641> 333 168<546 687> 333 198<556.5 587 556.5 591.5> 376 138<113 280.5>
LayerCount: 2
Fore
SplineSet
296.5 444 m 128,-1,1
 327 469 327 469 327 475.5 c 128,-1,2
 327 482 327 482 320 495.5 c 128,-1,3
 313 509 313 509 313 514.5 c 128,-1,4
 313 520 313 520 323 533 c 128,-1,5
 333 546 333 546 333 550 c 0,6,7
 333 587 333 587 324.5 613 c 128,-1,8
 316 639 316 639 307 647 c 2,9,-1
 298 655 l 1,10,11
 284 655 284 655 258.5 638.5 c 128,-1,12
 233 622 233 622 233 616 c 2,13,-1
 233 615 l 1,14,15
 239 606 239 606 245.5 582.5 c 128,-1,16
 252 559 252 559 252 538 c 0,17,18
 252 536 252 536 244 528 c 128,-1,19
 236 520 236 520 234 520 c 1,20,21
 240 473 240 473 240 453 c 128,-1,22
 240 433 240 433 239 429 c 1,23,24
 247 419 247 419 256.5 419 c 128,-1,0
 266 419 266 419 296.5 444 c 128,-1,1
521 622 m 2,25,26
 531 622 531 622 531 584 c 128,-1,27
 531 546 531 546 526.5 515 c 128,-1,28
 522 484 522 484 516 478 c 0,29,30
 467 428 467 428 402 394 c 1,31,32
 397 384 397 384 397 381 c 128,-1,33
 397 378 397 378 399 378 c 0,34,35
 433 378 433 378 474.5 350.5 c 128,-1,36
 516 323 516 323 516 306 c 1,37,38
 514 292 514 292 514 269 c 0,39,40
 514 133 514 133 580 67 c 1,41,-1
 580 66 l 2,42,43
 580 57 580 57 542 23.5 c 128,-1,44
 504 -10 504 -10 493 -10 c 0,45,46
 452 -10 452 -10 410 -3 c 128,-1,47
 368 4 368 4 356 16 c 0,48,49
 355 17 355 17 354 31.5 c 0,50,51
 350.772727273 78.2954545455 350.772727273 78.2954545455 348 88 c 0,52,53
 348 90 348 90 355 94.5 c 0,54,55
 376 108 376 108 376 124 c 0,56,57
 376 133 376 133 357 135.5 c 128,-1,58
 338 138 338 138 338 142 c 0,59,60
 338 174 338 174 329 240 c 2,61,-1
 326 262 l 1,62,63
 323 274 323 274 313 287 c 128,-1,64
 303 300 303 300 294 306.5 c 2,65,-1
 285 313 l 1,66,67
 269 313 269 313 239 290.5 c 2,68,-1
 229 283 l 1,69,70
 229 276 229 276 253 244 c 1,71,72
 240 178 240 178 240 133 c 2,73,-1
 240 122 l 1,74,75
 244 122 244 122 250 115.5 c 128,-1,76
 256 109 256 109 256 106 c 2,77,-1
 263 21 l 2,78,79
 263 13 263 13 261 13 c 0,80,81
 241 13 241 13 203.5 -9 c 128,-1,82
 166 -31 166 -31 146 -31 c 0,83,84
 145 -31 145 -31 135 -29 c 0,85,86
 100 -22 100 -22 87 -22 c 0,87,88
 65 -22 65 -22 32 9.5 c 2,89,-1
 21 20 l 1,90,91
 35 48 35 48 38 123 c 2,92,-1
 39 148 l 2,93,94
 39 149 39 149 47.5 153.5 c 128,-1,95
 56 158 56 158 64 166.5 c 128,-1,96
 72 175 72 175 72 184 c 0,97,98
 72 191 72 191 56.5 197 c 128,-1,99
 41 203 41 203 41 207 c 0,100,101
 41 259 41 259 49.5 307 c 128,-1,102
 58 355 58 355 58 360 c 128,-1,103
 58 365 58 365 53.5 370 c 128,-1,104
 49 375 49 375 48.5 414.5 c 0,105,106
 46.8165289256 547.494214876 46.8165289256 547.494214876 36 584 c 0,107,108
 36 586 36 586 45 591.5 c 128,-1,109
 54 597 54 597 54 602 c 0,110,111
 54 635.157894737 54 635.157894737 24.5 689.5 c 0,112,113
 15 707 15 707 15 708 c 0,114,115
 15 714 15 714 41.5 730.5 c 128,-1,116
 68 747 68 747 108.5 761.5 c 128,-1,117
 149 776 149 776 179 776 c 0,118,119
 187 776 187 776 196 749.5 c 128,-1,120
 205 723 205 723 205 709 c 1,121,122
 209 705 209 705 213 705 c 128,-1,123
 217 705 217 705 219 707 c 0,124,125
 275 761 275 761 281 763 c 1,126,127
 330 768 330 768 384.5 768 c 128,-1,128
 439 768 439 768 451 756 c 0,129,130
 501 707 501 707 501 667 c 1,131,132
 477 649 477 649 477 633 c 0,133,134
 477 620 477 620 499 620 c 1,135,-1
 521 622 l 2,25,26
EndSplineSet
EndChar

StartChar: S
Encoding: 83 83 45
Width: 513
Flags: MW
HStem: -17 145<213 245 213 255> -10 21G<313.5 339.5> 15 113<213 299> 645 120<280 301 235.5 315> 756 20G<389 412.5>
VStem: 307 196<200.5 220>
LayerCount: 2
Fore
SplineSet
318 -10 m 0,0,1
 315 -10 315 -10 308 2.5 c 128,-1,2
 301 15 301 15 290.5 15 c 128,-1,3
 280 15 280 15 267.5 -1 c 128,-1,4
 255 -17 255 -17 248 -17 c 0,5,6
 181 -17 181 -17 128 -6.5 c 128,-1,7
 75 4 75 4 55.5 15 c 2,8,-1
 36 26 l 1,9,10
 30 32 30 32 22.5 88.5 c 128,-1,11
 15 145 15 145 15 191 c 0,12,13
 15 198.346153846 15 198.346153846 55 224.5 c 2,14,-1
 68 233 l 2,15,16
 78.0344827586 239.689655172 78.0344827586 239.689655172 118 246 c 0,17,18
 119 246 119 246 119 238 c 2,19,-1
 118 216 l 1,20,-1
 144 152 l 1,21,22
 149 149 149 149 179.5 138.5 c 128,-1,23
 210 128 210 128 225 128 c 0,24,25
 252 128 252 128 279.5 160.5 c 128,-1,26
 307 193 307 193 307 206 c 0,27,28
 307 229 307 229 280 266.5 c 2,29,-1
 271 279 l 1,30,31
 198 325 198 325 183 325 c 1,32,33
 165 320 165 320 159.5 320 c 128,-1,34
 154 320 154 320 144.5 332 c 128,-1,35
 135 344 135 344 135 348 c 2,36,-1
 142 378 l 1,37,38
 142 386.272727273 142 386.272727273 121 392 c 1,39,-1
 93 387 l 1,40,41
 82 387 82 387 43.5 437 c 128,-1,42
 5 487 5 487 5 497 c 128,-1,43
 5 507 5 507 18.5 547 c 128,-1,44
 32 587 32 587 60 642.5 c 128,-1,45
 88 698 88 698 119 729 c 1,46,47
 140.1875 743.125 140.1875 743.125 191.59375 754.0625 c 128,-1,48
 243 765 243 765 301 765 c 1,49,50
 318 738 318 738 343 738 c 1,51,52
 365 748 365 748 365 773 c 0,53,54
 365 776 365 776 398 776 c 0,55,56
 464 776 464 776 464.5 759 c 128,-1,57
 465 742 465 742 465 713 c 128,-1,58
 465 684 465 684 463 668 c 1,59,60
 474 620 474 620 474 611 c 2,61,-1
 474 610 l 1,62,63
 468 598 468 598 441 580.5 c 128,-1,64
 414 563 414 563 407.5 563 c 128,-1,65
 401 563 401 563 401 566 c 0,66,67
 401 584 401 584 362.5 614.5 c 128,-1,68
 324 645 324 645 292 645 c 0,69,70
 273 645 273 645 242 612.5 c 128,-1,71
 211 580 211 580 211 558 c 1,72,73
 216 533 216 533 232 533 c 0,74,75
 241 533 241 533 253 544 c 1,76,-1
 254 544 l 2,77,78
 263 544 263 544 313.5 509.5 c 128,-1,79
 364 475 364 475 367 466 c 1,80,81
 379 468 379 468 387.5 468 c 128,-1,82
 396 468 396 468 400 466 c 0,83,84
 424 447 424 447 450 414.5 c 128,-1,85
 476 382 476 382 480 372 c 0,86,87
 503 319 503 319 503 201 c 0,88,89
 503 165 503 165 426.5 77.5 c 128,-1,90
 350 -10 350 -10 318 -10 c 0,0,1
EndSplineSet
EndChar

StartChar: Scaron
Encoding: 352 352 46
Width: 513
Flags: MW
HStem: -17 145<213 245 213 255> -10 21G<313.5 339.5> 15 113<213 299> 645 120<280 301 235.5 315> 799 124<210 330.5> 799 164<210 390> 944 20G<175 184.5>
VStem: 307 196<200.5 220>
LayerCount: 2
Fore
SplineSet
367 850 m 1,0,-1
 371 830 l 1,1,2
 354 801 354 801 347 801 c 2,3,-1
 326 801 l 2,4,5
 296 801 296 801 294 804 c 1,6,7
 276 819 276 819 273 819 c 128,-1,8
 270 819 270 819 260.5 812.5 c 128,-1,9
 251 806 251 806 248.5 802.5 c 128,-1,10
 246 799 246 799 224 799 c 128,-1,11
 202 799 202 799 199 802 c 128,-1,12
 196 805 196 805 180 830.5 c 128,-1,13
 164 856 164 856 164 860 c 1,14,15
 167 871 167 871 167 881 c 128,-1,16
 167 891 167 891 146 891 c 1,17,18
 118 925 118 925 118 929 c 128,-1,19
 118 933 118 933 123.5 936.5 c 128,-1,20
 129 940 129 940 134.5 945.5 c 128,-1,21
 140 951 140 951 151 956.5 c 128,-1,22
 162 962 162 962 175 964 c 1,23,24
 198 964 198 964 198 960 c 1,25,-1
 236 915 l 1,26,27
 253 911.6 253 911.6 253 907 c 0,28,29
 253 894 253 894 262 879.5 c 128,-1,30
 271 865 271 865 277 865 c 0,31,32
 281 865 281 865 303.5 893.5 c 2,33,-1
 311 903 l 1,34,35
 311 919 311 919 317 923 c 1,36,37
 333 923 333 923 351.5 943 c 128,-1,38
 370 963 370 963 372 963 c 0,39,40
 388 963 388 963 403.5 955.5 c 128,-1,41
 419 948 419 948 426.5 941 c 128,-1,42
 434 934 434 934 434 932 c 1,43,-1
 414.5 901 l 2,44,45
 395 870 395 870 395 865 c 1,46,47
 367 859 367 859 367 850 c 1,0,-1
318 -10 m 0,48,49
 315 -10 315 -10 308 2.5 c 128,-1,50
 301 15 301 15 290.5 15 c 128,-1,51
 280 15 280 15 267.5 -1 c 128,-1,52
 255 -17 255 -17 248 -17 c 0,53,54
 181 -17 181 -17 128 -6.5 c 128,-1,55
 75 4 75 4 55.5 15 c 2,56,-1
 36 26 l 1,57,58
 30 32 30 32 22.5 88.5 c 128,-1,59
 15 145 15 145 15 191 c 0,60,61
 15 198.346153846 15 198.346153846 55 224.5 c 2,62,-1
 68 233 l 2,63,64
 78.0344827586 239.689655172 78.0344827586 239.689655172 118 246 c 0,65,66
 119 246 119 246 119 238 c 2,67,-1
 118 216 l 1,68,-1
 144 152 l 1,69,70
 149 149 149 149 179.5 138.5 c 128,-1,71
 210 128 210 128 225 128 c 0,72,73
 252 128 252 128 279.5 160.5 c 128,-1,74
 307 193 307 193 307 206 c 0,75,76
 307 229 307 229 280 266.5 c 2,77,-1
 271 279 l 1,78,79
 198 325 198 325 183 325 c 1,80,81
 165 320 165 320 159.5 320 c 128,-1,82
 154 320 154 320 144.5 332 c 128,-1,83
 135 344 135 344 135 348 c 2,84,-1
 142 378 l 1,85,86
 142 386.272727273 142 386.272727273 121 392 c 1,87,-1
 93 387 l 1,88,89
 82 387 82 387 43.5 437 c 128,-1,90
 5 487 5 487 5 497 c 128,-1,91
 5 507 5 507 18.5 547 c 128,-1,92
 32 587 32 587 60 642.5 c 128,-1,93
 88 698 88 698 119 729 c 1,94,95
 140.1875 743.125 140.1875 743.125 191.59375 754.0625 c 128,-1,96
 243 765 243 765 301 765 c 1,97,98
 318 738 318 738 343 738 c 1,99,100
 365 748 365 748 365 773 c 0,101,102
 365 776 365 776 398 776 c 0,103,104
 464 776 464 776 464.5 759 c 128,-1,105
 465 742 465 742 465 713 c 128,-1,106
 465 684 465 684 463 668 c 1,107,108
 474 620 474 620 474 611 c 2,109,-1
 474 610 l 1,110,111
 468 598 468 598 441 580.5 c 128,-1,112
 414 563 414 563 407.5 563 c 128,-1,113
 401 563 401 563 401 566 c 0,114,115
 401 584 401 584 362.5 614.5 c 128,-1,116
 324 645 324 645 292 645 c 0,117,118
 273 645 273 645 242 612.5 c 128,-1,119
 211 580 211 580 211 558 c 1,120,121
 216 533 216 533 232 533 c 0,122,123
 241 533 241 533 253 544 c 1,124,-1
 254 544 l 2,125,126
 263 544 263 544 313.5 509.5 c 128,-1,127
 364 475 364 475 367 466 c 1,128,129
 379 468 379 468 387.5 468 c 128,-1,130
 396 468 396 468 400 466 c 0,131,132
 424 447 424 447 450 414.5 c 128,-1,133
 476 382 476 382 480 372 c 0,134,135
 503 319 503 319 503 201 c 0,136,137
 503 165 503 165 426.5 77.5 c 128,-1,138
 350 -10 350 -10 318 -10 c 0,48,49
EndSplineSet
EndChar

StartChar: T
Encoding: 84 84 47
Width: 562
Flags: MW
HStem: -21 21G<243 304> 641 111 754 20G<336.5 339>
VStem: 168 189<418 465> 188 169<418 609> 188 195 188 222
LayerCount: 2
Fore
SplineSet
393 752 m 1,0,-1
 514 760 l 2,1,2
 522 760 522 760 523 759 c 0,3,4
 529 753 529 753 544.5 684.5 c 128,-1,5
 560 616 560 616 560 577 c 0,6,7
 560 569 560 569 530.5 548.5 c 128,-1,8
 501 528 501 528 482 528 c 0,9,10
 480 528 480 528 475 544 c 0,11,12
 457.727272727 599.272727273 457.727272727 599.272727273 430 627 c 1,13,14
 394 640 394 640 377 640 c 128,-1,15
 360 640 360 640 356.5 638.5 c 128,-1,16
 353 637 353 637 346.5 631 c 128,-1,17
 340 625 340 625 340 615 c 1,18,19
 386 594 386 594 386 587 c 0,20,21
 381 522 381 522 381 459 c 1,22,23
 357 439 357 439 357 433 c 0,24,25
 357 420 357 420 365 412 c 128,-1,26
 373 404 373 404 381 401 c 128,-1,27
 389 398 389 398 389 397 c 0,28,29
 383 289 383 289 383 216.5 c 128,-1,30
 383 144 383 144 387 120 c 1,31,32
 410 63 410 63 410 38 c 0,33,34
 410 30.03125 410 30.03125 386.5 19.015625 c 128,-1,35
 363 8 363 8 348.5 4.5 c 0,36,37
 323.454545455 -1.54545454545 323.454545455 -1.54545454545 304 -21 c 1,38,39
 250 -21 250 -21 214.5 -16 c 128,-1,40
 179 -11 179 -11 170.5 -6 c 2,41,-1
 162 -1 l 1,42,-1
 179 60 l 1,43,44
 181 63 181 63 181 91 c 2,45,-1
 180 167 l 2,46,47
 180 183 180 183 181 183 c 0,48,49
 193 183 193 183 205 209 c 1,50,51
 205 214 205 214 187.5 232 c 128,-1,52
 170 250 170 250 170 254 c 1,53,-1
 185 283 l 1,54,55
 187 291 187 291 187 305 c 2,56,-1
 184 398 l 2,57,58
 184 416 184 416 187 419 c 128,-1,59
 190 422 190 422 190 426.5 c 128,-1,60
 190 431 190 431 179 442.5 c 128,-1,61
 168 454 168 454 168 463 c 1,62,-1
 184 499 l 1,63,64
 188 511 188 511 188 576 c 128,-1,65
 188 641 188 641 186 641 c 0,66,67
 158 641 158 641 133 609.5 c 128,-1,68
 108 578 108 578 97 546 c 2,69,-1
 86 514 l 1,70,71
 66 514 66 514 45 525 c 128,-1,72
 24 536 24 536 13 547.5 c 128,-1,73
 2 559 2 559 2 564.5 c 128,-1,74
 2 570 2 570 22.5 664.5 c 128,-1,75
 43 759 43 759 48 760 c 1,76,77
 95 755 95 755 108 751 c 1,78,79
 233 763 233 763 250 763 c 1,80,-1
 294 758 l 1,81,82
 334 774 334 774 339 774 c 1,83,84
 355 767 355 767 363 759.5 c 128,-1,85
 371 752 371 752 393 752 c 1,0,-1
EndSplineSet
EndChar

StartChar: Thorn
Encoding: 222 222 48
Width: 524
Flags: MW
HStem: -21 21G<132.5 141> 760 20G<93.5 117>
VStem: 23 212<215.5 307.5> 52 160 301 210<353.5 446.5> 327 184<364.5 369.5 353.5 415>
LayerCount: 2
Fore
SplineSet
314 283 m 1,0,-1
 302 302 l 2,1,2
 302 303 302 303 304.5 305.5 c 128,-1,3
 307 308 307 308 310.5 315 c 128,-1,4
 314 322 314 322 318 333 c 0,5,6
 327 357.75 327 357.75 327 413 c 0,7,8
 327 414 327 414 314 424.5 c 128,-1,9
 301 435 301 435 301 440.5 c 0,10,11
 301 448.818181818 301 448.818181818 318.5 487 c 2,12,-1
 324 499 l 1,13,14
 324 511 324 511 312 522 c 128,-1,15
 300 533 300 533 288.5 538 c 2,16,-1
 277 543 l 1,17,18
 235 508 235 508 235 491 c 1,19,-1
 241 425 l 1,20,21
 222 408 222 408 222 400 c 128,-1,22
 222 392 222 392 224 390 c 0,23,24
 239 376 239 376 239 369.5 c 128,-1,25
 239 363 239 363 236.5 360.25 c 128,-1,26
 234 357.5 234 357.5 234 344 c 2,27,-1
 235 300 l 2,28,29
 235 278 235 278 232 272 c 1,30,31
 247 255 247 255 258.5 255 c 128,-1,32
 270 255 270 255 292 265 c 128,-1,33
 314 275 314 275 314 283 c 1,0,-1
514 424 m 1,34,-1
 511 359 l 2,35,36
 511 342.5 511 342.5 514 332 c 1,37,-1
 514 329 l 2,38,39
 514 309 514 309 474 254.5 c 128,-1,40
 434 200 434 200 422.5 200 c 128,-1,41
 411 200 411 200 375.5 173.5 c 128,-1,42
 340 147 340 147 340 139 c 0,43,44
 340 133 340 133 286.5 124.5 c 128,-1,45
 233 116 233 116 233 114 c 0,46,47
 233 31 233 31 247 31 c 0,48,49
 249 31 249 31 254 36 c 1,50,51
 253 30 253 30 223 15.5 c 128,-1,52
 193 1 193 1 188 -4 c 0,53,54
 177 -15 177 -15 141 -21 c 1,55,56
 123 -21 123 -21 71 -8 c 128,-1,57
 19 5 19 5 19 15 c 1,58,59
 30.4901960784 37.9803921569 30.4901960784 37.9803921569 37.5 123.5 c 2,60,-1
 40 154 l 2,61,62
 40 155 40 155 44.5 157.5 c 0,63,64
 58 165 58 165 58 179.5 c 128,-1,65
 58 194 58 194 40.5 205.5 c 128,-1,66
 23 217 23 217 23 219 c 0,67,68
 23 230.8 23 230.8 37 256 c 2,69,-1
 42 265 l 1,70,-1
 44 334 l 2,71,72
 44 368 44 368 41 371 c 128,-1,73
 38 374 38 374 38 378 c 2,74,-1
 50 428 l 1,75,76
 52 442 52 442 52 460.5 c 0,77,78
 52 512.222222222 52 512.222222222 39.5 590 c 2,79,-1
 35 618 l 1,80,-1
 49 641 l 1,81,82
 49 659.055555556 49 659.055555556 23 712.5 c 2,83,-1
 14 731 l 1,84,85
 70 780 70 780 117 780 c 1,86,-1
 192 764 l 1,87,88
 212 749 212 749 212 717 c 1,89,-1
 208 644 l 1,90,-1
 208 638 l 1,91,-1
 211 607 l 1,92,93
 218 602 218 602 222 602 c 128,-1,94
 226 602 226 602 227 604 c 0,95,96
 256 645 256 645 263 664 c 1,97,98
 320 667 320 667 346 667 c 1,99,-1
 357 666 l 1,100,-1
 359 666 l 1,101,102
 372 664 372 664 401 654.5 c 128,-1,103
 430 645 430 645 436 639 c 0,104,105
 466.8 608.2 466.8 608.2 496 542.5 c 0,106,107
 506 520 506 520 509 518 c 1,108,-1
 509 517 l 2,109,110
 509 514 509 514 493.5 496.5 c 128,-1,111
 478 479 478 479 478 474 c 2,112,-1
 478 473 l 2,113,114
 478 462.571428571 478 462.571428571 486 456.285714286 c 128,-1,115
 494 450 494 450 505 450 c 0,116,117
 514 450 514 450 514 424 c 1,34,-1
EndSplineSet
EndChar

StartChar: U
Encoding: 85 85 49
Width: 572
Flags: MW
HStem: -27 143<282 309.5 282 342> 769 20G<135.5 145>
VStem: 28 224<177 413.5> 46 188 46 206 338 173<194.5 310.5> 353 182<203.5 373 203.5 387> 353 198<373 587 577 615.5>
LayerCount: 2
Fore
SplineSet
263 269 m 2,0,-1
 252 177 l 1,1,2
 255.364864865 153.445945946 255.364864865 153.445945946 269.682432432 134.722972973 c 128,-1,3
 284 116 284 116 304 116 c 0,4,5
 314 116 314 116 327 133.5 c 128,-1,6
 340 151 340 151 340 172 c 1,7,8
 338 188 338 188 338 202 c 128,-1,9
 338 216 338 216 341 219 c 0,10,11
 357 233 357 233 357 246 c 1,12,13
 336 271 336 271 336 278 c 1,14,-1
 353 318 l 1,15,-1
 353 373 l 2,16,17
 353 430 353 430 351 435 c 1,18,19
 362 442 362 442 362 464 c 0,20,21
 362 472 362 472 350 480.5 c 128,-1,22
 338 489 338 489 338 498 c 0,23,24
 341 531 341 531 351 557 c 0,25,26
 353 561 353 561 353 611.5 c 128,-1,27
 353 662 353 662 349 666 c 0,28,29
 338 677 338 677 338 723 c 0,30,31
 338 725 338 725 339 728 c 1,32,33
 344 733 344 733 390.5 754.5 c 128,-1,34
 437 776 437 776 439.5 776 c 128,-1,35
 442 776 442 776 453 770 c 128,-1,36
 464 764 464 764 470 764 c 128,-1,37
 476 764 476 764 480 768 c 128,-1,38
 484 772 484 772 489.5 772 c 128,-1,39
 495 772 495 772 497 771 c 0,40,41
 552 748 552 748 552 740 c 0,42,43
 552 735 552 735 541.5 689 c 128,-1,44
 531 643 531 643 531 610 c 0,45,46
 531 605 531 605 541 596 c 128,-1,47
 551 587 551 587 551 581.5 c 128,-1,48
 551 576 551 576 543 562 c 128,-1,49
 535 548 535 548 535 547 c 0,50,51
 533 488 533 488 533 422 c 128,-1,52
 533 356 533 356 538 343 c 1,53,-1
 538 342 l 2,54,55
 538 338 538 338 524.5 324 c 128,-1,56
 511 310 511 310 511 304 c 128,-1,57
 511 298 511 298 515.5 292.5 c 128,-1,58
 520 287 520 287 525 285.5 c 0,59,60
 538 281.6 538 281.6 538 279 c 0,61,62
 535 267 535 267 535 236.5 c 0,63,64
 535 192 535 192 536.5 151.5 c 2,65,-1
 537 138 l 2,66,67
 537 121.653846154 537 121.653846154 499 70.5 c 2,68,-1
 486 53 l 1,69,70
 424 39 424 39 409.5 32.5 c 0,71,72
 387.502439024 22.6390243902 387.502439024 22.6390243902 353 -15 c 2,73,-1
 342 -27 l 1,74,75
 258 -27 258 -27 201 -17.5 c 128,-1,76
 144 -8 144 -8 129 1 c 2,77,-1
 114 10 l 1,78,-1
 60 76 l 1,79,-1
 44 81 l 2,80,81
 40 82 40 82 30.5 97 c 128,-1,82
 21 112 21 112 21 115.5 c 128,-1,83
 21 119 21 119 24 122 c 0,84,85
 34 132 34 132 41 173 c 128,-1,86
 48 214 48 214 48 234.5 c 128,-1,87
 48 255 48 255 44 259 c 128,-1,88
 40 263 40 263 40 306 c 1,89,-1
 42 362 l 2,90,91
 42 389 42 389 28 403 c 1,92,93
 28 420.25 28 420.25 33.5 427.125 c 128,-1,94
 39 434 39 434 44.5 441.5 c 128,-1,95
 50 449 50 449 53 452 c 1,96,-1
 58 476 l 2,97,98
 58 477 58 477 43 492.5 c 128,-1,99
 28 508 28 508 28 511 c 128,-1,100
 28 514 28 514 32.5 525 c 0,101,102
 46 558 46 558 46 575 c 128,-1,103
 46 592 46 592 30.5 659.5 c 128,-1,104
 15 727 15 727 15 728 c 0,105,106
 15 733 15 733 73.5 761 c 128,-1,107
 132 789 132 789 145 789 c 1,108,109
 167 779 167 779 181 779 c 1,110,-1
 203 783 l 1,111,112
 219 783 219 783 239 774.5 c 128,-1,113
 259 766 259 766 269 756 c 1,114,115
 245 588 245 588 245 566 c 1,116,117
 257 557 257 557 257 552 c 2,118,-1
 255.5 530 l 2,119,120
 251 464 251 464 251 429 c 128,-1,121
 251 394 251 394 255 376.5 c 128,-1,122
 259 359 259 359 259 341 c 1,123,124
 234 313 234 313 234 303 c 128,-1,125
 234 293 234 293 238 287 c 128,-1,126
 242 281 242 281 247 279 c 0,127,128
 254.5 276 254.5 276 262 273 c 1,129,130
 263 271 263 271 263 269 c 2,0,-1
EndSplineSet
EndChar

StartChar: Uacute
Encoding: 218 218 50
Width: 572
Flags: MW
HStem: -27 143<282 309.5 282 342> 948 20G<344.5 360.5>
VStem: 28 223<403 449 416 515> 48 186<227 307.5> 48 203<227 449> 48 215<227 270> 340 171<157 310.5> 353 178<605.5 615.5> 353 199<590.5 744>
LayerCount: 2
Fore
SplineSet
342 876 m 1,0,-1
 344 861 l 2,1,2
 344 858 344 858 335 855 c 128,-1,3
 326 852 326 852 303 832.5 c 128,-1,4
 280 813 280 813 275.5 808 c 128,-1,5
 271 803 271 803 266 803 c 128,-1,6
 261 803 261 803 241.5 819 c 128,-1,7
 222 835 222 835 222 843.5 c 128,-1,8
 222 852 222 852 247 883 c 128,-1,9
 272 914 272 914 272 917 c 0,10,11
 273 929 273 929 273 930 c 0,12,13
 297 960 297 960 298.5 961.5 c 128,-1,14
 300 963 300 963 320.5 965.5 c 128,-1,15
 341 968 341 968 353 968 c 128,-1,16
 365 968 365 968 389.5 951 c 128,-1,17
 414 934 414 934 414 925 c 0,18,19
 414 922 414 922 406 916.5 c 0,20,21
 374.784313725 895.039215686 374.784313725 895.039215686 366 885 c 0,22,23
 365 884 365 884 353.5 884 c 128,-1,24
 342 884 342 884 342 876 c 1,0,-1
263 269 m 2,25,-1
 252 177 l 1,26,27
 255.364864865 153.445945946 255.364864865 153.445945946 269.682432432 134.722972973 c 128,-1,28
 284 116 284 116 304 116 c 0,29,30
 314 116 314 116 327 133.5 c 128,-1,31
 340 151 340 151 340 172 c 1,32,33
 338 188 338 188 338 202 c 128,-1,34
 338 216 338 216 341 219 c 0,35,36
 357 233 357 233 357 246 c 1,37,38
 336 271 336 271 336 278 c 1,39,-1
 353 318 l 1,40,-1
 353 373 l 2,41,42
 353 430 353 430 351 435 c 1,43,44
 362 442 362 442 362 464 c 0,45,46
 362 472 362 472 350 480.5 c 128,-1,47
 338 489 338 489 338 498 c 0,48,49
 341 531 341 531 351 557 c 0,50,51
 353 561 353 561 353 611.5 c 128,-1,52
 353 662 353 662 349 666 c 0,53,54
 338 677 338 677 338 723 c 0,55,56
 338 725 338 725 339 728 c 1,57,58
 344 733 344 733 390.5 754.5 c 128,-1,59
 437 776 437 776 439.5 776 c 128,-1,60
 442 776 442 776 453 770 c 128,-1,61
 464 764 464 764 470 764 c 128,-1,62
 476 764 476 764 480 768 c 128,-1,63
 484 772 484 772 489.5 772 c 128,-1,64
 495 772 495 772 497 771 c 0,65,66
 552 748 552 748 552 740 c 0,67,68
 552 735 552 735 541.5 689 c 128,-1,69
 531 643 531 643 531 610 c 0,70,71
 531 605 531 605 541 596 c 128,-1,72
 551 587 551 587 551 581.5 c 128,-1,73
 551 576 551 576 543 562 c 128,-1,74
 535 548 535 548 535 547 c 0,75,76
 533 488 533 488 533 422 c 128,-1,77
 533 356 533 356 538 343 c 1,78,-1
 538 342 l 2,79,80
 538 338 538 338 524.5 324 c 128,-1,81
 511 310 511 310 511 304 c 128,-1,82
 511 298 511 298 515.5 292.5 c 128,-1,83
 520 287 520 287 525 285.5 c 0,84,85
 538 281.6 538 281.6 538 279 c 0,86,87
 535 267 535 267 535 236.5 c 0,88,89
 535 192 535 192 536.5 151.5 c 2,90,-1
 537 138 l 2,91,92
 537 121.653846154 537 121.653846154 499 70.5 c 2,93,-1
 486 53 l 1,94,95
 424 39 424 39 409.5 32.5 c 0,96,97
 387.502439024 22.6390243902 387.502439024 22.6390243902 353 -15 c 2,98,-1
 342 -27 l 1,99,100
 258 -27 258 -27 201 -17.5 c 128,-1,101
 144 -8 144 -8 129 1 c 2,102,-1
 114 10 l 1,103,-1
 60 76 l 1,104,-1
 44 81 l 2,105,106
 40 82 40 82 30.5 97 c 128,-1,107
 21 112 21 112 21 115.5 c 128,-1,108
 21 119 21 119 24 122 c 0,109,110
 34 132 34 132 41 173 c 128,-1,111
 48 214 48 214 48 234.5 c 128,-1,112
 48 255 48 255 44 259 c 128,-1,113
 40 263 40 263 40 306 c 1,114,-1
 42 362 l 2,115,116
 42 389 42 389 28 403 c 1,117,118
 28 420.25 28 420.25 33.5 427.125 c 128,-1,119
 39 434 39 434 44.5 441.5 c 128,-1,120
 50 449 50 449 53 452 c 1,121,-1
 58 476 l 2,122,123
 58 477 58 477 43 492.5 c 128,-1,124
 28 508 28 508 28 511 c 128,-1,125
 28 514 28 514 32.5 525 c 0,126,127
 46 558 46 558 46 575 c 128,-1,128
 46 592 46 592 30.5 659.5 c 128,-1,129
 15 727 15 727 15 728 c 0,130,131
 15 733 15 733 73.5 761 c 128,-1,132
 132 789 132 789 145 789 c 1,133,134
 167 779 167 779 181 779 c 1,135,-1
 203 783 l 1,136,137
 219 783 219 783 239 774.5 c 128,-1,138
 259 766 259 766 269 756 c 1,139,140
 245 588 245 588 245 566 c 1,141,142
 257 557 257 557 257 552 c 2,143,-1
 255.5 530 l 2,144,145
 251 464 251 464 251 429 c 128,-1,146
 251 394 251 394 255 376.5 c 128,-1,147
 259 359 259 359 259 341 c 1,148,149
 234 313 234 313 234 303 c 128,-1,150
 234 293 234 293 238 287 c 128,-1,151
 242 281 242 281 247 279 c 0,152,153
 254.5 276 254.5 276 262 273 c 1,154,155
 263 271 263 271 263 269 c 2,25,-1
EndSplineSet
EndChar

StartChar: Ucircumflex
Encoding: 219 219 51
Width: 572
Flags: MW
HStem: -27 143<282 309.5 282 342> 809 164<175 354> 849 124<233.5 354>
VStem: 28 224<177 413.5> 46 188 46 206 338 173<194.5 310.5> 353 182<203.5 373 203.5 387> 353 198<373 587 577 615.5> 362 149<294.5 472.5>
LayerCount: 2
Fore
SplineSet
197 922 m 1,0,-1
 193 942 l 1,1,2
 211 971 211 971 218 971 c 2,3,-1
 239 971 l 2,4,5
 269 971 269 971 271 968 c 1,6,7
 289 953 289 953 291.5 953 c 128,-1,8
 294 953 294 953 316 968 c 1,9,10
 318 973 318 973 340 973 c 128,-1,11
 362 973 362 973 365.5 970 c 128,-1,12
 369 967 369 967 385 941.5 c 128,-1,13
 401 916 401 916 401 912 c 1,14,15
 398 901 398 901 398 891 c 128,-1,16
 398 881 398 881 419 881 c 1,17,18
 446 847 446 847 446 843.5 c 128,-1,19
 446 840 446 840 444 838 c 128,-1,20
 442 836 442 836 439 834 c 128,-1,21
 436 832 436 832 430.5 826.5 c 128,-1,22
 425 821 425 821 413.5 815.5 c 128,-1,23
 402 810 402 810 390 808 c 1,24,25
 367 808 367 808 367 812 c 1,26,-1
 329 857 l 1,27,28
 312 860.4 312 860.4 312 865 c 0,29,30
 312 878 312 878 303 892.5 c 128,-1,31
 294 907 294 907 288 907 c 0,32,33
 283 907 283 907 260.5 878.5 c 2,34,-1
 253 869 l 1,35,36
 253 853 253 853 247 849 c 1,37,38
 231 849 231 849 212.5 829 c 128,-1,39
 194 809 194 809 193 809 c 0,40,41
 177 809 177 809 161.5 816.5 c 128,-1,42
 146 824 146 824 138.5 831 c 128,-1,43
 131 838 131 838 131 840 c 1,44,-1
 150.5 871 l 2,45,46
 170 902 170 902 170 907 c 1,47,48
 197 913 197 913 197 922 c 1,0,-1
263 269 m 2,49,-1
 252 177 l 1,50,51
 255.364864865 153.445945946 255.364864865 153.445945946 269.682432432 134.722972973 c 128,-1,52
 284 116 284 116 304 116 c 0,53,54
 314 116 314 116 327 133.5 c 128,-1,55
 340 151 340 151 340 172 c 1,56,57
 338 188 338 188 338 202 c 128,-1,58
 338 216 338 216 341 219 c 0,59,60
 357 233 357 233 357 246 c 1,61,62
 336 271 336 271 336 278 c 1,63,-1
 353 318 l 1,64,-1
 353 373 l 2,65,66
 353 430 353 430 351 435 c 1,67,68
 362 442 362 442 362 464 c 0,69,70
 362 472 362 472 350 480.5 c 128,-1,71
 338 489 338 489 338 498 c 0,72,73
 341 531 341 531 351 557 c 0,74,75
 353 561 353 561 353 611.5 c 128,-1,76
 353 662 353 662 349 666 c 0,77,78
 338 677 338 677 338 723 c 0,79,80
 338 725 338 725 339 728 c 1,81,82
 344 733 344 733 390.5 754.5 c 128,-1,83
 437 776 437 776 439.5 776 c 128,-1,84
 442 776 442 776 453 770 c 128,-1,85
 464 764 464 764 470 764 c 128,-1,86
 476 764 476 764 480 768 c 128,-1,87
 484 772 484 772 489.5 772 c 128,-1,88
 495 772 495 772 497 771 c 0,89,90
 552 748 552 748 552 740 c 0,91,92
 552 735 552 735 541.5 689 c 128,-1,93
 531 643 531 643 531 610 c 0,94,95
 531 605 531 605 541 596 c 128,-1,96
 551 587 551 587 551 581.5 c 128,-1,97
 551 576 551 576 543 562 c 128,-1,98
 535 548 535 548 535 547 c 0,99,100
 533 488 533 488 533 422 c 128,-1,101
 533 356 533 356 538 343 c 1,102,-1
 538 342 l 2,103,104
 538 338 538 338 524.5 324 c 128,-1,105
 511 310 511 310 511 304 c 128,-1,106
 511 298 511 298 515.5 292.5 c 128,-1,107
 520 287 520 287 525 285.5 c 0,108,109
 538 281.6 538 281.6 538 279 c 0,110,111
 535 267 535 267 535 236.5 c 0,112,113
 535 192 535 192 536.5 151.5 c 2,114,-1
 537 138 l 2,115,116
 537 121.653846154 537 121.653846154 499 70.5 c 2,117,-1
 486 53 l 1,118,119
 424 39 424 39 409.5 32.5 c 0,120,121
 387.502439024 22.6390243902 387.502439024 22.6390243902 353 -15 c 2,122,-1
 342 -27 l 1,123,124
 258 -27 258 -27 201 -17.5 c 128,-1,125
 144 -8 144 -8 129 1 c 2,126,-1
 114 10 l 1,127,-1
 60 76 l 1,128,-1
 44 81 l 2,129,130
 40 82 40 82 30.5 97 c 128,-1,131
 21 112 21 112 21 115.5 c 128,-1,132
 21 119 21 119 24 122 c 0,133,134
 34 132 34 132 41 173 c 128,-1,135
 48 214 48 214 48 234.5 c 128,-1,136
 48 255 48 255 44 259 c 128,-1,137
 40 263 40 263 40 306 c 1,138,-1
 42 362 l 2,139,140
 42 389 42 389 28 403 c 1,141,142
 28 420.25 28 420.25 33.5 427.125 c 128,-1,143
 39 434 39 434 44.5 441.5 c 128,-1,144
 50 449 50 449 53 452 c 1,145,-1
 58 476 l 2,146,147
 58 477 58 477 43 492.5 c 128,-1,148
 28 508 28 508 28 511 c 128,-1,149
 28 514 28 514 32.5 525 c 0,150,151
 46 558 46 558 46 575 c 128,-1,152
 46 592 46 592 30.5 659.5 c 128,-1,153
 15 727 15 727 15 728 c 0,154,155
 15 733 15 733 73.5 761 c 128,-1,156
 132 789 132 789 145 789 c 1,157,158
 167 779 167 779 181 779 c 1,159,-1
 203 783 l 1,160,161
 219 783 219 783 239 774.5 c 128,-1,162
 259 766 259 766 269 756 c 1,163,164
 245 588 245 588 245 566 c 1,165,166
 257 557 257 557 257 552 c 2,167,-1
 255.5 530 l 2,168,169
 251 464 251 464 251 429 c 128,-1,170
 251 394 251 394 255 376.5 c 128,-1,171
 259 359 259 359 259 341 c 1,172,173
 234 313 234 313 234 303 c 128,-1,174
 234 293 234 293 238 287 c 128,-1,175
 242 281 242 281 247 279 c 0,176,177
 254.5 276 254.5 276 262 273 c 1,178,179
 263 271 263 271 263 269 c 2,49,-1
EndSplineSet
EndChar

StartChar: Udieresis
Encoding: 220 220 52
Width: 572
Flags: MW
HStem: -27 143<282 309.5 282 342> 925 20G<199.5 208.5 407 411>
VStem: 28 224<177 413.5> 46 188 46 206 256 206<868.5 925.5> 328 183 340 195<157 234.5> 353 182<203.5 373 203.5 387> 353 198<373 587 577 615.5>
LayerCount: 2
Fore
SplineSet
256 891 m 0,0,1
 256 871 256 871 251 855.5 c 128,-1,2
 246 840 246 840 236.5 832 c 128,-1,3
 227 824 227 824 207 817.5 c 128,-1,4
 187 811 187 811 168.5 811 c 128,-1,5
 150 811 150 811 142 819 c 0,6,7
 141 820 141 820 141 829.5 c 0,8,9
 141 845 141 845 130 845 c 2,10,-1
 124 845 l 2,11,12
 120 845 120 845 117 847.5 c 128,-1,13
 114 850 114 850 114 874.5 c 128,-1,14
 114 899 114 899 115.5 901.5 c 128,-1,15
 117 904 117 904 127.5 915 c 128,-1,16
 138 926 138 926 149 932 c 1,17,18
 192 945 192 945 202 945 c 128,-1,19
 212 945 212 945 226.5 940.5 c 128,-1,20
 241 936 241 936 241 932 c 1,21,22
 237 922 237 922 237 913 c 1,23,24
 256 897 256 897 256 891 c 0,0,1
478 878 m 0,25,26
 477 848 477 848 468 839 c 128,-1,27
 459 830 459 830 454 830 c 128,-1,28
 449 830 449 830 434.5 816.5 c 128,-1,29
 420 803 420 803 417 803 c 2,30,-1
 374 809 l 1,31,32
 360.375 813.541666667 360.375 813.541666667 331 839 c 0,33,34
 328 842 328 842 328 857 c 128,-1,35
 328 872 328 872 331.5 890 c 128,-1,36
 335 908 335 908 339 908 c 0,37,38
 352 908 352 908 393 941 c 1,39,40
 403 945 403 945 411 945 c 1,41,42
 462 933 462 933 462 918 c 1,43,44
 456 909 456 909 456 903.5 c 128,-1,45
 456 898 456 898 467 891 c 128,-1,46
 478 884 478 884 478 878 c 0,25,26
263 269 m 2,47,-1
 252 177 l 1,48,49
 255.364864865 153.445945946 255.364864865 153.445945946 269.682432432 134.722972973 c 128,-1,50
 284 116 284 116 304 116 c 0,51,52
 314 116 314 116 327 133.5 c 128,-1,53
 340 151 340 151 340 172 c 1,54,55
 338 188 338 188 338 202 c 128,-1,56
 338 216 338 216 341 219 c 0,57,58
 357 233 357 233 357 246 c 1,59,60
 336 271 336 271 336 278 c 1,61,-1
 353 318 l 1,62,-1
 353 373 l 2,63,64
 353 430 353 430 351 435 c 1,65,66
 362 442 362 442 362 464 c 0,67,68
 362 472 362 472 350 480.5 c 128,-1,69
 338 489 338 489 338 498 c 0,70,71
 341 531 341 531 351 557 c 0,72,73
 353 561 353 561 353 611.5 c 128,-1,74
 353 662 353 662 349 666 c 0,75,76
 338 677 338 677 338 723 c 0,77,78
 338 725 338 725 339 728 c 1,79,80
 344 733 344 733 390.5 754.5 c 128,-1,81
 437 776 437 776 439.5 776 c 128,-1,82
 442 776 442 776 453 770 c 128,-1,83
 464 764 464 764 470 764 c 128,-1,84
 476 764 476 764 480 768 c 128,-1,85
 484 772 484 772 489.5 772 c 128,-1,86
 495 772 495 772 497 771 c 0,87,88
 552 748 552 748 552 740 c 0,89,90
 552 735 552 735 541.5 689 c 128,-1,91
 531 643 531 643 531 610 c 0,92,93
 531 605 531 605 541 596 c 128,-1,94
 551 587 551 587 551 581.5 c 128,-1,95
 551 576 551 576 543 562 c 128,-1,96
 535 548 535 548 535 547 c 0,97,98
 533 488 533 488 533 422 c 128,-1,99
 533 356 533 356 538 343 c 1,100,-1
 538 342 l 2,101,102
 538 338 538 338 524.5 324 c 128,-1,103
 511 310 511 310 511 304 c 128,-1,104
 511 298 511 298 515.5 292.5 c 128,-1,105
 520 287 520 287 525 285.5 c 0,106,107
 538 281.6 538 281.6 538 279 c 0,108,109
 535 267 535 267 535 236.5 c 0,110,111
 535 192 535 192 536.5 151.5 c 2,112,-1
 537 138 l 2,113,114
 537 121.653846154 537 121.653846154 499 70.5 c 2,115,-1
 486 53 l 1,116,117
 424 39 424 39 409.5 32.5 c 0,118,119
 387.502439024 22.6390243902 387.502439024 22.6390243902 353 -15 c 2,120,-1
 342 -27 l 1,121,122
 258 -27 258 -27 201 -17.5 c 128,-1,123
 144 -8 144 -8 129 1 c 2,124,-1
 114 10 l 1,125,-1
 60 76 l 1,126,-1
 44 81 l 2,127,128
 40 82 40 82 30.5 97 c 128,-1,129
 21 112 21 112 21 115.5 c 128,-1,130
 21 119 21 119 24 122 c 0,131,132
 34 132 34 132 41 173 c 128,-1,133
 48 214 48 214 48 234.5 c 128,-1,134
 48 255 48 255 44 259 c 128,-1,135
 40 263 40 263 40 306 c 1,136,-1
 42 362 l 2,137,138
 42 389 42 389 28 403 c 1,139,140
 28 420.25 28 420.25 33.5 427.125 c 128,-1,141
 39 434 39 434 44.5 441.5 c 128,-1,142
 50 449 50 449 53 452 c 1,143,-1
 58 476 l 2,144,145
 58 477 58 477 43 492.5 c 128,-1,146
 28 508 28 508 28 511 c 128,-1,147
 28 514 28 514 32.5 525 c 0,148,149
 46 558 46 558 46 575 c 128,-1,150
 46 592 46 592 30.5 659.5 c 128,-1,151
 15 727 15 727 15 728 c 0,152,153
 15 733 15 733 73.5 761 c 128,-1,154
 132 789 132 789 145 789 c 1,155,156
 167 779 167 779 181 779 c 1,157,-1
 203 783 l 1,158,159
 219 783 219 783 239 774.5 c 128,-1,160
 259 766 259 766 269 756 c 1,161,162
 245 588 245 588 245 566 c 1,163,164
 257 557 257 557 257 552 c 2,165,-1
 255.5 530 l 2,166,167
 251 464 251 464 251 429 c 128,-1,168
 251 394 251 394 255 376.5 c 128,-1,169
 259 359 259 359 259 341 c 1,170,171
 234 313 234 313 234 303 c 128,-1,172
 234 293 234 293 238 287 c 128,-1,173
 242 281 242 281 247 279 c 0,174,175
 254.5 276 254.5 276 262 273 c 1,176,177
 263 271 263 271 263 269 c 2,47,-1
EndSplineSet
EndChar

StartChar: Ugrave
Encoding: 217 217 53
Width: 572
Flags: MW
HStem: -27 143<282 309.5 282 342> 947 20G<252.5 264>
VStem: 28 223<403 449 416 515> 48 186<227 307.5> 48 203<227 449> 48 215<227 270> 340 171<157 310.5> 353 178<605.5 615.5> 353 199<590.5 744>
LayerCount: 2
Fore
SplineSet
241 890 m 2,0,-1
 227 889 l 1,1,-1
 226 889 l 1,2,3
 226 890 226 890 206.5 910 c 128,-1,4
 187 930 187 930 187 932 c 0,5,6
 187 937 187 937 217.5 952 c 128,-1,7
 248 967 248 967 264 967 c 1,8,9
 319 956 319 956 321 954 c 0,10,11
 365 863 365 863 384 844 c 1,12,-1
 384 843 l 2,13,14
 384 832.333333333 384 832.333333333 359.5 824.166666667 c 128,-1,15
 335 816 335 816 317 816 c 0,16,17
 312 816 312 816 284.5 838.5 c 128,-1,18
 257 861 257 861 253 861 c 0,19,20
 252 861 252 861 252 866 c 2,21,-1
 252 876 l 2,22,23
 252 885 252 885 249.5 887.5 c 128,-1,24
 247 890 247 890 241 890 c 2,0,-1
263 269 m 2,25,-1
 252 177 l 1,26,27
 255.364864865 153.445945946 255.364864865 153.445945946 269.682432432 134.722972973 c 128,-1,28
 284 116 284 116 304 116 c 0,29,30
 314 116 314 116 327 133.5 c 128,-1,31
 340 151 340 151 340 172 c 1,32,33
 338 188 338 188 338 202 c 128,-1,34
 338 216 338 216 341 219 c 0,35,36
 357 233 357 233 357 246 c 1,37,38
 336 271 336 271 336 278 c 1,39,-1
 353 318 l 1,40,-1
 353 373 l 2,41,42
 353 430 353 430 351 435 c 1,43,44
 362 442 362 442 362 464 c 0,45,46
 362 472 362 472 350 480.5 c 128,-1,47
 338 489 338 489 338 498 c 0,48,49
 341 531 341 531 351 557 c 0,50,51
 353 561 353 561 353 611.5 c 128,-1,52
 353 662 353 662 349 666 c 0,53,54
 338 677 338 677 338 723 c 0,55,56
 338 725 338 725 339 728 c 1,57,58
 344 733 344 733 390.5 754.5 c 128,-1,59
 437 776 437 776 439.5 776 c 128,-1,60
 442 776 442 776 453 770 c 128,-1,61
 464 764 464 764 470 764 c 128,-1,62
 476 764 476 764 480 768 c 128,-1,63
 484 772 484 772 489.5 772 c 128,-1,64
 495 772 495 772 497 771 c 0,65,66
 552 748 552 748 552 740 c 0,67,68
 552 735 552 735 541.5 689 c 128,-1,69
 531 643 531 643 531 610 c 0,70,71
 531 605 531 605 541 596 c 128,-1,72
 551 587 551 587 551 581.5 c 128,-1,73
 551 576 551 576 543 562 c 128,-1,74
 535 548 535 548 535 547 c 0,75,76
 533 488 533 488 533 422 c 128,-1,77
 533 356 533 356 538 343 c 1,78,-1
 538 342 l 2,79,80
 538 338 538 338 524.5 324 c 128,-1,81
 511 310 511 310 511 304 c 128,-1,82
 511 298 511 298 515.5 292.5 c 128,-1,83
 520 287 520 287 525 285.5 c 0,84,85
 538 281.6 538 281.6 538 279 c 0,86,87
 535 267 535 267 535 236.5 c 0,88,89
 535 192 535 192 536.5 151.5 c 2,90,-1
 537 138 l 2,91,92
 537 121.653846154 537 121.653846154 499 70.5 c 2,93,-1
 486 53 l 1,94,95
 424 39 424 39 409.5 32.5 c 0,96,97
 387.502439024 22.6390243902 387.502439024 22.6390243902 353 -15 c 2,98,-1
 342 -27 l 1,99,100
 258 -27 258 -27 201 -17.5 c 128,-1,101
 144 -8 144 -8 129 1 c 2,102,-1
 114 10 l 1,103,-1
 60 76 l 1,104,-1
 44 81 l 2,105,106
 40 82 40 82 30.5 97 c 128,-1,107
 21 112 21 112 21 115.5 c 128,-1,108
 21 119 21 119 24 122 c 0,109,110
 34 132 34 132 41 173 c 128,-1,111
 48 214 48 214 48 234.5 c 128,-1,112
 48 255 48 255 44 259 c 128,-1,113
 40 263 40 263 40 306 c 1,114,-1
 42 362 l 2,115,116
 42 389 42 389 28 403 c 1,117,118
 28 420.25 28 420.25 33.5 427.125 c 128,-1,119
 39 434 39 434 44.5 441.5 c 128,-1,120
 50 449 50 449 53 452 c 1,121,-1
 58 476 l 2,122,123
 58 477 58 477 43 492.5 c 128,-1,124
 28 508 28 508 28 511 c 128,-1,125
 28 514 28 514 32.5 525 c 0,126,127
 46 558 46 558 46 575 c 128,-1,128
 46 592 46 592 30.5 659.5 c 128,-1,129
 15 727 15 727 15 728 c 0,130,131
 15 733 15 733 73.5 761 c 128,-1,132
 132 789 132 789 145 789 c 1,133,134
 167 779 167 779 181 779 c 1,135,-1
 203 783 l 1,136,137
 219 783 219 783 239 774.5 c 128,-1,138
 259 766 259 766 269 756 c 1,139,140
 245 588 245 588 245 566 c 1,141,142
 257 557 257 557 257 552 c 2,143,-1
 255.5 530 l 2,144,145
 251 464 251 464 251 429 c 128,-1,146
 251 394 251 394 255 376.5 c 128,-1,147
 259 359 259 359 259 341 c 1,148,149
 234 313 234 313 234 303 c 128,-1,150
 234 293 234 293 238 287 c 128,-1,151
 242 281 242 281 247 279 c 0,152,153
 254.5 276 254.5 276 262 273 c 1,154,155
 263 271 263 271 263 269 c 2,25,-1
EndSplineSet
EndChar

StartChar: V
Encoding: 86 86 54
Width: 593
Flags: MW
HStem: -36 21G<249.5 275.5> 740 20G<451.5 460.5>
VStem: 134 152<207.5 381> 368 139<565 678.5>
LayerCount: 2
Fore
SplineSet
474 233 m 1,0,1
 430 207.615384615 430 207.615384615 430 194 c 0,2,3
 430 187 430 187 442.5 177 c 128,-1,4
 455 167 455 167 455 165 c 0,5,6
 431 49 431 49 431 25 c 0,7,8
 431 17.9090909091 431 17.9090909091 411 12.4545454545 c 128,-1,9
 391 7 391 7 390 7 c 0,10,11
 346.25 -15.9166666667 346.25 -15.9166666667 304 -30 c 2,12,-1
 289 -35 l 2,13,14
 284 -36 284 -36 268 -36 c 0,15,16
 233 -36 233 -36 170 -21 c 2,17,-1
 149 -16 l 1,18,19
 141 -8 141 -8 129 110.5 c 2,20,-1
 125 150 l 2,21,22
 124 154 124 154 116 164 c 128,-1,23
 108 174 108 174 108 182 c 0,24,25
 108 183 108 183 121 195 c 128,-1,26
 134 207 134 207 134 215.5 c 128,-1,27
 134 224 134 224 114.5 237.5 c 128,-1,28
 95 251 95 251 95 252 c 0,29,30
 95 263 95 263 72 391 c 128,-1,31
 49 519 49 519 40 529 c 1,32,-1
 40 530 l 1,33,-1
 52 557 l 1,34,35
 52 568 52 568 27 630 c 128,-1,36
 2 692 2 692 2 694 c 0,37,38
 2 700 2 700 55 727.5 c 128,-1,39
 108 755 108 755 129 755 c 1,40,41
 141 746 141 746 158.5 746 c 128,-1,42
 176 746 176 746 182 747 c 1,43,-1
 185 747 l 2,44,45
 196 747 196 747 217.5 736.5 c 128,-1,46
 239 726 239 726 239 721 c 0,47,48
 238 690 238 690 238 657.5 c 128,-1,49
 238 625 238 625 240 619 c 1,50,51
 210 606 210 606 210 578 c 0,52,53
 210 572 210 572 228 567.5 c 128,-1,54
 246 563 246 563 246 561 c 0,55,56
 253 413 253 413 258 406 c 128,-1,57
 263 399 263 399 274.5 390 c 128,-1,58
 286 381 286 381 286 377 c 0,59,60
 286 363 286 363 276 347 c 128,-1,61
 266 331 266 331 266 324 c 1,62,63
 278 253 278 253 278 236 c 1,64,65
 292 230 292 230 297 230 c 128,-1,66
 302 230 302 230 309.5 239 c 128,-1,67
 317 248 317 248 321 258 c 1,68,69
 333 394 333 394 338 397 c 0,70,71
 367 417 367 417 367 431 c 0,72,73
 367 434 367 434 364 437 c 0,74,75
 334 458 334 458 334 480 c 0,76,77
 334 481 334 481 346.5 495.5 c 128,-1,78
 359 510 359 510 359 521 c 2,79,-1
 368 673 l 2,80,81
 368 689 368 689 366 697 c 1,82,-1
 366 698 l 2,83,84
 366 707 366 707 406.5 733.5 c 128,-1,85
 447 760 447 760 460 760 c 0,86,87
 462 760 462 760 469.5 756.5 c 128,-1,88
 477 753 477 753 495 753 c 128,-1,89
 513 753 513 753 520 754 c 1,90,91
 591 753 591 753 591 739 c 2,92,-1
 591 737 l 1,93,94
 546 621 546 621 544 602 c 1,95,96
 507 588 507 588 507 570 c 0,97,98
 507 564 507 564 520.5 557 c 128,-1,99
 534 550 534 550 534 549 c 0,100,101
 474 317 474 317 474 233 c 1,0,1
EndSplineSet
EndChar

StartChar: W
Encoding: 87 87 55
Width: 953
Flags: MW
HStem: -39 21G<245.5 281.5> 748 20G<115.5 140.5>
VStem: 730 142
LayerCount: 2
Fore
SplineSet
837 238 m 1,0,-1
 846 214 l 1,1,-1
 846 213 l 1,2,3
 804 168 804 168 803 165 c 1,4,-1
 803 160 l 2,5,6
 803 142 803 142 815 130 c 0,7,8
 817 128 817 128 817 116.5 c 128,-1,9
 817 105 817 105 805.5 66.5 c 128,-1,10
 794 28 794 28 789 28 c 0,11,12
 772 28 772 28 748 15 c 128,-1,13
 724 2 724 2 715.5 -6.5 c 0,14,15
 702 -20 702 -20 684 -29 c 1,16,17
 602 -29 602 -29 567.5 -17 c 2,18,-1
 556 -13 l 1,19,20
 540 -5 540 -5 508.5 25 c 128,-1,21
 477 55 477 55 477 69 c 1,22,-1
 508 95 l 1,23,24
 508 105 508 105 496 117 c 1,25,-1
 493 117 l 2,26,27
 485.5 117 485.5 117 472 126 c 1,28,29
 472 153 472 153 466 229 c 128,-1,30
 460 305 460 305 455 316 c 0,31,32
 455 318 455 318 452 318 c 0,33,34
 445 318 445 318 432 305 c 1,35,36
 427.083333333 296.805555556 427.083333333 296.805555556 418 209 c 2,37,-1
 415 180 l 1,38,39
 391 156 391 156 391 142 c 1,40,-1
 400.5 132 l 2,41,42
 410 122 410 122 410 116 c 0,43,44
 410 108 410 108 390 86 c 0,45,46
 387 83 387 83 386.5 62.5 c 128,-1,47
 386 42 386 42 385.5 23.5 c 128,-1,48
 385 5 385 5 381 5 c 0,49,50
 364 5 364 5 324.5 -17 c 128,-1,51
 285 -39 285 -39 248 -39 c 0,52,53
 236 -39 236 -39 172 -20.5 c 128,-1,54
 108 -2 108 -2 108 11 c 1,55,-1
 96 134 l 2,56,57
 96 136 96 136 85.5 143 c 128,-1,58
 75 150 75 150 75 156.5 c 128,-1,59
 75 163 75 163 95 193 c 1,60,61
 95 210.6875 95 210.6875 64 232 c 1,62,63
 66 238 66 238 66 263 c 2,64,-1
 64 336 l 1,65,66
 58 348 58 348 44.5 427.5 c 2,67,-1
 40 454 l 1,68,69
 57 465 57 465 57 489 c 2,70,-1
 57 491 l 2,71,72
 57 497 57 497 38 506 c 128,-1,73
 19 515 19 515 19 520 c 1,74,-1
 34 562 l 1,75,-1
 5 692 l 1,76,77
 5 697 5 697 28 715 c 128,-1,78
 51 733 51 733 84.5 750.5 c 128,-1,79
 118 768 118 768 140 768 c 0,80,81
 144 768 144 768 190 757.5 c 128,-1,82
 236 747 236 747 236 743 c 0,83,84
 235 696 235 696 235 661.5 c 128,-1,85
 235 627 235 627 236 622 c 1,86,87
 205 607 205 607 205 591 c 0,88,89
 205 584 205 584 233.5 572 c 2,90,-1
 243 568 l 1,91,92
 245 379 245 379 252 346 c 1,93,94
 248 335 248 335 240 326 c 1,95,96
 252 226 252 226 257 220 c 1,97,98
 273 206 273 206 278 206 c 128,-1,99
 283 206 283 206 285 208 c 1,100,101
 308 290 308 290 308 333 c 1,102,103
 322 343 322 343 323 350 c 0,104,105
 335 440 335 440 335 459 c 2,106,-1
 335 463 l 1,107,108
 320 481 320 481 320 496 c 1,109,110
 348 536 348 536 351.5 549.5 c 128,-1,111
 355 563 355 563 357 588.5 c 0,112,113
 362.346938776 656.673469388 362.346938776 656.673469388 365 658 c 0,114,115
 441 721 441 721 472 721 c 2,116,-1
 475 721 l 1,117,118
 498 718 498 718 530.5 705 c 128,-1,119
 563 692 563 692 602 692 c 2,120,-1
 605 692 l 1,121,122
 614 694.25 614 694.25 614 593 c 0,123,124
 614 568 614 568 613 567 c 0,125,126
 594 543.928571429 594 543.928571429 594 528.464285714 c 128,-1,127
 594 513 594 513 624 511 c 1,128,129
 641 410 641 410 641 353 c 1,130,131
 624 342 624 342 624 332.5 c 128,-1,132
 624 323 624 323 636 309 c 1,133,134
 639 246 639 246 647 238 c 1,135,136
 667 224 667 224 671.5 224 c 128,-1,137
 676 224 676 224 678 227 c 128,-1,138
 680 230 680 230 683 259 c 128,-1,139
 686 288 686 288 688 290 c 0,140,141
 699 302 699 302 700 307 c 0,142,143
 710 435 710 435 713 445 c 1,144,145
 738 464 738 464 738 471 c 2,146,-1
 738 472 l 2,147,148
 738 485 738 485 718 499 c 1,149,150
 730 582 730 582 737 615 c 1,151,152
 730 663 730 663 730 684 c 128,-1,153
 730 705 730 705 733 708 c 0,154,155
 788 749 788 749 821 760 c 1,156,157
 875 766 875 766 900 766 c 2,158,-1
 905 766 l 1,159,160
 948 755 948 755 948 744 c 2,161,-1
 948 743 l 1,162,163
 900 638 900 638 900 623 c 1,164,165
 860 601 860 601 860 585 c 0,166,167
 860 579 860 579 867.5 576.5 c 128,-1,168
 875 574 875 574 879 572 c 2,169,-1
 886 568.5 l 2,170,171
 889 567 889 567 888 566 c 0,172,173
 874 506 874 506 872.5 480 c 128,-1,174
 871 454 871 454 865 427.5 c 128,-1,175
 859 401 859 401 854 384 c 128,-1,176
 849 367 849 367 843 320.5 c 128,-1,177
 837 274 837 274 837 238 c 1,0,-1
EndSplineSet
EndChar

StartChar: X
Encoding: 88 88 56
Width: 605
Flags: MW
HStem: -45 21G<71 85> 755 20G<488.5 509>
VStem: 119 171<530 616> 404 153<642 648>
LayerCount: 2
Fore
SplineSet
557 642 m 1,0,1
 563 626 563 626 562.5 621 c 128,-1,2
 562 616 562 616 560.5 613 c 128,-1,3
 559 610 559 610 540.5 598.5 c 128,-1,4
 522 587 522 587 522 575 c 1,5,6
 434 371 434 371 434 353 c 1,7,8
 437.305555556 326.555555556 437.305555556 326.555555556 440.152777778 324.277777778 c 128,-1,9
 443 322 443 322 449 318 c 1,10,11
 477 233 477 233 488 211 c 1,12,13
 483 196 483 196 479 193 c 1,14,15
 480 173 480 173 492 172 c 0,16,17
 519 169 519 169 519 164 c 1,18,19
 524 140 524 140 547 91 c 128,-1,20
 570 42 570 42 580 27 c 1,21,-1
 580 25 l 2,22,23
 580 15 580 15 536.5 -1.5 c 2,24,-1
 522 -7 l 1,25,26
 487 -40 487 -40 477 -40 c 0,27,28
 400.454545455 -40 400.454545455 -40 357.5 -22.5 c 2,29,-1
 344 -17 l 1,30,-1
 339 36 l 1,31,-1
 346 49 l 1,32,33
 346 64.7692307692 346 64.7692307692 319 71 c 1,34,35
 313 71 313 71 313 81 c 1,36,-1
 321 116 l 1,37,38
 321 132 321 132 304.5 172.5 c 2,39,-1
 299 186 l 1,40,41
 293 192 293 192 284 192 c 2,42,-1
 281 192 l 2,43,44
 277 192 277 192 250.5 137 c 128,-1,45
 224 82 224 82 224 75 c 2,46,-1
 213 -4 l 2,47,48
 213 -11 213 -11 187.5 -20.5 c 128,-1,49
 162 -30 162 -30 150.5 -30 c 0,50,51
 128.125 -30 128.125 -30 96.5 -41 c 2,52,-1
 85 -45 l 1,53,54
 65 -45 65 -45 33.5 -31.5 c 128,-1,55
 2 -18 2 -18 2 -10 c 1,56,-1
 44 72 l 1,57,58
 54 72 54 72 59 81 c 0,59,60
 90.9142857143 144.828571429 90.9142857143 144.828571429 139 290.5 c 2,61,-1
 156 342 l 2,62,63
 156 345 156 345 159.5 345 c 128,-1,64
 163 345 163 345 173 333.5 c 128,-1,65
 183 322 183 322 190.5 310 c 2,66,-1
 198 298 l 1,67,68
 206 298 206 298 214 322 c 1,69,70
 214 347 214 347 180 408.5 c 128,-1,71
 146 470 146 470 146 474 c 128,-1,72
 146 478 146 478 154 488 c 128,-1,73
 162 498 162 498 162 502 c 128,-1,74
 162 506 162 506 156 515.5 c 128,-1,75
 150 525 150 525 146 527 c 128,-1,76
 142 529 142 529 135.5 529.5 c 128,-1,77
 129 530 129 530 124 530 c 128,-1,78
 119 530 119 530 119 532 c 0,79,80
 119 555 119 555 80.5 618.5 c 128,-1,81
 42 682 42 682 42 687 c 0,82,83
 42 690 42 690 62.5 706 c 128,-1,84
 83 722 83 722 110.5 737.5 c 128,-1,85
 138 753 138 753 153 753 c 0,86,87
 259 752 259 752 260 744 c 1,88,89
 292 656 292 656 299 650 c 0,90,91
 300 649 300 649 300 645 c 1,92,-1
 290 612 l 1,93,94
 290 599 290 599 304 599 c 0,95,96
 312 599 312 599 313 596 c 0,97,98
 337 511 337 511 344 511 c 0,99,100
 356 512 356 512 362 518 c 1,101,102
 404 614 404 614 404 648 c 1,103,104
 399 698 399 698 399 711 c 128,-1,105
 399 724 399 724 400 724 c 0,106,107
 468 775 468 775 509 775 c 1,108,109
 603 755 603 755 603 745 c 0,110,111
 603 738 603 738 580 695.5 c 128,-1,112
 557 653 557 653 557 642 c 1,0,1
EndSplineSet
EndChar

StartChar: Y
Encoding: 89 89 57
Width: 585
Flags: MW
HStem: -37 21G<219 259> 0 21G<339.5 352> 734 20G
VStem: 150 207<76 268.5>
LayerCount: 2
Fore
SplineSet
65 735 m 1,0,-1
 77 733 l 1,1,2
 96 733 96 733 126 747 c 1,3,4
 241 737 241 737 242 731 c 0,5,6
 255 641 255 641 255 625 c 128,-1,7
 255 609 255 609 254 608 c 0,8,9
 235 591 235 591 233 586 c 1,10,-1
 233 584 l 2,11,12
 233 566.9 233 566.9 247 565.5 c 0,13,14
 260 564.2 260 564.2 260 563 c 0,15,16
 273 468 273 468 287 468 c 1,17,18
 306 472 306 472 308 479 c 0,19,20
 342 570 342 570 345 596 c 1,21,22
 357 601 357 601 360.5 606.5 c 128,-1,23
 364 612 364 612 374.5 640.5 c 128,-1,24
 385 669 385 669 385 682 c 2,25,-1
 385 691 l 2,26,27
 385 726 385 726 389 728 c 0,28,29
 473 754 473 754 497 754 c 1,30,31
 583 733 583 733 583 719 c 1,32,33
 521 631 521 631 510 605 c 1,34,-1
 510 602 l 2,35,36
 510 568 510 568 495 553 c 1,37,38
 458 547 458 547 458 526 c 1,39,40
 467 514 467 514 467 508 c 1,41,42
 396.212765957 366.425531915 396.212765957 366.425531915 377 285 c 1,43,44
 345 277 345 277 338 254 c 1,45,46
 345 233 345 233 363 233 c 2,47,-1
 365 233 l 1,48,49
 357 108 357 108 357 82 c 1,50,-1
 369 10 l 1,51,-1
 369 8 l 2,52,53
 369 4.25 369 4.25 352 0 c 1,54,55
 328.125 0 328.125 0 300 -15 c 1,56,57
 287.703703704 -29.3456790123 287.703703704 -29.3456790123 259 -37 c 1,58,59
 223 -37 223 -37 192 -27 c 128,-1,60
 161 -17 161 -17 147.5 -6.5 c 128,-1,61
 134 4 134 4 134 10 c 2,62,-1
 134 11 l 1,63,64
 155 41 155 41 155 155 c 2,65,-1
 155 181 l 2,66,67
 155 188 155 188 143 201 c 128,-1,68
 131 214 131 214 131 216 c 0,69,70
 131 226 131 226 150 245 c 1,71,72
 150 287 150 287 124.5 351.5 c 2,73,-1
 116 373 l 1,74,-1
 115 376 l 1,75,-1
 118 395 l 2,76,77
 118 400 118 400 117 403 c 2,78,-1
 54 557 l 1,79,-1
 54 559 l 2,80,81
 54 563 54 563 65.5 578 c 128,-1,82
 77 593 77 593 77 599 c 0,83,84
 77 609.166666667 77 609.166666667 42 615 c 1,85,86
 34.8636363636 615 34.8636363636 615 30.5 647 c 2,87,-1
 29 658 l 2,88,89
 28 661 28 661 15 680.5 c 128,-1,90
 2 700 2 700 2 706 c 0,91,92
 2 708 2 708 13.5 715 c 0,93,94
 46.3571428571 735 46.3571428571 735 65 735 c 1,0,-1
EndSplineSet
EndChar

StartChar: Yacute
Encoding: 221 221 58
Width: 585
Flags: MW
HStem: -37 21G<219 259> 0 21G<339.5 352> 940 20G<329.5 345.5>
VStem: 150 207<76 268.5>
LayerCount: 2
Fore
SplineSet
327 868 m 1,0,-1
 329 853 l 2,1,2
 329 850 329 850 320 847 c 128,-1,3
 311 844 311 844 288 824.5 c 128,-1,4
 265 805 265 805 260.5 800 c 128,-1,5
 256 795 256 795 251 795 c 128,-1,6
 246 795 246 795 226.5 811 c 128,-1,7
 207 827 207 827 207 835.5 c 128,-1,8
 207 844 207 844 232 875.5 c 128,-1,9
 257 907 257 907 257 909 c 0,10,11
 258 921 258 921 258 922 c 0,12,13
 282 952 282 952 283.5 953.5 c 128,-1,14
 285 955 285 955 305.5 957.5 c 128,-1,15
 326 960 326 960 338 960 c 128,-1,16
 350 960 350 960 374.5 943 c 128,-1,17
 399 926 399 926 399 917 c 0,18,19
 399 914 399 914 391 908.5 c 0,20,21
 359.784313725 887.039215686 359.784313725 887.039215686 351 877 c 0,22,23
 350 876 350 876 338.5 876 c 128,-1,24
 327 876 327 876 327 868 c 1,0,-1
65 735 m 1,25,-1
 77 733 l 1,26,27
 96 733 96 733 126 747 c 1,28,29
 241 737 241 737 242 731 c 0,30,31
 255 641 255 641 255 625 c 128,-1,32
 255 609 255 609 254 608 c 0,33,34
 235 591 235 591 233 586 c 1,35,-1
 233 584 l 2,36,37
 233 566.9 233 566.9 247 565.5 c 0,38,39
 260 564.2 260 564.2 260 563 c 0,40,41
 273 468 273 468 287 468 c 1,42,43
 306 472 306 472 308 479 c 0,44,45
 342 570 342 570 345 596 c 1,46,47
 357 601 357 601 360.5 606.5 c 128,-1,48
 364 612 364 612 374.5 640.5 c 128,-1,49
 385 669 385 669 385 682 c 2,50,-1
 385 691 l 2,51,52
 385 726 385 726 389 728 c 0,53,54
 473 754 473 754 497 754 c 1,55,56
 583 733 583 733 583 719 c 1,57,58
 521 631 521 631 510 605 c 1,59,-1
 510 602 l 2,60,61
 510 568 510 568 495 553 c 1,62,63
 458 547 458 547 458 526 c 1,64,65
 467 514 467 514 467 508 c 1,66,67
 396.212765957 366.425531915 396.212765957 366.425531915 377 285 c 1,68,69
 345 277 345 277 338 254 c 1,70,71
 345 233 345 233 363 233 c 2,72,-1
 365 233 l 1,73,74
 357 108 357 108 357 82 c 1,75,-1
 369 10 l 1,76,-1
 369 8 l 2,77,78
 369 4.25 369 4.25 352 0 c 1,79,80
 328.125 0 328.125 0 300 -15 c 1,81,82
 287.703703704 -29.3456790123 287.703703704 -29.3456790123 259 -37 c 1,83,84
 223 -37 223 -37 192 -27 c 128,-1,85
 161 -17 161 -17 147.5 -6.5 c 128,-1,86
 134 4 134 4 134 10 c 2,87,-1
 134 11 l 1,88,89
 155 41 155 41 155 155 c 2,90,-1
 155 181 l 2,91,92
 155 188 155 188 143 201 c 128,-1,93
 131 214 131 214 131 216 c 0,94,95
 131 226 131 226 150 245 c 1,96,97
 150 287 150 287 124.5 351.5 c 2,98,-1
 116 373 l 1,99,-1
 115 376 l 1,100,-1
 118 395 l 2,101,102
 118 400 118 400 117 403 c 2,103,-1
 54 557 l 1,104,-1
 54 559 l 2,105,106
 54 563 54 563 65.5 578 c 128,-1,107
 77 593 77 593 77 599 c 0,108,109
 77 609.166666667 77 609.166666667 42 615 c 1,110,111
 34.8636363636 615 34.8636363636 615 30.5 647 c 2,112,-1
 29 658 l 2,113,114
 28 661 28 661 15 680.5 c 128,-1,115
 2 700 2 700 2 706 c 0,116,117
 2 708 2 708 13.5 715 c 0,118,119
 46.3571428571 735 46.3571428571 735 65 735 c 1,25,-1
EndSplineSet
EndChar

